<ttFont>
    <TTGlyph name=".ttfautohint" xMin="0" yMin="0" xMax="0" yMax="0">
      <contour>
        <pt x="0" y="0" on="1"/>
      </contour>
    </TTGlyph>
    <TTGlyph name="A" xMin="-8" yMin="0" xMax="648" yMax="654">
      <contour>
        <pt x="57" y="68" on="1"/>
        <pt x="265" y="654" on="1"/>
        <pt x="359" y="654" on="1"/>
        <pt x="581" y="68" on="1"/>
        <pt x="648" y="54" on="1"/>
        <pt x="648" y="0" on="1"/>
        <pt x="366" y="0" on="1"/>
        <pt x="366" y="54" on="1"/>
        <pt x="442" y="68" on="1"/>
        <pt x="437" y="90" on="1"/>
        <pt x="405" y="182" on="1"/>
        <pt x="188" y="182" on="1"/>
        <pt x="155" y="87" on="1"/>
        <pt x="151" y="67" on="1"/>
        <pt x="231" y="54" on="1"/>
        <pt x="231" y="0" on="1"/>
        <pt x="-8" y="0" on="1"/>
        <pt x="-8" y="54" on="1"/>
      </contour>
      <contour>
        <pt x="302" y="482" on="1"/>
        <pt x="299" y="501" on="1"/>
        <pt x="295" y="503" on="1"/>
        <pt x="291" y="481" on="1"/>
        <pt x="213" y="254" on="1"/>
        <pt x="382" y="254" on="1"/>
      </contour>
    </TTGlyph>
    <TTGlyph name="AE" xMin="-6" yMin="0" xMax="827" yMax="648">
      <contour>
        <pt x="64" y="68" on="1"/>
        <pt x="337" y="648" on="1"/>
        <pt x="759" y="648" on="1"/>
        <pt x="769" y="469" on="1"/>
        <pt x="709" y="469" on="1"/>
        <pt x="678" y="580" on="1"/>
        <pt x="567" y="580" on="1"/>
        <pt x="505" y="573" on="1"/>
        <pt x="526" y="332" on="1"/>
        <pt x="635" y="332" on="1"/>
        <pt x="651" y="394" on="1"/>
        <pt x="700" y="394" on="1"/>
        <pt x="713" y="196" on="1"/>
        <pt x="664" y="196" on="1"/>
        <pt x="639" y="263" on="1"/>
        <pt x="532" y="263" on="1"/>
        <pt x="549" y="73" on="1"/>
        <pt x="583" y="69" on="0"/>
        <pt x="614" y="69" on="1"/>
        <pt x="738" y="69" on="1"/>
        <pt x="757" y="185" on="1"/>
        <pt x="815" y="185" on="1"/>
        <pt x="827" y="0" on="1"/>
        <pt x="349" y="0" on="1"/>
        <pt x="346" y="51" on="1"/>
        <pt x="426" y="70" on="1"/>
        <pt x="409" y="260" on="1"/>
        <pt x="242" y="260" on="1"/>
        <pt x="163" y="86" on="1"/>
        <pt x="157" y="67" on="1"/>
        <pt x="233" y="54" on="1"/>
        <pt x="233" y="0" on="1"/>
        <pt x="-6" y="0" on="1"/>
        <pt x="-6" y="54" on="1"/>
      </contour>
      <contour>
        <pt x="382" y="571" on="1"/>
        <pt x="275" y="332" on="1"/>
        <pt x="403" y="332" on="1"/>
      </contour>
    </TTGlyph>
    <TTGlyph name="AEacute" xMin="-6" yMin="0" xMax="827" yMax="841">
      <component glyphName=".ttfautohint" x="0" y="0" flags="0x0"/>
      <component glyphName="AE" x="0" y="0" flags="0x0"/>
      <component glyphName="acutecomb.case" x="641" y="0" flags="0x0"/>
    </TTGlyph>
    <TTGlyph name="Aacute" xMin="-8" yMin="0" xMax="648" yMax="841">
      <contour>
        <pt x="334" y="818" on="1"/>
        <pt x="338" y="820" on="0"/>
        <pt x="360" y="834" on="0"/>
        <pt x="377" y="841" on="0"/>
        <pt x="383" y="841" on="1"/>
        <pt x="406" y="841" on="0"/>
        <pt x="432" y="801" on="0"/>
        <pt x="432" y="771" on="1"/>
        <pt x="432" y="763" on="0"/>
        <pt x="430" y="749" on="1"/>
        <pt x="219" y="675" on="1"/>
        <pt x="196" y="719" on="1"/>
      </contour>
      <contour>
        <pt x="57" y="68" on="1"/>
        <pt x="265" y="654" on="1"/>
        <pt x="359" y="654" on="1"/>
        <pt x="581" y="68" on="1"/>
        <pt x="648" y="54" on="1"/>
        <pt x="648" y="0" on="1"/>
        <pt x="366" y="0" on="1"/>
        <pt x="366" y="54" on="1"/>
        <pt x="442" y="68" on="1"/>
        <pt x="437" y="90" on="1"/>
        <pt x="405" y="182" on="1"/>
        <pt x="188" y="182" on="1"/>
        <pt x="155" y="87" on="1"/>
        <pt x="151" y="67" on="1"/>
        <pt x="231" y="54" on="1"/>
        <pt x="231" y="0" on="1"/>
        <pt x="-8" y="0" on="1"/>
        <pt x="-8" y="54" on="1"/>
      </contour>
      <contour>
        <pt x="302" y="482" on="1"/>
        <pt x="299" y="501" on="1"/>
        <pt x="295" y="503" on="1"/>
        <pt x="291" y="481" on="1"/>
        <pt x="213" y="254" on="1"/>
        <pt x="382" y="254" on="1"/>
      </contour>
    </TTGlyph>
    <TTGlyph name="Abreve" xMin="-8" yMin="0" xMax="648" yMax="840">
      <contour>
        <pt x="219" y="837" on="0"/>
        <pt x="244" y="804" on="0"/>
        <pt x="291" y="776" on="0"/>
        <pt x="326" y="776" on="1"/>
        <pt x="364" y="776" on="0"/>
        <pt x="417" y="803" on="0"/>
        <pt x="446" y="833" on="0"/>
        <pt x="446" y="836" on="1"/>
        <pt x="486" y="813" on="1"/>
        <pt x="486" y="808" on="0"/>
        <pt x="449" y="747" on="0"/>
        <pt x="377" y="695" on="0"/>
        <pt x="325" y="695" on="1"/>
        <pt x="261" y="695" on="0"/>
        <pt x="183" y="742" on="0"/>
        <pt x="149" y="794" on="0"/>
        <pt x="149" y="800" on="1"/>
        <pt x="219" y="840" on="1"/>
      </contour>
      <contour>
        <pt x="57" y="68" on="1"/>
        <pt x="265" y="654" on="1"/>
        <pt x="359" y="654" on="1"/>
        <pt x="581" y="68" on="1"/>
        <pt x="648" y="54" on="1"/>
        <pt x="648" y="0" on="1"/>
        <pt x="366" y="0" on="1"/>
        <pt x="366" y="54" on="1"/>
        <pt x="442" y="68" on="1"/>
        <pt x="437" y="90" on="1"/>
        <pt x="405" y="182" on="1"/>
        <pt x="188" y="182" on="1"/>
        <pt x="155" y="87" on="1"/>
        <pt x="151" y="67" on="1"/>
        <pt x="231" y="54" on="1"/>
        <pt x="231" y="0" on="1"/>
        <pt x="-8" y="0" on="1"/>
        <pt x="-8" y="54" on="1"/>
      </contour>
      <contour>
        <pt x="302" y="482" on="1"/>
        <pt x="299" y="501" on="1"/>
        <pt x="295" y="503" on="1"/>
        <pt x="291" y="481" on="1"/>
        <pt x="213" y="254" on="1"/>
        <pt x="382" y="254" on="1"/>
      </contour>
    </TTGlyph>
    <TTGlyph name="Acircumflex" xMin="-8" yMin="0" xMax="648" yMax="840">
      <contour>
        <pt x="252" y="801" on="1"/>
        <pt x="282" y="825" on="0"/>
        <pt x="306" y="840" on="0"/>
        <pt x="314" y="840" on="1"/>
        <pt x="323" y="840" on="0"/>
        <pt x="344" y="826" on="0"/>
        <pt x="368" y="807" on="0"/>
        <pt x="374" y="802" on="1"/>
        <pt x="478" y="720" on="1"/>
        <pt x="446" y="674" on="1"/>
        <pt x="308" y="737" on="1"/>
        <pt x="172" y="674" on="1"/>
        <pt x="146" y="713" on="1"/>
      </contour>
      <contour>
        <pt x="57" y="68" on="1"/>
        <pt x="265" y="654" on="1"/>
        <pt x="359" y="654" on="1"/>
        <pt x="581" y="68" on="1"/>
        <pt x="648" y="54" on="1"/>
        <pt x="648" y="0" on="1"/>
        <pt x="366" y="0" on="1"/>
        <pt x="366" y="54" on="1"/>
        <pt x="442" y="68" on="1"/>
        <pt x="437" y="90" on="1"/>
        <pt x="405" y="182" on="1"/>
        <pt x="188" y="182" on="1"/>
        <pt x="155" y="87" on="1"/>
        <pt x="151" y="67" on="1"/>
        <pt x="231" y="54" on="1"/>
        <pt x="231" y="0" on="1"/>
        <pt x="-8" y="0" on="1"/>
        <pt x="-8" y="54" on="1"/>
      </contour>
      <contour>
        <pt x="302" y="482" on="1"/>
        <pt x="299" y="501" on="1"/>
        <pt x="295" y="503" on="1"/>
        <pt x="291" y="481" on="1"/>
        <pt x="213" y="254" on="1"/>
        <pt x="382" y="254" on="1"/>
      </contour>
    </TTGlyph>
    <TTGlyph name="Adieresis" xMin="-8" yMin="0" xMax="648" yMax="831">
      <contour>
        <pt x="163" y="692" on="0"/>
        <pt x="128" y="729" on="0"/>
        <pt x="128" y="759" on="1"/>
        <pt x="128" y="788" on="0"/>
        <pt x="169" y="831" on="0"/>
        <pt x="198" y="831" on="1"/>
        <pt x="226" y="831" on="0"/>
        <pt x="261" y="795" on="0"/>
        <pt x="261" y="765" on="1"/>
        <pt x="261" y="735" on="0"/>
        <pt x="222" y="692" on="0"/>
        <pt x="191" y="692" on="1"/>
      </contour>
      <contour>
        <pt x="396" y="692" on="0"/>
        <pt x="361" y="729" on="0"/>
        <pt x="361" y="759" on="1"/>
        <pt x="361" y="788" on="0"/>
        <pt x="401" y="831" on="0"/>
        <pt x="430" y="831" on="1"/>
        <pt x="458" y="831" on="0"/>
        <pt x="494" y="795" on="0"/>
        <pt x="494" y="765" on="1"/>
        <pt x="494" y="735" on="0"/>
        <pt x="455" y="692" on="0"/>
        <pt x="424" y="692" on="1"/>
      </contour>
      <contour>
        <pt x="57" y="68" on="1"/>
        <pt x="265" y="654" on="1"/>
        <pt x="359" y="654" on="1"/>
        <pt x="581" y="68" on="1"/>
        <pt x="648" y="54" on="1"/>
        <pt x="648" y="0" on="1"/>
        <pt x="366" y="0" on="1"/>
        <pt x="366" y="54" on="1"/>
        <pt x="442" y="68" on="1"/>
        <pt x="437" y="90" on="1"/>
        <pt x="405" y="182" on="1"/>
        <pt x="188" y="182" on="1"/>
        <pt x="155" y="87" on="1"/>
        <pt x="151" y="67" on="1"/>
        <pt x="231" y="54" on="1"/>
        <pt x="231" y="0" on="1"/>
        <pt x="-8" y="0" on="1"/>
        <pt x="-8" y="54" on="1"/>
      </contour>
      <contour>
        <pt x="302" y="482" on="1"/>
        <pt x="299" y="501" on="1"/>
        <pt x="295" y="503" on="1"/>
        <pt x="291" y="481" on="1"/>
        <pt x="213" y="254" on="1"/>
        <pt x="382" y="254" on="1"/>
      </contour>
    </TTGlyph>
    <TTGlyph name="Agrave" xMin="-8" yMin="0" xMax="648" yMax="841">
      <contour>
        <pt x="181" y="765" on="0"/>
        <pt x="181" y="773" on="1"/>
        <pt x="181" y="803" on="0"/>
        <pt x="207" y="841" on="0"/>
        <pt x="230" y="841" on="1"/>
        <pt x="237" y="841" on="0"/>
        <pt x="259" y="830" on="0"/>
        <pt x="274" y="820" on="0"/>
        <pt x="278" y="818" on="1"/>
        <pt x="417" y="719" on="1"/>
        <pt x="393" y="675" on="1"/>
        <pt x="183" y="749" on="1"/>
      </contour>
      <contour>
        <pt x="57" y="68" on="1"/>
        <pt x="265" y="654" on="1"/>
        <pt x="359" y="654" on="1"/>
        <pt x="581" y="68" on="1"/>
        <pt x="648" y="54" on="1"/>
        <pt x="648" y="0" on="1"/>
        <pt x="366" y="0" on="1"/>
        <pt x="366" y="54" on="1"/>
        <pt x="442" y="68" on="1"/>
        <pt x="437" y="90" on="1"/>
        <pt x="405" y="182" on="1"/>
        <pt x="188" y="182" on="1"/>
        <pt x="155" y="87" on="1"/>
        <pt x="151" y="67" on="1"/>
        <pt x="231" y="54" on="1"/>
        <pt x="231" y="0" on="1"/>
        <pt x="-8" y="0" on="1"/>
        <pt x="-8" y="54" on="1"/>
      </contour>
      <contour>
        <pt x="302" y="482" on="1"/>
        <pt x="299" y="501" on="1"/>
        <pt x="295" y="503" on="1"/>
        <pt x="291" y="481" on="1"/>
        <pt x="213" y="254" on="1"/>
        <pt x="382" y="254" on="1"/>
      </contour>
    </TTGlyph>
    <TTGlyph name="Amacron" xMin="-8" yMin="0" xMax="648" yMax="797">
      <contour>
        <pt x="488" y="797" on="1"/>
        <pt x="476" y="723" on="1"/>
        <pt x="135" y="723" on="1"/>
        <pt x="147" y="797" on="1"/>
      </contour>
      <contour>
        <pt x="57" y="68" on="1"/>
        <pt x="265" y="654" on="1"/>
        <pt x="359" y="654" on="1"/>
        <pt x="581" y="68" on="1"/>
        <pt x="648" y="54" on="1"/>
        <pt x="648" y="0" on="1"/>
        <pt x="366" y="0" on="1"/>
        <pt x="366" y="54" on="1"/>
        <pt x="442" y="68" on="1"/>
        <pt x="437" y="90" on="1"/>
        <pt x="405" y="182" on="1"/>
        <pt x="188" y="182" on="1"/>
        <pt x="155" y="87" on="1"/>
        <pt x="151" y="67" on="1"/>
        <pt x="231" y="54" on="1"/>
        <pt x="231" y="0" on="1"/>
        <pt x="-8" y="0" on="1"/>
        <pt x="-8" y="54" on="1"/>
      </contour>
      <contour>
        <pt x="302" y="482" on="1"/>
        <pt x="299" y="501" on="1"/>
        <pt x="295" y="503" on="1"/>
        <pt x="291" y="481" on="1"/>
        <pt x="213" y="254" on="1"/>
        <pt x="382" y="254" on="1"/>
      </contour>
    </TTGlyph>
    <TTGlyph name="Aogonek" xMin="-8" yMin="-187" xMax="648" yMax="654">
      <contour>
        <pt x="397" y="-44" on="0"/>
        <pt x="397" y="-82" on="1"/>
        <pt x="397" y="-119" on="0"/>
        <pt x="435" y="-119" on="1"/>
        <pt x="455" y="-119" on="0"/>
        <pt x="488" y="-99" on="1"/>
        <pt x="510" y="-136" on="1"/>
        <pt x="510" y="-138" on="0"/>
        <pt x="480" y="-164" on="0"/>
        <pt x="433" y="-187" on="0"/>
        <pt x="405" y="-187" on="1"/>
        <pt x="364" y="-187" on="0"/>
        <pt x="314" y="-149" on="0"/>
        <pt x="314" y="-113" on="1"/>
        <pt x="314" y="-77" on="0"/>
        <pt x="356" y="-20" on="0"/>
        <pt x="390" y="0" on="1"/>
        <pt x="366" y="0" on="1"/>
        <pt x="366" y="54" on="1"/>
        <pt x="442" y="68" on="1"/>
        <pt x="437" y="90" on="1"/>
        <pt x="405" y="182" on="1"/>
        <pt x="188" y="182" on="1"/>
        <pt x="155" y="87" on="1"/>
        <pt x="151" y="67" on="1"/>
        <pt x="231" y="54" on="1"/>
        <pt x="231" y="0" on="1"/>
        <pt x="-8" y="0" on="1"/>
        <pt x="-8" y="54" on="1"/>
        <pt x="57" y="68" on="1"/>
        <pt x="265" y="654" on="1"/>
        <pt x="359" y="654" on="1"/>
        <pt x="581" y="68" on="1"/>
        <pt x="648" y="54" on="1"/>
        <pt x="648" y="0" on="1"/>
        <pt x="448" y="0" on="1"/>
      </contour>
      <contour>
        <pt x="382" y="254" on="1"/>
        <pt x="302" y="482" on="1"/>
        <pt x="299" y="501" on="1"/>
        <pt x="295" y="503" on="1"/>
        <pt x="291" y="481" on="1"/>
        <pt x="213" y="254" on="1"/>
      </contour>
    </TTGlyph>
    <TTGlyph name="Aring" xMin="-8" yMin="0" xMax="648" yMax="839">
      <contour>
        <pt x="214" y="787" on="0"/>
        <pt x="267" y="839" on="0"/>
        <pt x="316" y="839" on="1"/>
        <pt x="364" y="839" on="0"/>
        <pt x="412" y="792" on="0"/>
        <pt x="412" y="753" on="1"/>
        <pt x="412" y="712" on="0"/>
        <pt x="362" y="661" on="0"/>
        <pt x="311" y="660" on="1"/>
        <pt x="214" y="660" on="0"/>
        <pt x="214" y="747" on="1"/>
      </contour>
      <contour>
        <pt x="335" y="712" on="0"/>
        <pt x="349" y="729" on="0"/>
        <pt x="349" y="750" on="1"/>
        <pt x="349" y="773" on="0"/>
        <pt x="334" y="788" on="0"/>
        <pt x="313" y="788" on="1"/>
        <pt x="292" y="788" on="0"/>
        <pt x="277" y="773" on="0"/>
        <pt x="277" y="751" on="1"/>
        <pt x="277" y="727" on="0"/>
        <pt x="292" y="712" on="0"/>
        <pt x="314" y="712" on="1"/>
      </contour>
      <contour>
        <pt x="57" y="68" on="1"/>
        <pt x="265" y="654" on="1"/>
        <pt x="359" y="654" on="1"/>
        <pt x="581" y="68" on="1"/>
        <pt x="648" y="54" on="1"/>
        <pt x="648" y="0" on="1"/>
        <pt x="366" y="0" on="1"/>
        <pt x="366" y="54" on="1"/>
        <pt x="442" y="68" on="1"/>
        <pt x="437" y="90" on="1"/>
        <pt x="405" y="182" on="1"/>
        <pt x="188" y="182" on="1"/>
        <pt x="155" y="87" on="1"/>
        <pt x="151" y="67" on="1"/>
        <pt x="231" y="54" on="1"/>
        <pt x="231" y="0" on="1"/>
        <pt x="-8" y="0" on="1"/>
        <pt x="-8" y="54" on="1"/>
      </contour>
      <contour>
        <pt x="302" y="482" on="1"/>
        <pt x="299" y="501" on="1"/>
        <pt x="295" y="503" on="1"/>
        <pt x="291" y="481" on="1"/>
        <pt x="213" y="254" on="1"/>
        <pt x="382" y="254" on="1"/>
      </contour>
    </TTGlyph>
    <TTGlyph name="Aringacute" xMin="-8" yMin="0" xMax="648" yMax="1018">
      <contour>
        <pt x="275" y="852" on="1"/>
        <pt x="251" y="896" on="1"/>
        <pt x="390" y="995" on="1"/>
        <pt x="403" y="1003" on="0"/>
        <pt x="429" y="1018" on="0"/>
        <pt x="438" y="1018" on="1"/>
        <pt x="462" y="1018" on="0"/>
        <pt x="487" y="979" on="0"/>
        <pt x="487" y="948" on="1"/>
        <pt x="487" y="942" on="0"/>
        <pt x="485" y="926" on="1"/>
      </contour>
      <contour>
        <pt x="648" y="54" on="1"/>
        <pt x="648" y="0" on="1"/>
        <pt x="366" y="0" on="1"/>
        <pt x="366" y="54" on="1"/>
        <pt x="442" y="68" on="1"/>
        <pt x="437" y="90" on="1"/>
        <pt x="405" y="182" on="1"/>
        <pt x="188" y="182" on="1"/>
        <pt x="155" y="87" on="1"/>
        <pt x="151" y="67" on="1"/>
        <pt x="231" y="54" on="1"/>
        <pt x="231" y="0" on="1"/>
        <pt x="-8" y="0" on="1"/>
        <pt x="-8" y="54" on="1"/>
        <pt x="57" y="68" on="1"/>
        <pt x="265" y="654" on="1"/>
        <pt x="273" y="654" on="1"/>
        <pt x="220" y="671" on="0"/>
        <pt x="220" y="733" on="1"/>
        <pt x="220" y="773" on="0"/>
        <pt x="273" y="825" on="0"/>
        <pt x="322" y="825" on="1"/>
        <pt x="369" y="825" on="0"/>
        <pt x="417" y="778" on="0"/>
        <pt x="417" y="739" on="1"/>
        <pt x="417" y="708" on="0"/>
        <pt x="386" y="664" on="0"/>
        <pt x="356" y="654" on="1"/>
        <pt x="359" y="654" on="1"/>
        <pt x="581" y="68" on="1"/>
      </contour>
      <contour>
        <pt x="299" y="776" on="0"/>
        <pt x="286" y="760" on="0"/>
        <pt x="286" y="737" on="1"/>
        <pt x="286" y="712" on="0"/>
        <pt x="299" y="696" on="0"/>
        <pt x="320" y="696" on="1"/>
        <pt x="339" y="696" on="0"/>
        <pt x="351" y="712" on="0"/>
        <pt x="351" y="733" on="1"/>
        <pt x="351" y="759" on="0"/>
        <pt x="340" y="776" on="0"/>
        <pt x="318" y="776" on="1"/>
      </contour>
      <contour>
        <pt x="382" y="254" on="1"/>
        <pt x="302" y="482" on="1"/>
        <pt x="299" y="501" on="1"/>
        <pt x="295" y="503" on="1"/>
        <pt x="291" y="481" on="1"/>
        <pt x="213" y="254" on="1"/>
      </contour>
    </TTGlyph>
    <TTGlyph name="Atilde" xMin="-8" yMin="0" xMax="648" yMax="830">
      <contour>
        <pt x="165" y="789" on="1"/>
        <pt x="181" y="813" on="0"/>
        <pt x="219" y="830" on="0"/>
        <pt x="243" y="830" on="1"/>
        <pt x="271" y="830" on="0"/>
        <pt x="305" y="819" on="1"/>
        <pt x="397" y="788" on="1"/>
        <pt x="472" y="826" on="1"/>
        <pt x="505" y="793" on="1"/>
        <pt x="469" y="742" on="1"/>
        <pt x="452" y="717" on="0"/>
        <pt x="414" y="699" on="0"/>
        <pt x="391" y="699" on="1"/>
        <pt x="369" y="699" on="0"/>
        <pt x="330" y="712" on="1"/>
        <pt x="237" y="742" on="1"/>
        <pt x="163" y="704" on="1"/>
        <pt x="130" y="737" on="1"/>
      </contour>
      <contour>
        <pt x="57" y="68" on="1"/>
        <pt x="265" y="654" on="1"/>
        <pt x="359" y="654" on="1"/>
        <pt x="581" y="68" on="1"/>
        <pt x="648" y="54" on="1"/>
        <pt x="648" y="0" on="1"/>
        <pt x="366" y="0" on="1"/>
        <pt x="366" y="54" on="1"/>
        <pt x="442" y="68" on="1"/>
        <pt x="437" y="90" on="1"/>
        <pt x="405" y="182" on="1"/>
        <pt x="188" y="182" on="1"/>
        <pt x="155" y="87" on="1"/>
        <pt x="151" y="67" on="1"/>
        <pt x="231" y="54" on="1"/>
        <pt x="231" y="0" on="1"/>
        <pt x="-8" y="0" on="1"/>
        <pt x="-8" y="54" on="1"/>
      </contour>
      <contour>
        <pt x="302" y="482" on="1"/>
        <pt x="299" y="501" on="1"/>
        <pt x="295" y="503" on="1"/>
        <pt x="291" y="481" on="1"/>
        <pt x="213" y="254" on="1"/>
        <pt x="382" y="254" on="1"/>
      </contour>
    </TTGlyph>
    <TTGlyph name="B" xMin="44" yMin="0" xMax="583" yMax="648">
      <contour>
        <pt x="44" y="51" on="1"/>
        <pt x="125" y="70" on="1"/>
        <pt x="125" y="578" on="1"/>
        <pt x="44" y="597" on="1"/>
        <pt x="44" y="648" on="1"/>
        <pt x="315" y="648" on="1"/>
        <pt x="434" y="648" on="0"/>
        <pt x="556" y="565" on="0"/>
        <pt x="556" y="485" on="1"/>
        <pt x="556" y="396" on="0"/>
        <pt x="453" y="344" on="1"/>
        <pt x="515" y="327" on="0"/>
        <pt x="583" y="249" on="0"/>
        <pt x="583" y="195" on="1"/>
        <pt x="583" y="104" on="0"/>
        <pt x="460" y="0" on="0"/>
        <pt x="351" y="0" on="1"/>
        <pt x="44" y="0" on="1"/>
      </contour>
      <contour>
        <pt x="287" y="363" on="1"/>
        <pt x="354" y="363" on="0"/>
        <pt x="427" y="424" on="0"/>
        <pt x="427" y="479" on="1"/>
        <pt x="427" y="578" on="0"/>
        <pt x="308" y="578" on="1"/>
        <pt x="279" y="578" on="0"/>
        <pt x="247" y="574" on="1"/>
        <pt x="247" y="363" on="1"/>
      </contour>
      <contour>
        <pt x="378" y="68" on="0"/>
        <pt x="450" y="125" on="0"/>
        <pt x="450" y="184" on="1"/>
        <pt x="450" y="241" on="0"/>
        <pt x="374" y="295" on="0"/>
        <pt x="294" y="295" on="1"/>
        <pt x="247" y="295" on="1"/>
        <pt x="247" y="71" on="1"/>
        <pt x="280" y="68" on="0"/>
        <pt x="303" y="68" on="1"/>
      </contour>
    </TTGlyph>
    <TTGlyph name="C" xMin="39" yMin="-15" xMax="563" yMax="664">
      <contour>
        <pt x="563" y="199" on="1"/>
        <pt x="563" y="29" on="1"/>
        <pt x="520" y="10" on="0"/>
        <pt x="416" y="-15" on="0"/>
        <pt x="337" y="-15" on="1"/>
        <pt x="188" y="-15" on="0"/>
        <pt x="39" y="155" on="0"/>
        <pt x="39" y="316" on="1"/>
        <pt x="39" y="413" on="0"/>
        <pt x="119" y="572" on="0"/>
        <pt x="264" y="664" on="0"/>
        <pt x="357" y="664" on="1"/>
        <pt x="417" y="664" on="0"/>
        <pt x="524" y="647" on="0"/>
        <pt x="559" y="636" on="1"/>
        <pt x="559" y="464" on="1"/>
        <pt x="493" y="464" on="1"/>
        <pt x="472" y="571" on="1"/>
        <pt x="456" y="577" on="0"/>
        <pt x="394" y="588" on="0"/>
        <pt x="356" y="588" on="1"/>
        <pt x="290" y="588" on="0"/>
        <pt x="213" y="535" on="0"/>
        <pt x="179" y="419" on="0"/>
        <pt x="179" y="319" on="1"/>
        <pt x="179" y="179" on="0"/>
        <pt x="267" y="58" on="0"/>
        <pt x="358" y="58" on="1"/>
        <pt x="400" y="58" on="0"/>
        <pt x="453" y="75" on="0"/>
        <pt x="476" y="86" on="1"/>
        <pt x="498" y="199" on="1"/>
      </contour>
    </TTGlyph>
    <TTGlyph name="Cacute" xMin="39" yMin="-15" xMax="561" yMax="841">
      <contour>
        <pt x="394" y="818" on="1"/>
        <pt x="398" y="820" on="0"/>
        <pt x="420" y="834" on="0"/>
        <pt x="437" y="841" on="0"/>
        <pt x="443" y="841" on="1"/>
        <pt x="467" y="841" on="0"/>
        <pt x="492" y="802" on="0"/>
        <pt x="492" y="771" on="1"/>
        <pt x="492" y="765" on="0"/>
        <pt x="490" y="749" on="1"/>
        <pt x="280" y="675" on="1"/>
        <pt x="256" y="719" on="1"/>
      </contour>
      <contour>
        <pt x="561" y="199" on="1"/>
        <pt x="561" y="29" on="1"/>
        <pt x="517" y="10" on="0"/>
        <pt x="416" y="-15" on="0"/>
        <pt x="337" y="-15" on="1"/>
        <pt x="188" y="-15" on="0"/>
        <pt x="39" y="155" on="0"/>
        <pt x="39" y="316" on="1"/>
        <pt x="39" y="413" on="0"/>
        <pt x="119" y="572" on="0"/>
        <pt x="264" y="664" on="0"/>
        <pt x="357" y="664" on="1"/>
        <pt x="417" y="664" on="0"/>
        <pt x="522" y="648" on="0"/>
        <pt x="557" y="636" on="1"/>
        <pt x="557" y="464" on="1"/>
        <pt x="493" y="464" on="1"/>
        <pt x="472" y="571" on="1"/>
        <pt x="456" y="577" on="0"/>
        <pt x="394" y="588" on="0"/>
        <pt x="356" y="588" on="1"/>
        <pt x="290" y="588" on="0"/>
        <pt x="213" y="535" on="0"/>
        <pt x="179" y="419" on="0"/>
        <pt x="179" y="319" on="1"/>
        <pt x="179" y="179" on="0"/>
        <pt x="267" y="58" on="0"/>
        <pt x="358" y="58" on="1"/>
        <pt x="400" y="58" on="0"/>
        <pt x="453" y="75" on="0"/>
        <pt x="476" y="86" on="1"/>
        <pt x="498" y="199" on="1"/>
      </contour>
    </TTGlyph>
    <TTGlyph name="Cacute.loclPLK" xMin="39" yMin="-15" xMax="563" yMax="869">
      <contour>
        <pt x="324" y="705" on="1"/>
        <pt x="395" y="825" on="1"/>
        <pt x="398" y="829" on="0"/>
        <pt x="416" y="857" on="0"/>
        <pt x="435" y="869" on="0"/>
        <pt x="446" y="869" on="1"/>
        <pt x="489" y="869" on="0"/>
        <pt x="510" y="801" on="1"/>
        <pt x="369" y="667" on="1"/>
      </contour>
      <contour>
        <pt x="563" y="199" on="1"/>
        <pt x="563" y="29" on="1"/>
        <pt x="520" y="10" on="0"/>
        <pt x="416" y="-15" on="0"/>
        <pt x="337" y="-15" on="1"/>
        <pt x="188" y="-15" on="0"/>
        <pt x="39" y="155" on="0"/>
        <pt x="39" y="316" on="1"/>
        <pt x="39" y="413" on="0"/>
        <pt x="119" y="572" on="0"/>
        <pt x="264" y="664" on="0"/>
        <pt x="357" y="664" on="1"/>
        <pt x="417" y="664" on="0"/>
        <pt x="524" y="647" on="0"/>
        <pt x="559" y="636" on="1"/>
        <pt x="559" y="464" on="1"/>
        <pt x="493" y="464" on="1"/>
        <pt x="472" y="571" on="1"/>
        <pt x="456" y="577" on="0"/>
        <pt x="394" y="588" on="0"/>
        <pt x="356" y="588" on="1"/>
        <pt x="290" y="588" on="0"/>
        <pt x="213" y="535" on="0"/>
        <pt x="179" y="419" on="0"/>
        <pt x="179" y="319" on="1"/>
        <pt x="179" y="179" on="0"/>
        <pt x="267" y="58" on="0"/>
        <pt x="358" y="58" on="1"/>
        <pt x="400" y="58" on="0"/>
        <pt x="453" y="75" on="0"/>
        <pt x="476" y="86" on="1"/>
        <pt x="498" y="199" on="1"/>
      </contour>
    </TTGlyph>
    <TTGlyph name="Ccaron" xMin="39" yMin="-15" xMax="561" yMax="840">
      <contour>
        <pt x="350" y="777" on="1"/>
        <pt x="485" y="840" on="1"/>
        <pt x="512" y="800" on="1"/>
        <pt x="405" y="712" on="1"/>
        <pt x="378" y="690" on="0"/>
        <pt x="355" y="674" on="0"/>
        <pt x="345" y="674" on="1"/>
        <pt x="332" y="674" on="0"/>
        <pt x="302" y="699" on="1"/>
        <pt x="284" y="712" on="1"/>
        <pt x="179" y="792" on="1"/>
        <pt x="212" y="840" on="1"/>
      </contour>
      <contour>
        <pt x="561" y="199" on="1"/>
        <pt x="561" y="29" on="1"/>
        <pt x="517" y="10" on="0"/>
        <pt x="416" y="-15" on="0"/>
        <pt x="337" y="-15" on="1"/>
        <pt x="188" y="-15" on="0"/>
        <pt x="39" y="155" on="0"/>
        <pt x="39" y="316" on="1"/>
        <pt x="39" y="413" on="0"/>
        <pt x="119" y="572" on="0"/>
        <pt x="264" y="664" on="0"/>
        <pt x="357" y="664" on="1"/>
        <pt x="417" y="664" on="0"/>
        <pt x="522" y="648" on="0"/>
        <pt x="557" y="636" on="1"/>
        <pt x="557" y="464" on="1"/>
        <pt x="493" y="464" on="1"/>
        <pt x="472" y="571" on="1"/>
        <pt x="456" y="577" on="0"/>
        <pt x="394" y="588" on="0"/>
        <pt x="356" y="588" on="1"/>
        <pt x="290" y="588" on="0"/>
        <pt x="213" y="535" on="0"/>
        <pt x="179" y="419" on="0"/>
        <pt x="179" y="319" on="1"/>
        <pt x="179" y="179" on="0"/>
        <pt x="267" y="58" on="0"/>
        <pt x="358" y="58" on="1"/>
        <pt x="400" y="58" on="0"/>
        <pt x="453" y="75" on="0"/>
        <pt x="476" y="86" on="1"/>
        <pt x="498" y="199" on="1"/>
      </contour>
    </TTGlyph>
    <TTGlyph name="Ccedilla" xMin="39" yMin="-191" xMax="561" yMax="664">
      <contour>
        <pt x="298" y="-142" on="0"/>
        <pt x="329" y="-142" on="1"/>
        <pt x="351" y="-142" on="0"/>
        <pt x="373" y="-130" on="0"/>
        <pt x="373" y="-116" on="1"/>
        <pt x="373" y="-104" on="0"/>
        <pt x="361" y="-93" on="0"/>
        <pt x="347" y="-90" on="1"/>
        <pt x="315" y="-84" on="1"/>
        <pt x="293" y="-62" on="1"/>
        <pt x="314" y="-14" on="1"/>
        <pt x="176" y="-8" on="0"/>
        <pt x="39" y="161" on="0"/>
        <pt x="39" y="316" on="1"/>
        <pt x="39" y="413" on="0"/>
        <pt x="119" y="572" on="0"/>
        <pt x="264" y="664" on="0"/>
        <pt x="357" y="664" on="1"/>
        <pt x="417" y="664" on="0"/>
        <pt x="522" y="648" on="0"/>
        <pt x="557" y="636" on="1"/>
        <pt x="557" y="464" on="1"/>
        <pt x="493" y="464" on="1"/>
        <pt x="472" y="571" on="1"/>
        <pt x="456" y="577" on="0"/>
        <pt x="394" y="588" on="0"/>
        <pt x="356" y="588" on="1"/>
        <pt x="290" y="588" on="0"/>
        <pt x="213" y="535" on="0"/>
        <pt x="179" y="419" on="0"/>
        <pt x="179" y="319" on="1"/>
        <pt x="179" y="179" on="0"/>
        <pt x="267" y="58" on="0"/>
        <pt x="358" y="58" on="1"/>
        <pt x="400" y="58" on="0"/>
        <pt x="453" y="75" on="0"/>
        <pt x="476" y="86" on="1"/>
        <pt x="498" y="199" on="1"/>
        <pt x="561" y="199" on="1"/>
        <pt x="561" y="29" on="1"/>
        <pt x="522" y="12" on="0"/>
        <pt x="433" y="-12" on="0"/>
        <pt x="367" y="-15" on="1"/>
        <pt x="367" y="-30" on="1"/>
        <pt x="386" y="-34" on="1"/>
        <pt x="421" y="-43" on="0"/>
        <pt x="456" y="-70" on="0"/>
        <pt x="456" y="-101" on="1"/>
        <pt x="456" y="-147" on="0"/>
        <pt x="390" y="-191" on="0"/>
        <pt x="332" y="-191" on="1"/>
        <pt x="307" y="-191" on="0"/>
        <pt x="271" y="-183" on="0"/>
        <pt x="252" y="-174" on="1"/>
        <pt x="270" y="-130" on="1"/>
      </contour>
    </TTGlyph>
    <TTGlyph name="Ccircumflex" xMin="39" yMin="-15" xMax="563" yMax="840">
      <component glyphName=".ttfautohint" x="39" y="0" flags="0x0"/>
      <component glyphName="C" x="0" y="0" flags="0x0"/>
      <component glyphName="uni0302.case" x="523" y="0" flags="0x0"/>
    </TTGlyph>
    <TTGlyph name="Cdotaccent" xMin="39" yMin="-15" xMax="563" yMax="844">
      <component glyphName=".ttfautohint" x="39" y="0" flags="0x0"/>
      <component glyphName="C" x="0" y="0" flags="0x0"/>
      <component glyphName="uni0307.case" x="429" y="0" flags="0x0"/>
    </TTGlyph>
    <TTGlyph name="D" xMin="42" yMin="0" xMax="670" yMax="648">
      <contour>
        <pt x="42" y="51" on="1"/>
        <pt x="123" y="70" on="1"/>
        <pt x="123" y="578" on="1"/>
        <pt x="42" y="597" on="1"/>
        <pt x="42" y="648" on="1"/>
        <pt x="349" y="648" on="1"/>
        <pt x="504" y="648" on="0"/>
        <pt x="670" y="489" on="0"/>
        <pt x="670" y="335" on="1"/>
        <pt x="670" y="231" on="0"/>
        <pt x="590" y="80" on="0"/>
        <pt x="440" y="0" on="0"/>
        <pt x="338" y="0" on="1"/>
        <pt x="42" y="0" on="1"/>
      </contour>
      <contour>
        <pt x="390" y="67" on="0"/>
        <pt x="488" y="117" on="0"/>
        <pt x="529" y="234" on="0"/>
        <pt x="529" y="341" on="1"/>
        <pt x="529" y="433" on="0"/>
        <pt x="476" y="538" on="0"/>
        <pt x="382" y="578" on="0"/>
        <pt x="313" y="578" on="1"/>
        <pt x="265" y="578" on="0"/>
        <pt x="245" y="576" on="1"/>
        <pt x="245" y="71" on="1"/>
        <pt x="273" y="67" on="0"/>
        <pt x="300" y="67" on="1"/>
      </contour>
    </TTGlyph>
    <TTGlyph name="Dcaron" xMin="42" yMin="0" xMax="670" yMax="840">
      <contour>
        <pt x="345" y="777" on="1"/>
        <pt x="479" y="840" on="1"/>
        <pt x="507" y="800" on="1"/>
        <pt x="401" y="713" on="1"/>
        <pt x="375" y="691" on="0"/>
        <pt x="351" y="674" on="0"/>
        <pt x="341" y="674" on="1"/>
        <pt x="329" y="674" on="0"/>
        <pt x="303" y="692" on="0"/>
        <pt x="279" y="712" on="1"/>
        <pt x="173" y="792" on="1"/>
        <pt x="207" y="840" on="1"/>
      </contour>
      <contour>
        <pt x="42" y="51" on="1"/>
        <pt x="123" y="70" on="1"/>
        <pt x="123" y="578" on="1"/>
        <pt x="42" y="597" on="1"/>
        <pt x="42" y="648" on="1"/>
        <pt x="349" y="648" on="1"/>
        <pt x="504" y="648" on="0"/>
        <pt x="670" y="489" on="0"/>
        <pt x="670" y="335" on="1"/>
        <pt x="670" y="231" on="0"/>
        <pt x="590" y="80" on="0"/>
        <pt x="440" y="0" on="0"/>
        <pt x="338" y="0" on="1"/>
        <pt x="42" y="0" on="1"/>
      </contour>
      <contour>
        <pt x="390" y="67" on="0"/>
        <pt x="488" y="117" on="0"/>
        <pt x="529" y="234" on="0"/>
        <pt x="529" y="341" on="1"/>
        <pt x="529" y="433" on="0"/>
        <pt x="476" y="538" on="0"/>
        <pt x="382" y="578" on="0"/>
        <pt x="313" y="578" on="1"/>
        <pt x="265" y="578" on="0"/>
        <pt x="245" y="576" on="1"/>
        <pt x="245" y="71" on="1"/>
        <pt x="273" y="67" on="0"/>
        <pt x="300" y="67" on="1"/>
      </contour>
    </TTGlyph>
    <TTGlyph name="Dcroat" xMin="46" yMin="0" xMax="677" yMax="648">
      <component glyphName=".ttfautohint" x="46" y="0" flags="0x0"/>
      <component glyphName="Eth" x="0" y="0" flags="0x0"/>
    </TTGlyph>
    <TTGlyph name="E" xMin="42" yMin="0" xMax="534" yMax="648">
      <contour>
        <pt x="123" y="70" on="1"/>
        <pt x="123" y="578" on="1"/>
        <pt x="42" y="597" on="1"/>
        <pt x="42" y="648" on="1"/>
        <pt x="525" y="648" on="1"/>
        <pt x="525" y="469" on="1"/>
        <pt x="464" y="469" on="1"/>
        <pt x="440" y="580" on="1"/>
        <pt x="309" y="580" on="1"/>
        <pt x="245" y="573" on="1"/>
        <pt x="245" y="363" on="1"/>
        <pt x="367" y="363" on="1"/>
        <pt x="387" y="429" on="1"/>
        <pt x="436" y="429" on="1"/>
        <pt x="436" y="226" on="1"/>
        <pt x="387" y="226" on="1"/>
        <pt x="367" y="295" on="1"/>
        <pt x="245" y="295" on="1"/>
        <pt x="245" y="73" on="1"/>
        <pt x="283" y="69" on="0"/>
        <pt x="314" y="69" on="1"/>
        <pt x="450" y="69" on="1"/>
        <pt x="474" y="185" on="1"/>
        <pt x="534" y="185" on="1"/>
        <pt x="534" y="0" on="1"/>
        <pt x="42" y="0" on="1"/>
        <pt x="42" y="51" on="1"/>
      </contour>
    </TTGlyph>
    <TTGlyph name="Eacute" xMin="42" yMin="0" xMax="534" yMax="841">
      <contour>
        <pt x="341" y="818" on="1"/>
        <pt x="354" y="826" on="0"/>
        <pt x="380" y="841" on="0"/>
        <pt x="389" y="841" on="1"/>
        <pt x="413" y="841" on="0"/>
        <pt x="438" y="802" on="0"/>
        <pt x="438" y="771" on="1"/>
        <pt x="438" y="765" on="0"/>
        <pt x="436" y="749" on="1"/>
        <pt x="226" y="675" on="1"/>
        <pt x="202" y="719" on="1"/>
      </contour>
      <contour>
        <pt x="123" y="70" on="1"/>
        <pt x="123" y="578" on="1"/>
        <pt x="42" y="597" on="1"/>
        <pt x="42" y="648" on="1"/>
        <pt x="525" y="648" on="1"/>
        <pt x="525" y="469" on="1"/>
        <pt x="464" y="469" on="1"/>
        <pt x="440" y="580" on="1"/>
        <pt x="309" y="580" on="1"/>
        <pt x="245" y="573" on="1"/>
        <pt x="245" y="363" on="1"/>
        <pt x="367" y="363" on="1"/>
        <pt x="387" y="429" on="1"/>
        <pt x="436" y="429" on="1"/>
        <pt x="436" y="226" on="1"/>
        <pt x="387" y="226" on="1"/>
        <pt x="367" y="295" on="1"/>
        <pt x="245" y="295" on="1"/>
        <pt x="245" y="73" on="1"/>
        <pt x="283" y="69" on="0"/>
        <pt x="314" y="69" on="1"/>
        <pt x="450" y="69" on="1"/>
        <pt x="474" y="185" on="1"/>
        <pt x="534" y="185" on="1"/>
        <pt x="534" y="0" on="1"/>
        <pt x="42" y="0" on="1"/>
        <pt x="42" y="51" on="1"/>
      </contour>
    </TTGlyph>
    <TTGlyph name="Ebreve" xMin="42" yMin="0" xMax="534" yMax="840">
      <component glyphName=".ttfautohint" x="42" y="0" flags="0x0"/>
      <component glyphName="E" x="0" y="0" flags="0x0"/>
      <component glyphName="uni0306.case" x="483" y="0" flags="0x0"/>
    </TTGlyph>
    <TTGlyph name="Ecaron" xMin="42" yMin="0" xMax="534" yMax="840">
      <contour>
        <pt x="314" y="777" on="1"/>
        <pt x="448" y="840" on="1"/>
        <pt x="476" y="800" on="1"/>
        <pt x="370" y="713" on="1"/>
        <pt x="345" y="692" on="0"/>
        <pt x="319" y="674" on="0"/>
        <pt x="308" y="674" on="1"/>
        <pt x="299" y="674" on="0"/>
        <pt x="277" y="688" on="0"/>
        <pt x="253" y="708" on="0"/>
        <pt x="247" y="712" on="1"/>
        <pt x="142" y="792" on="1"/>
        <pt x="176" y="840" on="1"/>
      </contour>
      <contour>
        <pt x="123" y="70" on="1"/>
        <pt x="123" y="578" on="1"/>
        <pt x="42" y="597" on="1"/>
        <pt x="42" y="648" on="1"/>
        <pt x="525" y="648" on="1"/>
        <pt x="525" y="469" on="1"/>
        <pt x="464" y="469" on="1"/>
        <pt x="440" y="580" on="1"/>
        <pt x="309" y="580" on="1"/>
        <pt x="245" y="573" on="1"/>
        <pt x="245" y="363" on="1"/>
        <pt x="367" y="363" on="1"/>
        <pt x="387" y="429" on="1"/>
        <pt x="436" y="429" on="1"/>
        <pt x="436" y="226" on="1"/>
        <pt x="387" y="226" on="1"/>
        <pt x="367" y="295" on="1"/>
        <pt x="245" y="295" on="1"/>
        <pt x="245" y="73" on="1"/>
        <pt x="283" y="69" on="0"/>
        <pt x="314" y="69" on="1"/>
        <pt x="450" y="69" on="1"/>
        <pt x="474" y="185" on="1"/>
        <pt x="534" y="185" on="1"/>
        <pt x="534" y="0" on="1"/>
        <pt x="42" y="0" on="1"/>
        <pt x="42" y="51" on="1"/>
      </contour>
    </TTGlyph>
    <TTGlyph name="Ecircumflex" xMin="42" yMin="0" xMax="534" yMax="840">
      <contour>
        <pt x="236" y="801" on="1"/>
        <pt x="266" y="825" on="0"/>
        <pt x="290" y="840" on="0"/>
        <pt x="298" y="840" on="1"/>
        <pt x="306" y="840" on="0"/>
        <pt x="327" y="827" on="0"/>
        <pt x="351" y="807" on="0"/>
        <pt x="357" y="802" on="1"/>
        <pt x="461" y="720" on="1"/>
        <pt x="430" y="674" on="1"/>
        <pt x="291" y="737" on="1"/>
        <pt x="155" y="674" on="1"/>
        <pt x="129" y="713" on="1"/>
      </contour>
      <contour>
        <pt x="123" y="70" on="1"/>
        <pt x="123" y="578" on="1"/>
        <pt x="42" y="597" on="1"/>
        <pt x="42" y="648" on="1"/>
        <pt x="525" y="648" on="1"/>
        <pt x="525" y="469" on="1"/>
        <pt x="464" y="469" on="1"/>
        <pt x="440" y="580" on="1"/>
        <pt x="309" y="580" on="1"/>
        <pt x="245" y="573" on="1"/>
        <pt x="245" y="363" on="1"/>
        <pt x="367" y="363" on="1"/>
        <pt x="387" y="429" on="1"/>
        <pt x="436" y="429" on="1"/>
        <pt x="436" y="226" on="1"/>
        <pt x="387" y="226" on="1"/>
        <pt x="367" y="295" on="1"/>
        <pt x="245" y="295" on="1"/>
        <pt x="245" y="73" on="1"/>
        <pt x="283" y="69" on="0"/>
        <pt x="314" y="69" on="1"/>
        <pt x="450" y="69" on="1"/>
        <pt x="474" y="185" on="1"/>
        <pt x="534" y="185" on="1"/>
        <pt x="534" y="0" on="1"/>
        <pt x="42" y="0" on="1"/>
        <pt x="42" y="51" on="1"/>
      </contour>
    </TTGlyph>
    <TTGlyph name="Edieresis" xMin="42" yMin="0" xMax="534" yMax="833">
      <contour>
        <pt x="151" y="694" on="0"/>
        <pt x="115" y="732" on="0"/>
        <pt x="115" y="761" on="1"/>
        <pt x="115" y="790" on="0"/>
        <pt x="156" y="833" on="0"/>
        <pt x="185" y="833" on="1"/>
        <pt x="213" y="833" on="0"/>
        <pt x="249" y="798" on="0"/>
        <pt x="249" y="768" on="1"/>
        <pt x="249" y="737" on="0"/>
        <pt x="210" y="694" on="0"/>
        <pt x="178" y="694" on="1"/>
      </contour>
      <contour>
        <pt x="383" y="694" on="0"/>
        <pt x="348" y="732" on="0"/>
        <pt x="348" y="761" on="1"/>
        <pt x="348" y="791" on="0"/>
        <pt x="388" y="833" on="0"/>
        <pt x="418" y="833" on="1"/>
        <pt x="446" y="833" on="0"/>
        <pt x="482" y="797" on="0"/>
        <pt x="482" y="768" on="1"/>
        <pt x="482" y="737" on="0"/>
        <pt x="442" y="694" on="0"/>
        <pt x="411" y="694" on="1"/>
      </contour>
      <contour>
        <pt x="123" y="70" on="1"/>
        <pt x="123" y="578" on="1"/>
        <pt x="42" y="597" on="1"/>
        <pt x="42" y="648" on="1"/>
        <pt x="525" y="648" on="1"/>
        <pt x="525" y="469" on="1"/>
        <pt x="464" y="469" on="1"/>
        <pt x="440" y="580" on="1"/>
        <pt x="309" y="580" on="1"/>
        <pt x="245" y="573" on="1"/>
        <pt x="245" y="363" on="1"/>
        <pt x="367" y="363" on="1"/>
        <pt x="387" y="429" on="1"/>
        <pt x="436" y="429" on="1"/>
        <pt x="436" y="226" on="1"/>
        <pt x="387" y="226" on="1"/>
        <pt x="367" y="295" on="1"/>
        <pt x="245" y="295" on="1"/>
        <pt x="245" y="73" on="1"/>
        <pt x="283" y="69" on="0"/>
        <pt x="314" y="69" on="1"/>
        <pt x="450" y="69" on="1"/>
        <pt x="474" y="185" on="1"/>
        <pt x="534" y="185" on="1"/>
        <pt x="534" y="0" on="1"/>
        <pt x="42" y="0" on="1"/>
        <pt x="42" y="51" on="1"/>
      </contour>
    </TTGlyph>
    <TTGlyph name="Edotaccent" xMin="42" yMin="0" xMax="534" yMax="844">
      <contour>
        <pt x="271" y="692" on="0"/>
        <pt x="232" y="733" on="0"/>
        <pt x="232" y="766" on="1"/>
        <pt x="232" y="798" on="0"/>
        <pt x="277" y="844" on="0"/>
        <pt x="309" y="844" on="1"/>
        <pt x="340" y="844" on="0"/>
        <pt x="379" y="806" on="0"/>
        <pt x="379" y="773" on="1"/>
        <pt x="379" y="740" on="0"/>
        <pt x="336" y="692" on="0"/>
        <pt x="302" y="692" on="1"/>
      </contour>
      <contour>
        <pt x="123" y="70" on="1"/>
        <pt x="123" y="578" on="1"/>
        <pt x="42" y="597" on="1"/>
        <pt x="42" y="648" on="1"/>
        <pt x="525" y="648" on="1"/>
        <pt x="525" y="469" on="1"/>
        <pt x="464" y="469" on="1"/>
        <pt x="440" y="580" on="1"/>
        <pt x="309" y="580" on="1"/>
        <pt x="245" y="573" on="1"/>
        <pt x="245" y="363" on="1"/>
        <pt x="367" y="363" on="1"/>
        <pt x="387" y="429" on="1"/>
        <pt x="436" y="429" on="1"/>
        <pt x="436" y="226" on="1"/>
        <pt x="387" y="226" on="1"/>
        <pt x="367" y="295" on="1"/>
        <pt x="245" y="295" on="1"/>
        <pt x="245" y="73" on="1"/>
        <pt x="283" y="69" on="0"/>
        <pt x="314" y="69" on="1"/>
        <pt x="450" y="69" on="1"/>
        <pt x="474" y="185" on="1"/>
        <pt x="534" y="185" on="1"/>
        <pt x="534" y="0" on="1"/>
        <pt x="42" y="0" on="1"/>
        <pt x="42" y="51" on="1"/>
      </contour>
    </TTGlyph>
    <TTGlyph name="Egrave" xMin="42" yMin="0" xMax="534" yMax="841">
      <contour>
        <pt x="170" y="765" on="0"/>
        <pt x="170" y="773" on="1"/>
        <pt x="170" y="803" on="0"/>
        <pt x="196" y="841" on="0"/>
        <pt x="219" y="841" on="1"/>
        <pt x="226" y="841" on="0"/>
        <pt x="248" y="830" on="0"/>
        <pt x="263" y="820" on="0"/>
        <pt x="267" y="818" on="1"/>
        <pt x="406" y="719" on="1"/>
        <pt x="382" y="675" on="1"/>
        <pt x="172" y="749" on="1"/>
      </contour>
      <contour>
        <pt x="123" y="70" on="1"/>
        <pt x="123" y="578" on="1"/>
        <pt x="42" y="597" on="1"/>
        <pt x="42" y="648" on="1"/>
        <pt x="525" y="648" on="1"/>
        <pt x="525" y="469" on="1"/>
        <pt x="464" y="469" on="1"/>
        <pt x="440" y="580" on="1"/>
        <pt x="309" y="580" on="1"/>
        <pt x="245" y="573" on="1"/>
        <pt x="245" y="363" on="1"/>
        <pt x="367" y="363" on="1"/>
        <pt x="387" y="429" on="1"/>
        <pt x="436" y="429" on="1"/>
        <pt x="436" y="226" on="1"/>
        <pt x="387" y="226" on="1"/>
        <pt x="367" y="295" on="1"/>
        <pt x="245" y="295" on="1"/>
        <pt x="245" y="73" on="1"/>
        <pt x="283" y="69" on="0"/>
        <pt x="314" y="69" on="1"/>
        <pt x="450" y="69" on="1"/>
        <pt x="474" y="185" on="1"/>
        <pt x="534" y="185" on="1"/>
        <pt x="534" y="0" on="1"/>
        <pt x="42" y="0" on="1"/>
        <pt x="42" y="51" on="1"/>
      </contour>
    </TTGlyph>
    <TTGlyph name="Emacron" xMin="42" yMin="0" xMax="534" yMax="797">
      <contour>
        <pt x="473" y="797" on="1"/>
        <pt x="461" y="723" on="1"/>
        <pt x="120" y="723" on="1"/>
        <pt x="132" y="797" on="1"/>
      </contour>
      <contour>
        <pt x="123" y="70" on="1"/>
        <pt x="123" y="578" on="1"/>
        <pt x="42" y="597" on="1"/>
        <pt x="42" y="648" on="1"/>
        <pt x="525" y="648" on="1"/>
        <pt x="525" y="469" on="1"/>
        <pt x="464" y="469" on="1"/>
        <pt x="440" y="580" on="1"/>
        <pt x="309" y="580" on="1"/>
        <pt x="245" y="573" on="1"/>
        <pt x="245" y="363" on="1"/>
        <pt x="367" y="363" on="1"/>
        <pt x="387" y="429" on="1"/>
        <pt x="436" y="429" on="1"/>
        <pt x="436" y="226" on="1"/>
        <pt x="387" y="226" on="1"/>
        <pt x="367" y="295" on="1"/>
        <pt x="245" y="295" on="1"/>
        <pt x="245" y="73" on="1"/>
        <pt x="283" y="69" on="0"/>
        <pt x="314" y="69" on="1"/>
        <pt x="450" y="69" on="1"/>
        <pt x="474" y="185" on="1"/>
        <pt x="534" y="185" on="1"/>
        <pt x="534" y="0" on="1"/>
        <pt x="42" y="0" on="1"/>
        <pt x="42" y="51" on="1"/>
      </contour>
    </TTGlyph>
    <TTGlyph name="Eng" xMin="42" yMin="-168" xMax="699" yMax="648">
      <contour>
        <pt x="699" y="648" on="1"/>
        <pt x="699" y="596" on="1"/>
        <pt x="623" y="579" on="1"/>
        <pt x="623" y="-80" on="1"/>
        <pt x="623" y="-121" on="0"/>
        <pt x="563" y="-168" on="0"/>
        <pt x="506" y="-168" on="1"/>
        <pt x="480" y="-168" on="0"/>
        <pt x="435" y="-161" on="0"/>
        <pt x="407" y="-153" on="0"/>
        <pt x="404" y="-152" on="1"/>
        <pt x="404" y="-106" on="1"/>
        <pt x="505" y="-83" on="1"/>
        <pt x="505" y="9" on="1"/>
        <pt x="216" y="455" on="1"/>
        <pt x="209" y="472" on="1"/>
        <pt x="204" y="472" on="1"/>
        <pt x="204" y="69" on="1"/>
        <pt x="280" y="51" on="1"/>
        <pt x="280" y="0" on="1"/>
        <pt x="42" y="0" on="1"/>
        <pt x="42" y="51" on="1"/>
        <pt x="119" y="69" on="1"/>
        <pt x="119" y="580" on="1"/>
        <pt x="53" y="593" on="1"/>
        <pt x="53" y="648" on="1"/>
        <pt x="242" y="648" on="1"/>
        <pt x="524" y="203" on="1"/>
        <pt x="531" y="186" on="1"/>
        <pt x="537" y="186" on="1"/>
        <pt x="537" y="579" on="1"/>
        <pt x="461" y="596" on="1"/>
        <pt x="461" y="648" on="1"/>
      </contour>
    </TTGlyph>
    <TTGlyph name="Eogonek" xMin="42" yMin="-187" xMax="566" yMax="648">
      <contour>
        <pt x="123" y="70" on="1"/>
        <pt x="123" y="578" on="1"/>
        <pt x="42" y="597" on="1"/>
        <pt x="42" y="648" on="1"/>
        <pt x="525" y="648" on="1"/>
        <pt x="525" y="469" on="1"/>
        <pt x="465" y="469" on="1"/>
        <pt x="440" y="580" on="1"/>
        <pt x="309" y="580" on="1"/>
        <pt x="245" y="573" on="1"/>
        <pt x="245" y="363" on="1"/>
        <pt x="367" y="363" on="1"/>
        <pt x="387" y="429" on="1"/>
        <pt x="436" y="429" on="1"/>
        <pt x="436" y="226" on="1"/>
        <pt x="387" y="226" on="1"/>
        <pt x="367" y="295" on="1"/>
        <pt x="245" y="295" on="1"/>
        <pt x="245" y="73" on="1"/>
        <pt x="287" y="69" on="0"/>
        <pt x="312" y="69" on="1"/>
        <pt x="450" y="69" on="1"/>
        <pt x="480" y="185" on="1"/>
        <pt x="539" y="185" on="1"/>
        <pt x="534" y="6" on="1"/>
        <pt x="501" y="5" on="1"/>
        <pt x="484" y="-9" on="0"/>
        <pt x="453" y="-57" on="0"/>
        <pt x="453" y="-82" on="1"/>
        <pt x="453" y="-119" on="0"/>
        <pt x="490" y="-119" on="1"/>
        <pt x="511" y="-119" on="0"/>
        <pt x="544" y="-99" on="1"/>
        <pt x="566" y="-136" on="1"/>
        <pt x="566" y="-138" on="0"/>
        <pt x="536" y="-164" on="0"/>
        <pt x="489" y="-187" on="0"/>
        <pt x="461" y="-187" on="1"/>
        <pt x="420" y="-187" on="0"/>
        <pt x="369" y="-149" on="0"/>
        <pt x="369" y="-113" on="1"/>
        <pt x="369" y="-80" on="0"/>
        <pt x="407" y="-22" on="0"/>
        <pt x="437" y="0" on="1"/>
        <pt x="42" y="0" on="1"/>
        <pt x="42" y="51" on="1"/>
      </contour>
    </TTGlyph>
    <TTGlyph name="Eth" xMin="46" yMin="0" xMax="677" yMax="648">
      <contour>
        <pt x="130" y="70" on="1"/>
        <pt x="130" y="299" on="1"/>
        <pt x="46" y="299" on="1"/>
        <pt x="46" y="369" on="1"/>
        <pt x="130" y="369" on="1"/>
        <pt x="130" y="578" on="1"/>
        <pt x="49" y="597" on="1"/>
        <pt x="49" y="648" on="1"/>
        <pt x="361" y="648" on="1"/>
        <pt x="513" y="648" on="0"/>
        <pt x="677" y="486" on="0"/>
        <pt x="677" y="331" on="1"/>
        <pt x="677" y="232" on="0"/>
        <pt x="596" y="82" on="0"/>
        <pt x="450" y="0" on="0"/>
        <pt x="355" y="0" on="1"/>
        <pt x="49" y="0" on="1"/>
        <pt x="49" y="51" on="1"/>
      </contour>
      <contour>
        <pt x="273" y="67" on="0"/>
        <pt x="309" y="67" on="1"/>
        <pt x="398" y="67" on="0"/>
        <pt x="496" y="116" on="0"/>
        <pt x="537" y="231" on="0"/>
        <pt x="537" y="337" on="1"/>
        <pt x="537" y="431" on="0"/>
        <pt x="485" y="537" on="0"/>
        <pt x="392" y="578" on="0"/>
        <pt x="324" y="578" on="1"/>
        <pt x="276" y="578" on="0"/>
        <pt x="252" y="576" on="1"/>
        <pt x="252" y="369" on="1"/>
        <pt x="392" y="369" on="1"/>
        <pt x="392" y="299" on="1"/>
        <pt x="252" y="299" on="1"/>
        <pt x="252" y="71" on="1"/>
      </contour>
    </TTGlyph>
    <TTGlyph name="Euro" xMin="-11" yMin="-15" xMax="500" yMax="664">
      <contour>
        <pt x="355" y="359" on="1"/>
        <pt x="1" y="359" on="1"/>
        <pt x="25" y="429" on="1"/>
        <pt x="62" y="429" on="1"/>
        <pt x="90" y="537" on="0"/>
        <pt x="237" y="664" on="0"/>
        <pt x="338" y="664" on="1"/>
        <pt x="374" y="664" on="0"/>
        <pt x="460" y="649" on="0"/>
        <pt x="496" y="636" on="1"/>
        <pt x="496" y="464" on="1"/>
        <pt x="430" y="464" on="1"/>
        <pt x="411" y="571" on="1"/>
        <pt x="369" y="588" on="0"/>
        <pt x="330" y="588" on="1"/>
        <pt x="275" y="588" on="0"/>
        <pt x="201" y="507" on="0"/>
        <pt x="187" y="429" on="1"/>
        <pt x="380" y="429" on="1"/>
      </contour>
      <contour>
        <pt x="500" y="199" on="1"/>
        <pt x="500" y="29" on="1"/>
        <pt x="421" y="-15" on="0"/>
        <pt x="324" y="-15" on="1"/>
        <pt x="208" y="-15" on="0"/>
        <pt x="68" y="122" on="0"/>
        <pt x="53" y="242" on="1"/>
        <pt x="-11" y="242" on="1"/>
        <pt x="14" y="312" on="1"/>
        <pt x="340" y="312" on="1"/>
        <pt x="315" y="242" on="1"/>
        <pt x="184" y="242" on="1"/>
        <pt x="194" y="154" on="0"/>
        <pt x="261" y="58" on="0"/>
        <pt x="318" y="58" on="1"/>
        <pt x="364" y="58" on="0"/>
        <pt x="418" y="86" on="1"/>
        <pt x="435" y="199" on="1"/>
      </contour>
    </TTGlyph>
    <TTGlyph name="Euro.osf" xMin="-21" yMin="-15" xMax="488" yMax="531">
      <contour>
        <pt x="79" y="348" on="1"/>
        <pt x="104" y="431" on="0"/>
        <pt x="228" y="531" on="0"/>
        <pt x="320" y="531" on="1"/>
        <pt x="378" y="531" on="0"/>
        <pt x="452" y="517" on="0"/>
        <pt x="485" y="506" on="1"/>
        <pt x="485" y="357" on="1"/>
        <pt x="429" y="357" on="1"/>
        <pt x="411" y="445" on="1"/>
        <pt x="401" y="449" on="0"/>
        <pt x="357" y="457" on="0"/>
        <pt x="329" y="457" on="1"/>
        <pt x="268" y="457" on="0"/>
        <pt x="208" y="406" on="0"/>
        <pt x="197" y="348" on="1"/>
        <pt x="370" y="348" on="1"/>
        <pt x="345" y="278" on="1"/>
        <pt x="16" y="278" on="1"/>
        <pt x="41" y="348" on="1"/>
      </contour>
      <contour>
        <pt x="330" y="231" on="1"/>
        <pt x="305" y="161" on="1"/>
        <pt x="199" y="161" on="1"/>
        <pt x="210" y="102" on="0"/>
        <pt x="274" y="56" on="0"/>
        <pt x="330" y="56" on="1"/>
        <pt x="383" y="56" on="0"/>
        <pt x="414" y="73" on="1"/>
        <pt x="433" y="169" on="1"/>
        <pt x="488" y="169" on="1"/>
        <pt x="488" y="22" on="1"/>
        <pt x="449" y="5" on="0"/>
        <pt x="376" y="-15" on="0"/>
        <pt x="317" y="-15" on="1"/>
        <pt x="210" y="-15" on="0"/>
        <pt x="99" y="63" on="0"/>
        <pt x="75" y="161" on="1"/>
        <pt x="-21" y="161" on="1"/>
        <pt x="4" y="231" on="1"/>
      </contour>
    </TTGlyph>
    <TTGlyph name="F" xMin="42" yMin="0" xMax="520" yMax="648">
      <contour>
        <pt x="123" y="70" on="1"/>
        <pt x="123" y="578" on="1"/>
        <pt x="42" y="597" on="1"/>
        <pt x="42" y="648" on="1"/>
        <pt x="520" y="648" on="1"/>
        <pt x="520" y="469" on="1"/>
        <pt x="459" y="469" on="1"/>
        <pt x="435" y="580" on="1"/>
        <pt x="309" y="580" on="1"/>
        <pt x="245" y="573" on="1"/>
        <pt x="245" y="345" on="1"/>
        <pt x="381" y="345" on="1"/>
        <pt x="401" y="411" on="1"/>
        <pt x="450" y="411" on="1"/>
        <pt x="450" y="207" on="1"/>
        <pt x="401" y="207" on="1"/>
        <pt x="381" y="278" on="1"/>
        <pt x="245" y="278" on="1"/>
        <pt x="245" y="71" on="1"/>
        <pt x="337" y="53" on="1"/>
        <pt x="337" y="0" on="1"/>
        <pt x="42" y="0" on="1"/>
        <pt x="42" y="51" on="1"/>
      </contour>
    </TTGlyph>
    <TTGlyph name="G" xMin="39" yMin="-15" xMax="625" yMax="664">
      <contour>
        <pt x="380" y="278" on="1"/>
        <pt x="380" y="329" on="1"/>
        <pt x="625" y="329" on="1"/>
        <pt x="625" y="275" on="1"/>
        <pt x="578" y="260" on="1"/>
        <pt x="578" y="0" on="1"/>
        <pt x="531" y="0" on="1"/>
        <pt x="505" y="26" on="1"/>
        <pt x="494" y="26" on="1"/>
        <pt x="428" y="-15" on="0"/>
        <pt x="333" y="-15" on="1"/>
        <pt x="187" y="-15" on="0"/>
        <pt x="39" y="148" on="0"/>
        <pt x="39" y="311" on="1"/>
        <pt x="39" y="416" on="0"/>
        <pt x="122" y="576" on="0"/>
        <pt x="274" y="664" on="0"/>
        <pt x="375" y="664" on="1"/>
        <pt x="480" y="664" on="0"/>
        <pt x="570" y="633" on="1"/>
        <pt x="570" y="462" on="1"/>
        <pt x="505" y="462" on="1"/>
        <pt x="481" y="571" on="1"/>
        <pt x="438" y="589" on="0"/>
        <pt x="371" y="589" on="1"/>
        <pt x="269" y="589" on="0"/>
        <pt x="179" y="460" on="0"/>
        <pt x="179" y="323" on="1"/>
        <pt x="179" y="181" on="0"/>
        <pt x="264" y="58" on="0"/>
        <pt x="358" y="58" on="1"/>
        <pt x="390" y="58" on="0"/>
        <pt x="435" y="68" on="0"/>
        <pt x="457" y="78" on="1"/>
        <pt x="457" y="259" on="1"/>
      </contour>
    </TTGlyph>
    <TTGlyph name="G_tilde.loclGUA" xMin="39" yMin="-15" xMax="625" yMax="830">
      <component glyphName=".ttfautohint" x="39" y="0" flags="0x0"/>
      <component glyphName="G" x="0" y="0" flags="0x0"/>
      <component glyphName="tildecomb.case" x="547" y="0" flags="0x0"/>
    </TTGlyph>
    <TTGlyph name="Gbreve" xMin="39" yMin="-15" xMax="625" yMax="840">
      <contour>
        <pt x="239" y="837" on="0"/>
        <pt x="264" y="804" on="0"/>
        <pt x="311" y="776" on="0"/>
        <pt x="346" y="776" on="1"/>
        <pt x="384" y="776" on="0"/>
        <pt x="438" y="803" on="0"/>
        <pt x="466" y="833" on="0"/>
        <pt x="466" y="836" on="1"/>
        <pt x="506" y="813" on="1"/>
        <pt x="506" y="808" on="0"/>
        <pt x="469" y="747" on="0"/>
        <pt x="398" y="695" on="0"/>
        <pt x="345" y="695" on="1"/>
        <pt x="281" y="695" on="0"/>
        <pt x="203" y="742" on="0"/>
        <pt x="169" y="794" on="0"/>
        <pt x="169" y="800" on="1"/>
        <pt x="239" y="840" on="1"/>
      </contour>
      <contour>
        <pt x="380" y="278" on="1"/>
        <pt x="380" y="329" on="1"/>
        <pt x="625" y="329" on="1"/>
        <pt x="625" y="275" on="1"/>
        <pt x="578" y="260" on="1"/>
        <pt x="578" y="0" on="1"/>
        <pt x="531" y="0" on="1"/>
        <pt x="505" y="26" on="1"/>
        <pt x="494" y="26" on="1"/>
        <pt x="428" y="-15" on="0"/>
        <pt x="333" y="-15" on="1"/>
        <pt x="187" y="-15" on="0"/>
        <pt x="39" y="148" on="0"/>
        <pt x="39" y="311" on="1"/>
        <pt x="39" y="416" on="0"/>
        <pt x="122" y="576" on="0"/>
        <pt x="274" y="664" on="0"/>
        <pt x="375" y="664" on="1"/>
        <pt x="478" y="664" on="0"/>
        <pt x="568" y="633" on="1"/>
        <pt x="568" y="462" on="1"/>
        <pt x="505" y="462" on="1"/>
        <pt x="481" y="571" on="1"/>
        <pt x="438" y="589" on="0"/>
        <pt x="371" y="589" on="1"/>
        <pt x="269" y="589" on="0"/>
        <pt x="179" y="460" on="0"/>
        <pt x="179" y="323" on="1"/>
        <pt x="179" y="181" on="0"/>
        <pt x="264" y="58" on="0"/>
        <pt x="358" y="58" on="1"/>
        <pt x="390" y="58" on="0"/>
        <pt x="435" y="68" on="0"/>
        <pt x="457" y="78" on="1"/>
        <pt x="457" y="259" on="1"/>
      </contour>
    </TTGlyph>
    <TTGlyph name="Gcaron" xMin="39" yMin="-15" xMax="625" yMax="840">
      <component glyphName=".ttfautohint" x="39" y="0" flags="0x0"/>
      <component glyphName="G" x="0" y="0" flags="0x0"/>
      <component glyphName="uni030C.case" x="527" y="0" flags="0x0"/>
    </TTGlyph>
    <TTGlyph name="Gcircumflex" xMin="39" yMin="-15" xMax="625" yMax="840">
      <component glyphName=".ttfautohint" x="39" y="0" flags="0x0"/>
      <component glyphName="G" x="0" y="0" flags="0x0"/>
      <component glyphName="uni0302.case" x="526" y="0" flags="0x0"/>
    </TTGlyph>
    <TTGlyph name="Gcommaaccent" xMin="39" yMin="-205" xMax="625" yMax="664">
      <contour>
        <pt x="380" y="278" on="1"/>
        <pt x="380" y="329" on="1"/>
        <pt x="625" y="329" on="1"/>
        <pt x="625" y="275" on="1"/>
        <pt x="578" y="260" on="1"/>
        <pt x="578" y="0" on="1"/>
        <pt x="531" y="0" on="1"/>
        <pt x="505" y="26" on="1"/>
        <pt x="494" y="26" on="1"/>
        <pt x="428" y="-15" on="0"/>
        <pt x="333" y="-15" on="1"/>
        <pt x="187" y="-15" on="0"/>
        <pt x="39" y="148" on="0"/>
        <pt x="39" y="311" on="1"/>
        <pt x="39" y="416" on="0"/>
        <pt x="122" y="576" on="0"/>
        <pt x="274" y="664" on="0"/>
        <pt x="375" y="664" on="1"/>
        <pt x="478" y="664" on="0"/>
        <pt x="568" y="633" on="1"/>
        <pt x="568" y="462" on="1"/>
        <pt x="505" y="462" on="1"/>
        <pt x="481" y="571" on="1"/>
        <pt x="438" y="589" on="0"/>
        <pt x="371" y="589" on="1"/>
        <pt x="269" y="589" on="0"/>
        <pt x="179" y="460" on="0"/>
        <pt x="179" y="323" on="1"/>
        <pt x="179" y="181" on="0"/>
        <pt x="264" y="58" on="0"/>
        <pt x="358" y="58" on="1"/>
        <pt x="390" y="58" on="0"/>
        <pt x="435" y="68" on="0"/>
        <pt x="457" y="78" on="1"/>
        <pt x="457" y="259" on="1"/>
      </contour>
      <contour>
        <pt x="314" y="-192" on="0"/>
        <pt x="325" y="-140" on="0"/>
        <pt x="325" y="-114" on="1"/>
        <pt x="325" y="-75" on="0"/>
        <pt x="303" y="-53" on="1"/>
        <pt x="327" y="-26" on="0"/>
        <pt x="355" y="-26" on="1"/>
        <pt x="384" y="-26" on="0"/>
        <pt x="412" y="-59" on="0"/>
        <pt x="412" y="-82" on="1"/>
        <pt x="412" y="-112" on="0"/>
        <pt x="384" y="-166" on="0"/>
        <pt x="350" y="-205" on="0"/>
        <pt x="350" y="-203" on="1"/>
        <pt x="310" y="-203" on="1"/>
      </contour>
    </TTGlyph>
    <TTGlyph name="Gdotaccent" xMin="39" yMin="-15" xMax="625" yMax="844">
      <component glyphName=".ttfautohint" x="39" y="0" flags="0x0"/>
      <component glyphName="G" x="0" y="0" flags="0x0"/>
      <component glyphName="uni0307.case" x="432" y="0" flags="0x0"/>
    </TTGlyph>
    <TTGlyph name="H" xMin="42" yMin="0" xMax="717" yMax="648">
      <contour>
        <pt x="123" y="69" on="1"/>
        <pt x="123" y="579" on="1"/>
        <pt x="42" y="596" on="1"/>
        <pt x="42" y="648" on="1"/>
        <pt x="326" y="648" on="1"/>
        <pt x="326" y="596" on="1"/>
        <pt x="245" y="579" on="1"/>
        <pt x="245" y="368" on="1"/>
        <pt x="514" y="368" on="1"/>
        <pt x="514" y="579" on="1"/>
        <pt x="433" y="596" on="1"/>
        <pt x="433" y="648" on="1"/>
        <pt x="717" y="648" on="1"/>
        <pt x="717" y="596" on="1"/>
        <pt x="636" y="579" on="1"/>
        <pt x="636" y="69" on="1"/>
        <pt x="717" y="52" on="1"/>
        <pt x="717" y="0" on="1"/>
        <pt x="433" y="0" on="1"/>
        <pt x="433" y="52" on="1"/>
        <pt x="514" y="69" on="1"/>
        <pt x="514" y="299" on="1"/>
        <pt x="245" y="299" on="1"/>
        <pt x="245" y="69" on="1"/>
        <pt x="326" y="52" on="1"/>
        <pt x="326" y="0" on="1"/>
        <pt x="42" y="0" on="1"/>
        <pt x="42" y="52" on="1"/>
      </contour>
    </TTGlyph>
    <TTGlyph name="Hbar" xMin="41" yMin="0" xMax="719" yMax="648">
      <contour>
        <pt x="42" y="52" on="1"/>
        <pt x="123" y="69" on="1"/>
        <pt x="123" y="425" on="1"/>
        <pt x="41" y="425" on="1"/>
        <pt x="41" y="494" on="1"/>
        <pt x="123" y="494" on="1"/>
        <pt x="123" y="579" on="1"/>
        <pt x="42" y="596" on="1"/>
        <pt x="42" y="648" on="1"/>
        <pt x="326" y="648" on="1"/>
        <pt x="326" y="596" on="1"/>
        <pt x="245" y="579" on="1"/>
        <pt x="245" y="494" on="1"/>
        <pt x="514" y="494" on="1"/>
        <pt x="514" y="579" on="1"/>
        <pt x="433" y="596" on="1"/>
        <pt x="433" y="648" on="1"/>
        <pt x="717" y="648" on="1"/>
        <pt x="717" y="596" on="1"/>
        <pt x="636" y="579" on="1"/>
        <pt x="636" y="494" on="1"/>
        <pt x="719" y="494" on="1"/>
        <pt x="719" y="425" on="1"/>
        <pt x="636" y="425" on="1"/>
        <pt x="636" y="69" on="1"/>
        <pt x="717" y="52" on="1"/>
        <pt x="717" y="0" on="1"/>
        <pt x="433" y="0" on="1"/>
        <pt x="433" y="52" on="1"/>
        <pt x="514" y="69" on="1"/>
        <pt x="514" y="266" on="1"/>
        <pt x="245" y="266" on="1"/>
        <pt x="245" y="69" on="1"/>
        <pt x="326" y="52" on="1"/>
        <pt x="326" y="0" on="1"/>
        <pt x="42" y="0" on="1"/>
      </contour>
      <contour>
        <pt x="514" y="336" on="1"/>
        <pt x="514" y="425" on="1"/>
        <pt x="245" y="425" on="1"/>
        <pt x="245" y="336" on="1"/>
      </contour>
    </TTGlyph>
    <TTGlyph name="Hcircumflex" xMin="42" yMin="0" xMax="717" yMax="840">
      <component glyphName=".ttfautohint" x="42" y="0" flags="0x0"/>
      <component glyphName="H" x="0" y="0" flags="0x0"/>
      <component glyphName="uni0302.case" x="546" y="0" flags="0x0"/>
    </TTGlyph>
    <TTGlyph name="I" xMin="44" yMin="0" xMax="327" yMax="648">
      <contour>
        <pt x="124" y="69" on="1"/>
        <pt x="124" y="579" on="1"/>
        <pt x="44" y="596" on="1"/>
        <pt x="44" y="648" on="1"/>
        <pt x="327" y="648" on="1"/>
        <pt x="327" y="596" on="1"/>
        <pt x="247" y="579" on="1"/>
        <pt x="247" y="69" on="1"/>
        <pt x="327" y="52" on="1"/>
        <pt x="327" y="0" on="1"/>
        <pt x="44" y="0" on="1"/>
        <pt x="44" y="52" on="1"/>
      </contour>
    </TTGlyph>
    <TTGlyph name="IJ" xMin="44" yMin="-17" xMax="761" yMax="648">
      <component glyphName=".ttfautohint" x="44" y="0" flags="0x0"/>
      <component glyphName="I" x="0" y="0" flags="0x0"/>
      <component glyphName="J" x="371" y="0" flags="0x0"/>
    </TTGlyph>
    <TTGlyph name="Iacute" xMin="44" yMin="0" xMax="327" yMax="841">
      <contour>
        <pt x="207" y="818" on="1"/>
        <pt x="211" y="820" on="0"/>
        <pt x="233" y="834" on="0"/>
        <pt x="250" y="841" on="0"/>
        <pt x="256" y="841" on="1"/>
        <pt x="280" y="841" on="0"/>
        <pt x="305" y="802" on="0"/>
        <pt x="305" y="771" on="1"/>
        <pt x="305" y="765" on="0"/>
        <pt x="303" y="749" on="1"/>
        <pt x="93" y="675" on="1"/>
        <pt x="69" y="719" on="1"/>
      </contour>
      <contour>
        <pt x="124" y="69" on="1"/>
        <pt x="124" y="579" on="1"/>
        <pt x="44" y="596" on="1"/>
        <pt x="44" y="648" on="1"/>
        <pt x="327" y="648" on="1"/>
        <pt x="327" y="596" on="1"/>
        <pt x="247" y="579" on="1"/>
        <pt x="247" y="69" on="1"/>
        <pt x="327" y="52" on="1"/>
        <pt x="327" y="0" on="1"/>
        <pt x="44" y="0" on="1"/>
        <pt x="44" y="52" on="1"/>
      </contour>
    </TTGlyph>
    <TTGlyph name="Iacute_J.loclNLD" xMin="44" yMin="-17" xMax="788" yMax="841">
      <component glyphName=".ttfautohint" x="44" y="0" flags="0x0"/>
      <component glyphName="I" x="0" y="0" flags="0x0"/>
      <component glyphName="acutecomb.case" x="354" y="0" flags="0x0"/>
      <component glyphName="J" x="371" y="0" flags="0x0"/>
      <component glyphName="acutecomb.case" x="790" y="0" flags="0x0"/>
    </TTGlyph>
    <TTGlyph name="Ibreve" xMin="17" yMin="0" xMax="354" yMax="840">
      <component glyphName=".ttfautohint" x="17" y="0" flags="0x0"/>
      <component glyphName="I" x="0" y="0" flags="0x0"/>
      <component glyphName="uni0306.case" x="354" y="0" flags="0x0"/>
    </TTGlyph>
    <TTGlyph name="Icircumflex" xMin="17" yMin="0" xMax="350" yMax="840">
      <contour>
        <pt x="124" y="801" on="1"/>
        <pt x="152" y="824" on="0"/>
        <pt x="175" y="840" on="0"/>
        <pt x="183" y="840" on="1"/>
        <pt x="192" y="840" on="0"/>
        <pt x="211" y="828" on="0"/>
        <pt x="241" y="806" on="0"/>
        <pt x="246" y="802" on="1"/>
        <pt x="350" y="720" on="1"/>
        <pt x="318" y="674" on="1"/>
        <pt x="179" y="737" on="1"/>
        <pt x="44" y="674" on="1"/>
        <pt x="17" y="713" on="1"/>
      </contour>
      <contour>
        <pt x="124" y="69" on="1"/>
        <pt x="124" y="579" on="1"/>
        <pt x="44" y="596" on="1"/>
        <pt x="44" y="648" on="1"/>
        <pt x="327" y="648" on="1"/>
        <pt x="327" y="596" on="1"/>
        <pt x="247" y="579" on="1"/>
        <pt x="247" y="69" on="1"/>
        <pt x="327" y="52" on="1"/>
        <pt x="327" y="0" on="1"/>
        <pt x="44" y="0" on="1"/>
        <pt x="44" y="52" on="1"/>
      </contour>
    </TTGlyph>
    <TTGlyph name="Idieresis" xMin="2" yMin="0" xMax="369" yMax="833">
      <contour>
        <pt x="38" y="694" on="0"/>
        <pt x="2" y="732" on="0"/>
        <pt x="2" y="761" on="1"/>
        <pt x="2" y="790" on="0"/>
        <pt x="43" y="833" on="0"/>
        <pt x="72" y="833" on="1"/>
        <pt x="100" y="833" on="0"/>
        <pt x="136" y="798" on="0"/>
        <pt x="136" y="768" on="1"/>
        <pt x="136" y="737" on="0"/>
        <pt x="97" y="694" on="0"/>
        <pt x="65" y="694" on="1"/>
      </contour>
      <contour>
        <pt x="270" y="694" on="0"/>
        <pt x="235" y="732" on="0"/>
        <pt x="235" y="761" on="1"/>
        <pt x="235" y="791" on="0"/>
        <pt x="275" y="833" on="0"/>
        <pt x="305" y="833" on="1"/>
        <pt x="333" y="833" on="0"/>
        <pt x="369" y="798" on="0"/>
        <pt x="369" y="768" on="1"/>
        <pt x="369" y="737" on="0"/>
        <pt x="330" y="694" on="0"/>
        <pt x="298" y="694" on="1"/>
      </contour>
      <contour>
        <pt x="44" y="52" on="1"/>
        <pt x="124" y="69" on="1"/>
        <pt x="124" y="579" on="1"/>
        <pt x="44" y="596" on="1"/>
        <pt x="44" y="648" on="1"/>
        <pt x="327" y="648" on="1"/>
        <pt x="327" y="596" on="1"/>
        <pt x="247" y="579" on="1"/>
        <pt x="247" y="69" on="1"/>
        <pt x="327" y="52" on="1"/>
        <pt x="327" y="0" on="1"/>
        <pt x="44" y="0" on="1"/>
      </contour>
    </TTGlyph>
    <TTGlyph name="Idotaccent" xMin="44" yMin="0" xMax="327" yMax="844">
      <contour>
        <pt x="150" y="692" on="0"/>
        <pt x="111" y="733" on="0"/>
        <pt x="111" y="766" on="1"/>
        <pt x="111" y="798" on="0"/>
        <pt x="156" y="844" on="0"/>
        <pt x="188" y="844" on="1"/>
        <pt x="219" y="844" on="0"/>
        <pt x="258" y="806" on="0"/>
        <pt x="258" y="773" on="1"/>
        <pt x="258" y="740" on="0"/>
        <pt x="215" y="692" on="0"/>
        <pt x="181" y="692" on="1"/>
      </contour>
      <contour>
        <pt x="124" y="69" on="1"/>
        <pt x="124" y="579" on="1"/>
        <pt x="44" y="596" on="1"/>
        <pt x="44" y="648" on="1"/>
        <pt x="327" y="648" on="1"/>
        <pt x="327" y="596" on="1"/>
        <pt x="247" y="579" on="1"/>
        <pt x="247" y="69" on="1"/>
        <pt x="327" y="52" on="1"/>
        <pt x="327" y="0" on="1"/>
        <pt x="44" y="0" on="1"/>
        <pt x="44" y="52" on="1"/>
      </contour>
    </TTGlyph>
    <TTGlyph name="Igrave" xMin="44" yMin="0" xMax="327" yMax="841">
      <contour>
        <pt x="62" y="763" on="0"/>
        <pt x="62" y="771" on="1"/>
        <pt x="62" y="801" on="0"/>
        <pt x="88" y="841" on="0"/>
        <pt x="111" y="841" on="1"/>
        <pt x="119" y="841" on="0"/>
        <pt x="142" y="830" on="0"/>
        <pt x="156" y="820" on="0"/>
        <pt x="160" y="818" on="1"/>
        <pt x="298" y="719" on="1"/>
        <pt x="274" y="675" on="1"/>
        <pt x="64" y="749" on="1"/>
      </contour>
      <contour>
        <pt x="124" y="69" on="1"/>
        <pt x="124" y="579" on="1"/>
        <pt x="44" y="596" on="1"/>
        <pt x="44" y="648" on="1"/>
        <pt x="327" y="648" on="1"/>
        <pt x="327" y="596" on="1"/>
        <pt x="247" y="579" on="1"/>
        <pt x="247" y="69" on="1"/>
        <pt x="327" y="52" on="1"/>
        <pt x="327" y="0" on="1"/>
        <pt x="44" y="0" on="1"/>
        <pt x="44" y="52" on="1"/>
      </contour>
    </TTGlyph>
    <TTGlyph name="Imacron" xMin="16" yMin="0" xMax="354" yMax="807">
      <contour>
        <pt x="28" y="807" on="1"/>
        <pt x="354" y="807" on="1"/>
        <pt x="342" y="733" on="1"/>
        <pt x="16" y="733" on="1"/>
      </contour>
      <contour>
        <pt x="44" y="52" on="1"/>
        <pt x="124" y="69" on="1"/>
        <pt x="124" y="579" on="1"/>
        <pt x="44" y="596" on="1"/>
        <pt x="44" y="648" on="1"/>
        <pt x="327" y="648" on="1"/>
        <pt x="327" y="596" on="1"/>
        <pt x="247" y="579" on="1"/>
        <pt x="247" y="69" on="1"/>
        <pt x="327" y="52" on="1"/>
        <pt x="327" y="0" on="1"/>
        <pt x="44" y="0" on="1"/>
      </contour>
    </TTGlyph>
    <TTGlyph name="Iogonek" xMin="44" yMin="-187" xMax="338" yMax="648">
      <contour>
        <pt x="124" y="69" on="1"/>
        <pt x="124" y="579" on="1"/>
        <pt x="44" y="596" on="1"/>
        <pt x="44" y="648" on="1"/>
        <pt x="327" y="648" on="1"/>
        <pt x="327" y="596" on="1"/>
        <pt x="247" y="579" on="1"/>
        <pt x="247" y="69" on="1"/>
        <pt x="327" y="52" on="1"/>
        <pt x="327" y="0" on="1"/>
        <pt x="277" y="0" on="1"/>
        <pt x="256" y="-16" on="0"/>
        <pt x="225" y="-59" on="0"/>
        <pt x="225" y="-82" on="1"/>
        <pt x="225" y="-119" on="0"/>
        <pt x="263" y="-119" on="1"/>
        <pt x="282" y="-119" on="0"/>
        <pt x="317" y="-99" on="1"/>
        <pt x="338" y="-136" on="1"/>
        <pt x="338" y="-138" on="0"/>
        <pt x="308" y="-164" on="0"/>
        <pt x="262" y="-187" on="0"/>
        <pt x="234" y="-187" on="1"/>
        <pt x="192" y="-187" on="0"/>
        <pt x="142" y="-149" on="0"/>
        <pt x="142" y="-113" on="1"/>
        <pt x="142" y="-77" on="0"/>
        <pt x="184" y="-20" on="0"/>
        <pt x="217" y="0" on="1"/>
        <pt x="44" y="0" on="1"/>
        <pt x="44" y="52" on="1"/>
      </contour>
    </TTGlyph>
    <TTGlyph name="Itilde" xMin="-2" yMin="0" xMax="373" yMax="830">
      <component glyphName=".ttfautohint" x="0" y="0" flags="0x0"/>
      <component glyphName="I" x="0" y="0" flags="0x0"/>
      <component glyphName="tildecomb.case" x="373" y="0" flags="0x0"/>
    </TTGlyph>
    <TTGlyph name="J" xMin="4" yMin="-17" xMax="390" yMax="648">
      <contour>
        <pt x="66" y="180" on="1"/>
        <pt x="93" y="63" on="1"/>
        <pt x="96" y="62" on="0"/>
        <pt x="118" y="55" on="0"/>
        <pt x="133" y="55" on="1"/>
        <pt x="166" y="55" on="0"/>
        <pt x="190" y="84" on="0"/>
        <pt x="190" y="112" on="1"/>
        <pt x="190" y="578" on="1"/>
        <pt x="104" y="596" on="1"/>
        <pt x="104" y="648" on="1"/>
        <pt x="390" y="648" on="1"/>
        <pt x="390" y="596" on="1"/>
        <pt x="312" y="579" on="1"/>
        <pt x="312" y="117" on="1"/>
        <pt x="312" y="53" on="0"/>
        <pt x="235" y="-17" on="0"/>
        <pt x="142" y="-17" on="1"/>
        <pt x="95" y="-17" on="0"/>
        <pt x="21" y="4" on="0"/>
        <pt x="4" y="14" on="1"/>
        <pt x="4" y="180" on="1"/>
      </contour>
    </TTGlyph>
    <TTGlyph name="Jcircumflex" xMin="4" yMin="-17" xMax="417" yMax="840">
      <component glyphName=".ttfautohint" x="4" y="0" flags="0x0"/>
      <component glyphName="J" x="0" y="0" flags="0x0"/>
      <component glyphName="uni0302.case" x="417" y="0" flags="0x0"/>
    </TTGlyph>
    <TTGlyph name="K" xMin="42" yMin="0" xMax="636" yMax="648">
      <contour>
        <pt x="123" y="69" on="1"/>
        <pt x="123" y="579" on="1"/>
        <pt x="42" y="596" on="1"/>
        <pt x="42" y="648" on="1"/>
        <pt x="326" y="648" on="1"/>
        <pt x="326" y="596" on="1"/>
        <pt x="245" y="579" on="1"/>
        <pt x="245" y="357" on="1"/>
        <pt x="266" y="357" on="1"/>
        <pt x="440" y="570" on="1"/>
        <pt x="440" y="585" on="1"/>
        <pt x="388" y="597" on="1"/>
        <pt x="388" y="648" on="1"/>
        <pt x="611" y="648" on="1"/>
        <pt x="611" y="596" on="1"/>
        <pt x="546" y="580" on="1"/>
        <pt x="363" y="357" on="1"/>
        <pt x="561" y="70" on="1"/>
        <pt x="636" y="52" on="1"/>
        <pt x="636" y="0" on="1"/>
        <pt x="507" y="0" on="1"/>
        <pt x="483" y="0" on="0"/>
        <pt x="455" y="17" on="0"/>
        <pt x="441" y="39" on="1"/>
        <pt x="265" y="299" on="1"/>
        <pt x="245" y="299" on="1"/>
        <pt x="245" y="69" on="1"/>
        <pt x="326" y="52" on="1"/>
        <pt x="326" y="0" on="1"/>
        <pt x="42" y="0" on="1"/>
        <pt x="42" y="52" on="1"/>
      </contour>
    </TTGlyph>
    <TTGlyph name="Kcommaaccent" xMin="42" yMin="-205" xMax="636" yMax="648">
      <contour>
        <pt x="42" y="52" on="1"/>
        <pt x="123" y="69" on="1"/>
        <pt x="123" y="579" on="1"/>
        <pt x="42" y="596" on="1"/>
        <pt x="42" y="648" on="1"/>
        <pt x="326" y="648" on="1"/>
        <pt x="326" y="596" on="1"/>
        <pt x="245" y="579" on="1"/>
        <pt x="245" y="357" on="1"/>
        <pt x="266" y="357" on="1"/>
        <pt x="440" y="570" on="1"/>
        <pt x="440" y="585" on="1"/>
        <pt x="388" y="597" on="1"/>
        <pt x="388" y="648" on="1"/>
        <pt x="611" y="648" on="1"/>
        <pt x="611" y="596" on="1"/>
        <pt x="546" y="580" on="1"/>
        <pt x="363" y="357" on="1"/>
        <pt x="561" y="70" on="1"/>
        <pt x="636" y="52" on="1"/>
        <pt x="636" y="0" on="1"/>
        <pt x="507" y="0" on="1"/>
        <pt x="483" y="0" on="0"/>
        <pt x="455" y="17" on="0"/>
        <pt x="441" y="39" on="1"/>
        <pt x="265" y="299" on="1"/>
        <pt x="245" y="299" on="1"/>
        <pt x="245" y="69" on="1"/>
        <pt x="326" y="52" on="1"/>
        <pt x="326" y="0" on="1"/>
        <pt x="42" y="0" on="1"/>
      </contour>
      <contour>
        <pt x="311" y="-153" on="0"/>
        <pt x="311" y="-114" on="1"/>
        <pt x="311" y="-75" on="0"/>
        <pt x="289" y="-53" on="1"/>
        <pt x="313" y="-26" on="0"/>
        <pt x="341" y="-26" on="1"/>
        <pt x="370" y="-26" on="0"/>
        <pt x="398" y="-59" on="0"/>
        <pt x="398" y="-82" on="1"/>
        <pt x="398" y="-112" on="0"/>
        <pt x="370" y="-166" on="0"/>
        <pt x="335" y="-205" on="0"/>
        <pt x="335" y="-203" on="1"/>
        <pt x="296" y="-203" on="1"/>
      </contour>
    </TTGlyph>
    <TTGlyph name="L" xMin="42" yMin="0" xMax="514" yMax="648">
      <contour>
        <pt x="123" y="70" on="1"/>
        <pt x="123" y="578" on="1"/>
        <pt x="42" y="597" on="1"/>
        <pt x="42" y="648" on="1"/>
        <pt x="329" y="648" on="1"/>
        <pt x="329" y="595" on="1"/>
        <pt x="245" y="578" on="1"/>
        <pt x="245" y="76" on="1"/>
        <pt x="313" y="68" on="1"/>
        <pt x="429" y="68" on="1"/>
        <pt x="454" y="179" on="1"/>
        <pt x="514" y="179" on="1"/>
        <pt x="514" y="0" on="1"/>
        <pt x="42" y="0" on="1"/>
        <pt x="42" y="51" on="1"/>
      </contour>
    </TTGlyph>
    <TTGlyph name="Lacute" xMin="42" yMin="0" xMax="514" yMax="841">
      <contour>
        <pt x="105" y="719" on="1"/>
        <pt x="244" y="818" on="1"/>
        <pt x="257" y="826" on="0"/>
        <pt x="283" y="841" on="0"/>
        <pt x="292" y="841" on="1"/>
        <pt x="316" y="841" on="0"/>
        <pt x="341" y="802" on="0"/>
        <pt x="341" y="771" on="1"/>
        <pt x="341" y="765" on="0"/>
        <pt x="339" y="749" on="1"/>
        <pt x="129" y="675" on="1"/>
      </contour>
      <contour>
        <pt x="42" y="51" on="1"/>
        <pt x="123" y="70" on="1"/>
        <pt x="123" y="578" on="1"/>
        <pt x="42" y="597" on="1"/>
        <pt x="42" y="648" on="1"/>
        <pt x="329" y="648" on="1"/>
        <pt x="329" y="595" on="1"/>
        <pt x="245" y="578" on="1"/>
        <pt x="245" y="76" on="1"/>
        <pt x="313" y="68" on="1"/>
        <pt x="429" y="68" on="1"/>
        <pt x="454" y="179" on="1"/>
        <pt x="514" y="179" on="1"/>
        <pt x="514" y="0" on="1"/>
        <pt x="42" y="0" on="1"/>
      </contour>
    </TTGlyph>
    <TTGlyph name="Lcaron" xMin="44" yMin="0" xMax="515" yMax="666">
      <contour>
        <pt x="402" y="504" on="0"/>
        <pt x="411" y="562" on="0"/>
        <pt x="411" y="584" on="1"/>
        <pt x="411" y="602" on="0"/>
        <pt x="399" y="635" on="0"/>
        <pt x="391" y="644" on="1"/>
        <pt x="410" y="666" on="0"/>
        <pt x="441" y="666" on="1"/>
        <pt x="468" y="666" on="0"/>
        <pt x="497" y="633" on="0"/>
        <pt x="497" y="611" on="1"/>
        <pt x="497" y="585" on="0"/>
        <pt x="469" y="527" on="0"/>
        <pt x="439" y="487" on="0"/>
        <pt x="434" y="482" on="1"/>
        <pt x="395" y="482" on="1"/>
      </contour>
      <contour>
        <pt x="44" y="51" on="1"/>
        <pt x="125" y="70" on="1"/>
        <pt x="125" y="578" on="1"/>
        <pt x="44" y="597" on="1"/>
        <pt x="44" y="648" on="1"/>
        <pt x="331" y="648" on="1"/>
        <pt x="331" y="595" on="1"/>
        <pt x="247" y="578" on="1"/>
        <pt x="247" y="76" on="1"/>
        <pt x="314" y="68" on="1"/>
        <pt x="430" y="68" on="1"/>
        <pt x="455" y="179" on="1"/>
        <pt x="515" y="179" on="1"/>
        <pt x="515" y="0" on="1"/>
        <pt x="44" y="0" on="1"/>
      </contour>
    </TTGlyph>
    <TTGlyph name="Lcommaaccent" xMin="44" yMin="-205" xMax="515" yMax="648">
      <contour>
        <pt x="44" y="51" on="1"/>
        <pt x="125" y="70" on="1"/>
        <pt x="125" y="578" on="1"/>
        <pt x="44" y="597" on="1"/>
        <pt x="44" y="648" on="1"/>
        <pt x="331" y="648" on="1"/>
        <pt x="331" y="595" on="1"/>
        <pt x="247" y="578" on="1"/>
        <pt x="247" y="76" on="1"/>
        <pt x="314" y="68" on="1"/>
        <pt x="430" y="68" on="1"/>
        <pt x="455" y="179" on="1"/>
        <pt x="515" y="179" on="1"/>
        <pt x="515" y="0" on="1"/>
        <pt x="44" y="0" on="1"/>
      </contour>
      <contour>
        <pt x="258" y="-153" on="0"/>
        <pt x="258" y="-114" on="1"/>
        <pt x="258" y="-75" on="0"/>
        <pt x="236" y="-53" on="1"/>
        <pt x="260" y="-26" on="0"/>
        <pt x="288" y="-26" on="1"/>
        <pt x="317" y="-26" on="0"/>
        <pt x="345" y="-59" on="0"/>
        <pt x="345" y="-82" on="1"/>
        <pt x="345" y="-112" on="0"/>
        <pt x="317" y="-166" on="0"/>
        <pt x="282" y="-205" on="0"/>
        <pt x="282" y="-203" on="1"/>
        <pt x="243" y="-203" on="1"/>
      </contour>
    </TTGlyph>
    <TTGlyph name="Ldot" xMin="42" yMin="0" xMax="514" yMax="648">
      <component glyphName=".ttfautohint" x="42" y="0" flags="0x0"/>
      <component glyphName="L" x="0" y="0" flags="0x0"/>
      <component glyphName="periodcentered" x="288" y="106" flags="0x4"/>
    </TTGlyph>
    <TTGlyph name="Lslash" xMin="42" yMin="0" xMax="514" yMax="648">
      <contour>
        <pt x="123" y="70" on="1"/>
        <pt x="123" y="282" on="1"/>
        <pt x="50" y="257" on="1"/>
        <pt x="50" y="316" on="1"/>
        <pt x="123" y="343" on="1"/>
        <pt x="123" y="578" on="1"/>
        <pt x="42" y="597" on="1"/>
        <pt x="42" y="648" on="1"/>
        <pt x="329" y="648" on="1"/>
        <pt x="329" y="595" on="1"/>
        <pt x="245" y="578" on="1"/>
        <pt x="245" y="387" on="1"/>
        <pt x="351" y="426" on="1"/>
        <pt x="351" y="362" on="1"/>
        <pt x="245" y="325" on="1"/>
        <pt x="245" y="76" on="1"/>
        <pt x="313" y="68" on="1"/>
        <pt x="429" y="68" on="1"/>
        <pt x="454" y="179" on="1"/>
        <pt x="514" y="179" on="1"/>
        <pt x="514" y="0" on="1"/>
        <pt x="42" y="0" on="1"/>
        <pt x="42" y="51" on="1"/>
      </contour>
    </TTGlyph>
    <TTGlyph name="M" xMin="40" yMin="0" xMax="837" yMax="648">
      <contour>
        <pt x="40" y="51" on="1"/>
        <pt x="118" y="69" on="1"/>
        <pt x="118" y="580" on="1"/>
        <pt x="52" y="593" on="1"/>
        <pt x="52" y="648" on="1"/>
        <pt x="282" y="648" on="1"/>
        <pt x="430" y="183" on="1"/>
        <pt x="437" y="143" on="1"/>
        <pt x="446" y="183" on="1"/>
        <pt x="594" y="648" on="1"/>
        <pt x="829" y="648" on="1"/>
        <pt x="829" y="592" on="1"/>
        <pt x="756" y="579" on="1"/>
        <pt x="756" y="69" on="1"/>
        <pt x="837" y="52" on="1"/>
        <pt x="837" y="0" on="1"/>
        <pt x="554" y="0" on="1"/>
        <pt x="554" y="52" on="1"/>
        <pt x="634" y="69" on="1"/>
        <pt x="634" y="477" on="1"/>
        <pt x="636" y="501" on="1"/>
        <pt x="627" y="501" on="1"/>
        <pt x="621" y="477" on="1"/>
        <pt x="467" y="0" on="1"/>
        <pt x="372" y="0" on="1"/>
        <pt x="210" y="501" on="1"/>
        <pt x="202" y="501" on="1"/>
        <pt x="203" y="476" on="1"/>
        <pt x="203" y="69" on="1"/>
        <pt x="281" y="51" on="1"/>
        <pt x="281" y="0" on="1"/>
        <pt x="40" y="0" on="1"/>
      </contour>
    </TTGlyph>
    <TTGlyph name="N" xMin="42" yMin="0" xMax="699" yMax="648">
      <contour>
        <pt x="42" y="51" on="1"/>
        <pt x="119" y="69" on="1"/>
        <pt x="119" y="580" on="1"/>
        <pt x="53" y="593" on="1"/>
        <pt x="53" y="648" on="1"/>
        <pt x="242" y="648" on="1"/>
        <pt x="524" y="203" on="1"/>
        <pt x="531" y="186" on="1"/>
        <pt x="537" y="186" on="1"/>
        <pt x="537" y="579" on="1"/>
        <pt x="461" y="596" on="1"/>
        <pt x="461" y="648" on="1"/>
        <pt x="699" y="648" on="1"/>
        <pt x="699" y="596" on="1"/>
        <pt x="623" y="579" on="1"/>
        <pt x="623" y="0" on="1"/>
        <pt x="511" y="0" on="1"/>
        <pt x="216" y="455" on="1"/>
        <pt x="209" y="472" on="1"/>
        <pt x="204" y="472" on="1"/>
        <pt x="204" y="69" on="1"/>
        <pt x="280" y="51" on="1"/>
        <pt x="280" y="0" on="1"/>
        <pt x="42" y="0" on="1"/>
      </contour>
    </TTGlyph>
    <TTGlyph name="Nacute" xMin="42" yMin="0" xMax="699" yMax="841">
      <contour>
        <pt x="268" y="719" on="1"/>
        <pt x="407" y="818" on="1"/>
        <pt x="411" y="820" on="0"/>
        <pt x="433" y="834" on="0"/>
        <pt x="449" y="841" on="0"/>
        <pt x="455" y="841" on="1"/>
        <pt x="479" y="841" on="0"/>
        <pt x="504" y="802" on="0"/>
        <pt x="504" y="771" on="1"/>
        <pt x="504" y="765" on="0"/>
        <pt x="502" y="749" on="1"/>
        <pt x="292" y="675" on="1"/>
      </contour>
      <contour>
        <pt x="42" y="51" on="1"/>
        <pt x="119" y="69" on="1"/>
        <pt x="119" y="580" on="1"/>
        <pt x="53" y="593" on="1"/>
        <pt x="53" y="648" on="1"/>
        <pt x="242" y="648" on="1"/>
        <pt x="524" y="203" on="1"/>
        <pt x="531" y="186" on="1"/>
        <pt x="537" y="186" on="1"/>
        <pt x="537" y="579" on="1"/>
        <pt x="461" y="596" on="1"/>
        <pt x="461" y="648" on="1"/>
        <pt x="699" y="648" on="1"/>
        <pt x="699" y="596" on="1"/>
        <pt x="623" y="579" on="1"/>
        <pt x="623" y="0" on="1"/>
        <pt x="511" y="0" on="1"/>
        <pt x="216" y="456" on="1"/>
        <pt x="209" y="472" on="1"/>
        <pt x="204" y="472" on="1"/>
        <pt x="204" y="69" on="1"/>
        <pt x="280" y="51" on="1"/>
        <pt x="280" y="0" on="1"/>
        <pt x="42" y="0" on="1"/>
      </contour>
    </TTGlyph>
    <TTGlyph name="Nacute.loclPLK" xMin="42" yMin="0" xMax="699" yMax="869">
      <contour>
        <pt x="332" y="705" on="1"/>
        <pt x="403" y="825" on="1"/>
        <pt x="406" y="829" on="0"/>
        <pt x="424" y="857" on="0"/>
        <pt x="443" y="869" on="0"/>
        <pt x="454" y="869" on="1"/>
        <pt x="497" y="869" on="0"/>
        <pt x="518" y="801" on="1"/>
        <pt x="377" y="667" on="1"/>
      </contour>
      <contour>
        <pt x="42" y="51" on="1"/>
        <pt x="119" y="69" on="1"/>
        <pt x="119" y="580" on="1"/>
        <pt x="53" y="593" on="1"/>
        <pt x="53" y="648" on="1"/>
        <pt x="242" y="648" on="1"/>
        <pt x="524" y="203" on="1"/>
        <pt x="531" y="186" on="1"/>
        <pt x="537" y="186" on="1"/>
        <pt x="537" y="579" on="1"/>
        <pt x="461" y="596" on="1"/>
        <pt x="461" y="648" on="1"/>
        <pt x="699" y="648" on="1"/>
        <pt x="699" y="596" on="1"/>
        <pt x="623" y="579" on="1"/>
        <pt x="623" y="0" on="1"/>
        <pt x="511" y="0" on="1"/>
        <pt x="216" y="455" on="1"/>
        <pt x="209" y="472" on="1"/>
        <pt x="204" y="472" on="1"/>
        <pt x="204" y="69" on="1"/>
        <pt x="280" y="51" on="1"/>
        <pt x="280" y="0" on="1"/>
        <pt x="42" y="0" on="1"/>
      </contour>
    </TTGlyph>
    <TTGlyph name="Ncaron" xMin="42" yMin="0" xMax="699" yMax="858">
      <contour>
        <pt x="359" y="686" on="0"/>
        <pt x="332" y="707" on="0"/>
        <pt x="303" y="733" on="1"/>
        <pt x="218" y="812" on="1"/>
        <pt x="257" y="858" on="1"/>
        <pt x="375" y="786" on="1"/>
        <pt x="495" y="857" on="1"/>
        <pt x="524" y="817" on="1"/>
        <pt x="433" y="733" on="1"/>
        <pt x="400" y="704" on="0"/>
        <pt x="377" y="686" on="0"/>
        <pt x="368" y="686" on="1"/>
      </contour>
      <contour>
        <pt x="42" y="51" on="1"/>
        <pt x="119" y="69" on="1"/>
        <pt x="119" y="580" on="1"/>
        <pt x="53" y="593" on="1"/>
        <pt x="53" y="648" on="1"/>
        <pt x="242" y="648" on="1"/>
        <pt x="524" y="204" on="1"/>
        <pt x="531" y="186" on="1"/>
        <pt x="537" y="186" on="1"/>
        <pt x="537" y="579" on="1"/>
        <pt x="461" y="596" on="1"/>
        <pt x="461" y="648" on="1"/>
        <pt x="699" y="648" on="1"/>
        <pt x="699" y="596" on="1"/>
        <pt x="623" y="579" on="1"/>
        <pt x="623" y="0" on="1"/>
        <pt x="511" y="0" on="1"/>
        <pt x="216" y="456" on="1"/>
        <pt x="209" y="472" on="1"/>
        <pt x="204" y="472" on="1"/>
        <pt x="204" y="69" on="1"/>
        <pt x="280" y="51" on="1"/>
        <pt x="280" y="0" on="1"/>
        <pt x="42" y="0" on="1"/>
      </contour>
    </TTGlyph>
    <TTGlyph name="Ncommaaccent" xMin="42" yMin="-205" xMax="699" yMax="648">
      <contour>
        <pt x="42" y="51" on="1"/>
        <pt x="119" y="69" on="1"/>
        <pt x="119" y="580" on="1"/>
        <pt x="53" y="593" on="1"/>
        <pt x="53" y="648" on="1"/>
        <pt x="242" y="648" on="1"/>
        <pt x="524" y="203" on="1"/>
        <pt x="531" y="186" on="1"/>
        <pt x="537" y="186" on="1"/>
        <pt x="537" y="579" on="1"/>
        <pt x="461" y="596" on="1"/>
        <pt x="461" y="648" on="1"/>
        <pt x="699" y="648" on="1"/>
        <pt x="699" y="596" on="1"/>
        <pt x="623" y="579" on="1"/>
        <pt x="623" y="0" on="1"/>
        <pt x="511" y="0" on="1"/>
        <pt x="216" y="456" on="1"/>
        <pt x="209" y="472" on="1"/>
        <pt x="204" y="472" on="1"/>
        <pt x="204" y="69" on="1"/>
        <pt x="280" y="51" on="1"/>
        <pt x="280" y="0" on="1"/>
        <pt x="42" y="0" on="1"/>
      </contour>
      <contour>
        <pt x="328" y="-192" on="0"/>
        <pt x="339" y="-140" on="0"/>
        <pt x="339" y="-114" on="1"/>
        <pt x="339" y="-75" on="0"/>
        <pt x="317" y="-53" on="1"/>
        <pt x="341" y="-26" on="0"/>
        <pt x="369" y="-26" on="1"/>
        <pt x="398" y="-26" on="0"/>
        <pt x="426" y="-59" on="0"/>
        <pt x="426" y="-82" on="1"/>
        <pt x="426" y="-112" on="0"/>
        <pt x="398" y="-166" on="0"/>
        <pt x="364" y="-205" on="0"/>
        <pt x="364" y="-203" on="1"/>
        <pt x="324" y="-203" on="1"/>
      </contour>
    </TTGlyph>
    <TTGlyph name="Ntilde" xMin="42" yMin="0" xMax="699" yMax="830">
      <contour>
        <pt x="425" y="699" on="0"/>
        <pt x="386" y="712" on="1"/>
        <pt x="293" y="742" on="1"/>
        <pt x="219" y="704" on="1"/>
        <pt x="186" y="737" on="1"/>
        <pt x="221" y="789" on="1"/>
        <pt x="237" y="813" on="0"/>
        <pt x="275" y="830" on="0"/>
        <pt x="299" y="830" on="1"/>
        <pt x="327" y="830" on="0"/>
        <pt x="361" y="819" on="1"/>
        <pt x="453" y="788" on="1"/>
        <pt x="528" y="826" on="1"/>
        <pt x="561" y="793" on="1"/>
        <pt x="525" y="742" on="1"/>
        <pt x="508" y="717" on="0"/>
        <pt x="471" y="699" on="0"/>
        <pt x="447" y="699" on="1"/>
      </contour>
      <contour>
        <pt x="42" y="51" on="1"/>
        <pt x="119" y="69" on="1"/>
        <pt x="119" y="580" on="1"/>
        <pt x="53" y="593" on="1"/>
        <pt x="53" y="648" on="1"/>
        <pt x="242" y="648" on="1"/>
        <pt x="524" y="203" on="1"/>
        <pt x="531" y="186" on="1"/>
        <pt x="537" y="186" on="1"/>
        <pt x="537" y="579" on="1"/>
        <pt x="461" y="596" on="1"/>
        <pt x="461" y="648" on="1"/>
        <pt x="699" y="648" on="1"/>
        <pt x="699" y="596" on="1"/>
        <pt x="623" y="579" on="1"/>
        <pt x="623" y="0" on="1"/>
        <pt x="511" y="0" on="1"/>
        <pt x="215" y="458" on="1"/>
        <pt x="209" y="472" on="1"/>
        <pt x="204" y="472" on="1"/>
        <pt x="204" y="69" on="1"/>
        <pt x="280" y="51" on="1"/>
        <pt x="280" y="0" on="1"/>
        <pt x="42" y="0" on="1"/>
      </contour>
    </TTGlyph>
    <TTGlyph name="O" xMin="39" yMin="-16" xMax="664" yMax="664">
      <contour>
        <pt x="195" y="-16" on="0"/>
        <pt x="39" y="154" on="0"/>
        <pt x="39" y="313" on="1"/>
        <pt x="39" y="414" on="0"/>
        <pt x="117" y="573" on="0"/>
        <pt x="265" y="664" on="0"/>
        <pt x="366" y="664" on="1"/>
        <pt x="508" y="664" on="0"/>
        <pt x="664" y="493" on="0"/>
        <pt x="664" y="336" on="1"/>
        <pt x="664" y="233" on="0"/>
        <pt x="590" y="74" on="0"/>
        <pt x="445" y="-16" on="0"/>
        <pt x="342" y="-16" on="1"/>
      </contour>
      <contour>
        <pt x="447" y="57" on="0"/>
        <pt x="523" y="177" on="0"/>
        <pt x="523" y="313" on="1"/>
        <pt x="523" y="417" on="0"/>
        <pt x="484" y="537" on="0"/>
        <pt x="408" y="588" on="0"/>
        <pt x="349" y="588" on="1"/>
        <pt x="292" y="588" on="0"/>
        <pt x="219" y="546" on="0"/>
        <pt x="179" y="434" on="0"/>
        <pt x="179" y="332" on="1"/>
        <pt x="179" y="184" on="0"/>
        <pt x="267" y="57" on="0"/>
        <pt x="361" y="57" on="1"/>
      </contour>
    </TTGlyph>
    <TTGlyph name="OE" xMin="39" yMin="0" xMax="866" yMax="648">
      <contour>
        <pt x="39" y="0" on="0"/>
        <pt x="39" y="313" on="1"/>
        <pt x="39" y="413" on="0"/>
        <pt x="118" y="565" on="0"/>
        <pt x="266" y="648" on="0"/>
        <pt x="368" y="648" on="1"/>
        <pt x="857" y="648" on="1"/>
        <pt x="857" y="469" on="1"/>
        <pt x="797" y="469" on="1"/>
        <pt x="772" y="580" on="1"/>
        <pt x="640" y="580" on="1"/>
        <pt x="577" y="573" on="1"/>
        <pt x="577" y="363" on="1"/>
        <pt x="699" y="363" on="1"/>
        <pt x="719" y="429" on="1"/>
        <pt x="768" y="429" on="1"/>
        <pt x="768" y="226" on="1"/>
        <pt x="719" y="226" on="1"/>
        <pt x="699" y="295" on="1"/>
        <pt x="577" y="295" on="1"/>
        <pt x="577" y="73" on="1"/>
        <pt x="623" y="69" on="0"/>
        <pt x="657" y="69" on="1"/>
        <pt x="782" y="69" on="1"/>
        <pt x="807" y="185" on="1"/>
        <pt x="866" y="185" on="1"/>
        <pt x="866" y="0" on="1"/>
        <pt x="350" y="0" on="1"/>
      </contour>
      <contour>
        <pt x="420" y="69" on="0"/>
        <pt x="455" y="81" on="1"/>
        <pt x="455" y="566" on="1"/>
        <pt x="420" y="577" on="0"/>
        <pt x="362" y="577" on="1"/>
        <pt x="277" y="577" on="0"/>
        <pt x="179" y="475" on="0"/>
        <pt x="179" y="332" on="1"/>
        <pt x="179" y="234" on="0"/>
        <pt x="220" y="119" on="0"/>
        <pt x="301" y="69" on="0"/>
        <pt x="364" y="69" on="1"/>
      </contour>
    </TTGlyph>
    <TTGlyph name="Oacute" xMin="39" yMin="-16" xMax="664" yMax="841">
      <contour>
        <pt x="242" y="719" on="1"/>
        <pt x="381" y="818" on="1"/>
        <pt x="385" y="820" on="0"/>
        <pt x="407" y="834" on="0"/>
        <pt x="423" y="841" on="0"/>
        <pt x="429" y="841" on="1"/>
        <pt x="453" y="841" on="0"/>
        <pt x="478" y="801" on="0"/>
        <pt x="478" y="769" on="1"/>
        <pt x="478" y="756" on="0"/>
        <pt x="477" y="749" on="1"/>
        <pt x="266" y="675" on="1"/>
      </contour>
      <contour>
        <pt x="195" y="-16" on="0"/>
        <pt x="39" y="154" on="0"/>
        <pt x="39" y="313" on="1"/>
        <pt x="39" y="414" on="0"/>
        <pt x="117" y="573" on="0"/>
        <pt x="265" y="664" on="0"/>
        <pt x="366" y="664" on="1"/>
        <pt x="508" y="664" on="0"/>
        <pt x="664" y="493" on="0"/>
        <pt x="664" y="336" on="1"/>
        <pt x="664" y="233" on="0"/>
        <pt x="590" y="74" on="0"/>
        <pt x="445" y="-16" on="0"/>
        <pt x="342" y="-16" on="1"/>
      </contour>
      <contour>
        <pt x="447" y="57" on="0"/>
        <pt x="523" y="177" on="0"/>
        <pt x="523" y="313" on="1"/>
        <pt x="523" y="417" on="0"/>
        <pt x="484" y="537" on="0"/>
        <pt x="408" y="588" on="0"/>
        <pt x="349" y="588" on="1"/>
        <pt x="292" y="588" on="0"/>
        <pt x="219" y="546" on="0"/>
        <pt x="179" y="434" on="0"/>
        <pt x="179" y="332" on="1"/>
        <pt x="179" y="184" on="0"/>
        <pt x="267" y="57" on="0"/>
        <pt x="361" y="57" on="1"/>
      </contour>
    </TTGlyph>
    <TTGlyph name="Oacute.loclPLK" xMin="39" yMin="-16" xMax="664" yMax="869">
      <contour>
        <pt x="319" y="705" on="1"/>
        <pt x="390" y="825" on="1"/>
        <pt x="393" y="829" on="0"/>
        <pt x="411" y="857" on="0"/>
        <pt x="430" y="869" on="0"/>
        <pt x="441" y="869" on="1"/>
        <pt x="484" y="869" on="0"/>
        <pt x="505" y="801" on="1"/>
        <pt x="364" y="667" on="1"/>
      </contour>
      <contour>
        <pt x="195" y="-16" on="0"/>
        <pt x="39" y="154" on="0"/>
        <pt x="39" y="313" on="1"/>
        <pt x="39" y="414" on="0"/>
        <pt x="117" y="573" on="0"/>
        <pt x="265" y="664" on="0"/>
        <pt x="366" y="664" on="1"/>
        <pt x="508" y="664" on="0"/>
        <pt x="664" y="493" on="0"/>
        <pt x="664" y="336" on="1"/>
        <pt x="664" y="233" on="0"/>
        <pt x="590" y="74" on="0"/>
        <pt x="445" y="-16" on="0"/>
        <pt x="342" y="-16" on="1"/>
      </contour>
      <contour>
        <pt x="447" y="57" on="0"/>
        <pt x="523" y="177" on="0"/>
        <pt x="523" y="313" on="1"/>
        <pt x="523" y="417" on="0"/>
        <pt x="484" y="537" on="0"/>
        <pt x="408" y="588" on="0"/>
        <pt x="349" y="588" on="1"/>
        <pt x="292" y="588" on="0"/>
        <pt x="219" y="546" on="0"/>
        <pt x="179" y="434" on="0"/>
        <pt x="179" y="332" on="1"/>
        <pt x="179" y="184" on="0"/>
        <pt x="267" y="57" on="0"/>
        <pt x="361" y="57" on="1"/>
      </contour>
    </TTGlyph>
    <TTGlyph name="Obreve" xMin="39" yMin="-16" xMax="664" yMax="840">
      <component glyphName=".ttfautohint" x="39" y="0" flags="0x0"/>
      <component glyphName="O" x="0" y="0" flags="0x0"/>
      <component glyphName="uni0306.case" x="520" y="0" flags="0x0"/>
    </TTGlyph>
    <TTGlyph name="Ocircumflex" xMin="39" yMin="-16" xMax="664" yMax="840">
      <contour>
        <pt x="293" y="801" on="1"/>
        <pt x="323" y="825" on="0"/>
        <pt x="347" y="840" on="0"/>
        <pt x="355" y="840" on="1"/>
        <pt x="363" y="840" on="0"/>
        <pt x="384" y="827" on="0"/>
        <pt x="408" y="807" on="0"/>
        <pt x="414" y="802" on="1"/>
        <pt x="518" y="720" on="1"/>
        <pt x="487" y="674" on="1"/>
        <pt x="348" y="737" on="1"/>
        <pt x="212" y="674" on="1"/>
        <pt x="186" y="713" on="1"/>
      </contour>
      <contour>
        <pt x="195" y="-16" on="0"/>
        <pt x="39" y="154" on="0"/>
        <pt x="39" y="313" on="1"/>
        <pt x="39" y="414" on="0"/>
        <pt x="117" y="573" on="0"/>
        <pt x="265" y="664" on="0"/>
        <pt x="366" y="664" on="1"/>
        <pt x="508" y="664" on="0"/>
        <pt x="664" y="493" on="0"/>
        <pt x="664" y="336" on="1"/>
        <pt x="664" y="233" on="0"/>
        <pt x="590" y="74" on="0"/>
        <pt x="445" y="-16" on="0"/>
        <pt x="342" y="-16" on="1"/>
      </contour>
      <contour>
        <pt x="447" y="57" on="0"/>
        <pt x="523" y="177" on="0"/>
        <pt x="523" y="313" on="1"/>
        <pt x="523" y="417" on="0"/>
        <pt x="484" y="537" on="0"/>
        <pt x="408" y="588" on="0"/>
        <pt x="349" y="588" on="1"/>
        <pt x="292" y="588" on="0"/>
        <pt x="219" y="546" on="0"/>
        <pt x="179" y="434" on="0"/>
        <pt x="179" y="332" on="1"/>
        <pt x="179" y="184" on="0"/>
        <pt x="267" y="57" on="0"/>
        <pt x="361" y="57" on="1"/>
      </contour>
    </TTGlyph>
    <TTGlyph name="Odieresis" xMin="39" yMin="-16" xMax="664" yMax="833">
      <contour>
        <pt x="205" y="694" on="0"/>
        <pt x="170" y="732" on="0"/>
        <pt x="170" y="761" on="1"/>
        <pt x="170" y="791" on="0"/>
        <pt x="210" y="833" on="0"/>
        <pt x="240" y="833" on="1"/>
        <pt x="268" y="833" on="0"/>
        <pt x="304" y="798" on="0"/>
        <pt x="304" y="768" on="1"/>
        <pt x="304" y="737" on="0"/>
        <pt x="265" y="694" on="0"/>
        <pt x="233" y="694" on="1"/>
      </contour>
      <contour>
        <pt x="438" y="694" on="0"/>
        <pt x="403" y="732" on="0"/>
        <pt x="403" y="761" on="1"/>
        <pt x="403" y="791" on="0"/>
        <pt x="443" y="833" on="0"/>
        <pt x="473" y="833" on="1"/>
        <pt x="501" y="833" on="0"/>
        <pt x="536" y="798" on="0"/>
        <pt x="536" y="768" on="1"/>
        <pt x="536" y="737" on="0"/>
        <pt x="497" y="694" on="0"/>
        <pt x="466" y="694" on="1"/>
      </contour>
      <contour>
        <pt x="195" y="-16" on="0"/>
        <pt x="39" y="154" on="0"/>
        <pt x="39" y="313" on="1"/>
        <pt x="39" y="414" on="0"/>
        <pt x="117" y="573" on="0"/>
        <pt x="265" y="664" on="0"/>
        <pt x="366" y="664" on="1"/>
        <pt x="508" y="664" on="0"/>
        <pt x="664" y="493" on="0"/>
        <pt x="664" y="336" on="1"/>
        <pt x="664" y="233" on="0"/>
        <pt x="590" y="74" on="0"/>
        <pt x="445" y="-16" on="0"/>
        <pt x="342" y="-16" on="1"/>
      </contour>
      <contour>
        <pt x="447" y="57" on="0"/>
        <pt x="523" y="177" on="0"/>
        <pt x="523" y="313" on="1"/>
        <pt x="523" y="417" on="0"/>
        <pt x="484" y="537" on="0"/>
        <pt x="408" y="588" on="0"/>
        <pt x="349" y="588" on="1"/>
        <pt x="292" y="588" on="0"/>
        <pt x="219" y="546" on="0"/>
        <pt x="179" y="434" on="0"/>
        <pt x="179" y="332" on="1"/>
        <pt x="179" y="184" on="0"/>
        <pt x="267" y="57" on="0"/>
        <pt x="361" y="57" on="1"/>
      </contour>
    </TTGlyph>
    <TTGlyph name="Ograve" xMin="39" yMin="-16" xMax="664" yMax="841">
      <contour>
        <pt x="230" y="749" on="1"/>
        <pt x="228" y="763" on="0"/>
        <pt x="228" y="771" on="1"/>
        <pt x="228" y="801" on="0"/>
        <pt x="254" y="841" on="0"/>
        <pt x="277" y="841" on="1"/>
        <pt x="285" y="841" on="0"/>
        <pt x="308" y="830" on="0"/>
        <pt x="322" y="820" on="0"/>
        <pt x="326" y="818" on="1"/>
        <pt x="465" y="719" on="1"/>
        <pt x="441" y="675" on="1"/>
      </contour>
      <contour>
        <pt x="195" y="-16" on="0"/>
        <pt x="39" y="154" on="0"/>
        <pt x="39" y="313" on="1"/>
        <pt x="39" y="414" on="0"/>
        <pt x="117" y="573" on="0"/>
        <pt x="265" y="664" on="0"/>
        <pt x="366" y="664" on="1"/>
        <pt x="508" y="664" on="0"/>
        <pt x="664" y="493" on="0"/>
        <pt x="664" y="336" on="1"/>
        <pt x="664" y="233" on="0"/>
        <pt x="590" y="74" on="0"/>
        <pt x="445" y="-16" on="0"/>
        <pt x="342" y="-16" on="1"/>
      </contour>
      <contour>
        <pt x="447" y="57" on="0"/>
        <pt x="523" y="177" on="0"/>
        <pt x="523" y="313" on="1"/>
        <pt x="523" y="417" on="0"/>
        <pt x="484" y="537" on="0"/>
        <pt x="408" y="588" on="0"/>
        <pt x="349" y="588" on="1"/>
        <pt x="292" y="588" on="0"/>
        <pt x="219" y="546" on="0"/>
        <pt x="179" y="434" on="0"/>
        <pt x="179" y="332" on="1"/>
        <pt x="179" y="184" on="0"/>
        <pt x="267" y="57" on="0"/>
        <pt x="361" y="57" on="1"/>
      </contour>
    </TTGlyph>
    <TTGlyph name="Ohorn" xMin="39" yMin="-16" xMax="768" yMax="724">
      <contour>
        <pt x="768" y="589" on="0"/>
        <pt x="633" y="505" on="1"/>
        <pt x="664" y="432" on="0"/>
        <pt x="664" y="336" on="1"/>
        <pt x="664" y="233" on="0"/>
        <pt x="590" y="74" on="0"/>
        <pt x="445" y="-16" on="0"/>
        <pt x="342" y="-16" on="1"/>
        <pt x="195" y="-16" on="0"/>
        <pt x="39" y="154" on="0"/>
        <pt x="39" y="313" on="1"/>
        <pt x="39" y="414" on="0"/>
        <pt x="117" y="573" on="0"/>
        <pt x="265" y="664" on="0"/>
        <pt x="366" y="664" on="1"/>
        <pt x="452" y="664" on="0"/>
        <pt x="580" y="599" on="0"/>
        <pt x="617" y="537" on="1"/>
        <pt x="685" y="588" on="0"/>
        <pt x="685" y="634" on="1"/>
        <pt x="685" y="644" on="0"/>
        <pt x="677" y="658" on="0"/>
        <pt x="669" y="665" on="1"/>
        <pt x="669" y="680" on="1"/>
        <pt x="735" y="724" on="1"/>
        <pt x="749" y="713" on="0"/>
        <pt x="768" y="689" on="0"/>
        <pt x="768" y="663" on="1"/>
      </contour>
      <contour>
        <pt x="447" y="57" on="0"/>
        <pt x="523" y="177" on="0"/>
        <pt x="523" y="313" on="1"/>
        <pt x="523" y="417" on="0"/>
        <pt x="484" y="537" on="0"/>
        <pt x="408" y="588" on="0"/>
        <pt x="349" y="588" on="1"/>
        <pt x="292" y="588" on="0"/>
        <pt x="219" y="546" on="0"/>
        <pt x="179" y="434" on="0"/>
        <pt x="179" y="332" on="1"/>
        <pt x="179" y="184" on="0"/>
        <pt x="267" y="57" on="0"/>
        <pt x="361" y="57" on="1"/>
      </contour>
    </TTGlyph>
    <TTGlyph name="Ohungarumlaut" xMin="39" yMin="-16" xMax="664" yMax="849">
      <contour>
        <pt x="182" y="709" on="1"/>
        <pt x="274" y="818" on="1"/>
        <pt x="287" y="834" on="0"/>
        <pt x="309" y="849" on="0"/>
        <pt x="322" y="849" on="1"/>
        <pt x="340" y="849" on="0"/>
        <pt x="369" y="813" on="0"/>
        <pt x="375" y="781" on="1"/>
        <pt x="215" y="673" on="1"/>
      </contour>
      <contour>
        <pt x="370" y="709" on="1"/>
        <pt x="462" y="818" on="1"/>
        <pt x="475" y="834" on="0"/>
        <pt x="497" y="849" on="0"/>
        <pt x="510" y="849" on="1"/>
        <pt x="528" y="849" on="0"/>
        <pt x="557" y="813" on="0"/>
        <pt x="563" y="781" on="1"/>
        <pt x="403" y="673" on="1"/>
      </contour>
      <contour>
        <pt x="195" y="-16" on="0"/>
        <pt x="39" y="154" on="0"/>
        <pt x="39" y="313" on="1"/>
        <pt x="39" y="414" on="0"/>
        <pt x="117" y="573" on="0"/>
        <pt x="265" y="664" on="0"/>
        <pt x="366" y="664" on="1"/>
        <pt x="508" y="664" on="0"/>
        <pt x="664" y="493" on="0"/>
        <pt x="664" y="336" on="1"/>
        <pt x="664" y="233" on="0"/>
        <pt x="590" y="74" on="0"/>
        <pt x="445" y="-16" on="0"/>
        <pt x="342" y="-16" on="1"/>
      </contour>
      <contour>
        <pt x="447" y="57" on="0"/>
        <pt x="523" y="177" on="0"/>
        <pt x="523" y="313" on="1"/>
        <pt x="523" y="417" on="0"/>
        <pt x="484" y="537" on="0"/>
        <pt x="408" y="588" on="0"/>
        <pt x="349" y="588" on="1"/>
        <pt x="292" y="588" on="0"/>
        <pt x="219" y="546" on="0"/>
        <pt x="179" y="434" on="0"/>
        <pt x="179" y="332" on="1"/>
        <pt x="179" y="184" on="0"/>
        <pt x="267" y="57" on="0"/>
        <pt x="361" y="57" on="1"/>
      </contour>
    </TTGlyph>
    <TTGlyph name="Omacron" xMin="40" yMin="-16" xMax="666" yMax="797">
      <contour>
        <pt x="192" y="797" on="1"/>
        <pt x="533" y="797" on="1"/>
        <pt x="521" y="723" on="1"/>
        <pt x="180" y="723" on="1"/>
      </contour>
      <contour>
        <pt x="197" y="-16" on="0"/>
        <pt x="40" y="154" on="0"/>
        <pt x="40" y="313" on="1"/>
        <pt x="40" y="414" on="0"/>
        <pt x="119" y="573" on="0"/>
        <pt x="267" y="664" on="0"/>
        <pt x="368" y="664" on="1"/>
        <pt x="510" y="664" on="0"/>
        <pt x="666" y="493" on="0"/>
        <pt x="666" y="336" on="1"/>
        <pt x="666" y="233" on="0"/>
        <pt x="592" y="74" on="0"/>
        <pt x="447" y="-16" on="0"/>
        <pt x="344" y="-16" on="1"/>
      </contour>
      <contour>
        <pt x="449" y="57" on="0"/>
        <pt x="525" y="177" on="0"/>
        <pt x="525" y="313" on="1"/>
        <pt x="525" y="417" on="0"/>
        <pt x="486" y="537" on="0"/>
        <pt x="410" y="588" on="0"/>
        <pt x="351" y="588" on="1"/>
        <pt x="294" y="588" on="0"/>
        <pt x="221" y="546" on="0"/>
        <pt x="181" y="434" on="0"/>
        <pt x="181" y="332" on="1"/>
        <pt x="181" y="184" on="0"/>
        <pt x="269" y="57" on="0"/>
        <pt x="363" y="57" on="1"/>
      </contour>
    </TTGlyph>
    <TTGlyph name="Oslash" xMin="39" yMin="-75" xMax="664" yMax="720">
      <contour>
        <pt x="108" y="61" on="0"/>
        <pt x="39" y="208" on="0"/>
        <pt x="39" y="313" on="1"/>
        <pt x="39" y="414" on="0"/>
        <pt x="117" y="573" on="0"/>
        <pt x="265" y="664" on="0"/>
        <pt x="366" y="664" on="1"/>
        <pt x="406" y="664" on="0"/>
        <pt x="446" y="656" on="1"/>
        <pt x="475" y="720" on="1"/>
        <pt x="541" y="690" on="1"/>
        <pt x="516" y="632" on="1"/>
        <pt x="588" y="595" on="0"/>
        <pt x="664" y="445" on="0"/>
        <pt x="664" y="336" on="1"/>
        <pt x="664" y="233" on="0"/>
        <pt x="590" y="74" on="0"/>
        <pt x="445" y="-16" on="0"/>
        <pt x="342" y="-16" on="1"/>
        <pt x="288" y="-16" on="0"/>
        <pt x="243" y="-4" on="1"/>
        <pt x="213" y="-75" on="1"/>
        <pt x="145" y="-45" on="1"/>
        <pt x="174" y="23" on="1"/>
      </contour>
      <contour>
        <pt x="385" y="588" on="0"/>
        <pt x="349" y="588" on="1"/>
        <pt x="292" y="588" on="0"/>
        <pt x="219" y="546" on="0"/>
        <pt x="179" y="434" on="0"/>
        <pt x="179" y="332" on="1"/>
        <pt x="179" y="197" on="0"/>
        <pt x="220" y="130" on="1"/>
        <pt x="414" y="579" on="1"/>
      </contour>
      <contour>
        <pt x="310" y="57" on="0"/>
        <pt x="361" y="57" on="1"/>
        <pt x="447" y="57" on="0"/>
        <pt x="523" y="177" on="0"/>
        <pt x="523" y="313" on="1"/>
        <pt x="523" y="471" on="0"/>
        <pt x="474" y="534" on="1"/>
        <pt x="276" y="74" on="1"/>
      </contour>
    </TTGlyph>
    <TTGlyph name="Oslashacute" xMin="39" yMin="-75" xMax="664" yMax="841">
      <component glyphName=".ttfautohint" x="39" y="0" flags="0x0"/>
      <component glyphName="Oslash" x="0" y="0" flags="0x0"/>
      <component glyphName="acutecomb.case" x="461" y="0" flags="0x0"/>
    </TTGlyph>
    <TTGlyph name="Otilde" xMin="39" yMin="-16" xMax="664" yMax="830">
      <contour>
        <pt x="416" y="699" on="0"/>
        <pt x="385" y="706" on="0"/>
        <pt x="368" y="712" on="1"/>
        <pt x="276" y="742" on="1"/>
        <pt x="202" y="704" on="1"/>
        <pt x="169" y="737" on="1"/>
        <pt x="204" y="789" on="1"/>
        <pt x="221" y="813" on="0"/>
        <pt x="258" y="830" on="0"/>
        <pt x="282" y="830" on="1"/>
        <pt x="310" y="830" on="0"/>
        <pt x="344" y="819" on="1"/>
        <pt x="436" y="788" on="1"/>
        <pt x="511" y="826" on="1"/>
        <pt x="544" y="793" on="1"/>
        <pt x="508" y="742" on="1"/>
        <pt x="491" y="717" on="0"/>
        <pt x="454" y="699" on="0"/>
        <pt x="430" y="699" on="1"/>
      </contour>
      <contour>
        <pt x="195" y="-16" on="0"/>
        <pt x="39" y="154" on="0"/>
        <pt x="39" y="313" on="1"/>
        <pt x="39" y="414" on="0"/>
        <pt x="117" y="573" on="0"/>
        <pt x="265" y="664" on="0"/>
        <pt x="366" y="664" on="1"/>
        <pt x="508" y="664" on="0"/>
        <pt x="664" y="493" on="0"/>
        <pt x="664" y="336" on="1"/>
        <pt x="664" y="233" on="0"/>
        <pt x="590" y="74" on="0"/>
        <pt x="445" y="-16" on="0"/>
        <pt x="342" y="-16" on="1"/>
      </contour>
      <contour>
        <pt x="447" y="57" on="0"/>
        <pt x="523" y="177" on="0"/>
        <pt x="523" y="313" on="1"/>
        <pt x="523" y="417" on="0"/>
        <pt x="484" y="537" on="0"/>
        <pt x="408" y="588" on="0"/>
        <pt x="349" y="588" on="1"/>
        <pt x="292" y="588" on="0"/>
        <pt x="219" y="546" on="0"/>
        <pt x="179" y="434" on="0"/>
        <pt x="179" y="332" on="1"/>
        <pt x="179" y="184" on="0"/>
        <pt x="267" y="57" on="0"/>
        <pt x="361" y="57" on="1"/>
      </contour>
    </TTGlyph>
    <TTGlyph name="P" xMin="42" yMin="0" xMax="564" yMax="648">
      <contour>
        <pt x="42" y="51" on="1"/>
        <pt x="123" y="70" on="1"/>
        <pt x="123" y="578" on="1"/>
        <pt x="42" y="597" on="1"/>
        <pt x="42" y="648" on="1"/>
        <pt x="312" y="648" on="1"/>
        <pt x="439" y="648" on="0"/>
        <pt x="564" y="566" on="0"/>
        <pt x="564" y="469" on="1"/>
        <pt x="564" y="370" on="0"/>
        <pt x="434" y="261" on="0"/>
        <pt x="331" y="261" on="1"/>
        <pt x="306" y="261" on="0"/>
        <pt x="293" y="263" on="1"/>
        <pt x="288" y="307" on="1"/>
        <pt x="366" y="312" on="0"/>
        <pt x="435" y="381" on="0"/>
        <pt x="435" y="458" on="1"/>
        <pt x="435" y="518" on="0"/>
        <pt x="371" y="579" on="0"/>
        <pt x="309" y="579" on="1"/>
        <pt x="288" y="579" on="0"/>
        <pt x="250" y="575" on="0"/>
        <pt x="245" y="574" on="1"/>
        <pt x="245" y="71" on="1"/>
        <pt x="336" y="52" on="1"/>
        <pt x="336" y="0" on="1"/>
        <pt x="42" y="0" on="1"/>
      </contour>
    </TTGlyph>
    <TTGlyph name="Q" xMin="39" yMin="-160" xMax="704" yMax="664">
      <contour>
        <pt x="335" y="-20" on="0"/>
        <pt x="286" y="-12" on="1"/>
        <pt x="165" y="1" on="0"/>
        <pt x="39" y="171" on="0"/>
        <pt x="39" y="315" on="1"/>
        <pt x="39" y="413" on="0"/>
        <pt x="119" y="572" on="0"/>
        <pt x="268" y="664" on="0"/>
        <pt x="366" y="664" on="1"/>
        <pt x="508" y="664" on="0"/>
        <pt x="664" y="492" on="0"/>
        <pt x="664" y="338" on="1"/>
        <pt x="664" y="222" on="0"/>
        <pt x="557" y="37" on="0"/>
        <pt x="452" y="3" on="1"/>
        <pt x="599" y="-80" on="1"/>
        <pt x="704" y="-80" on="1"/>
        <pt x="704" y="-125" on="1"/>
        <pt x="700" y="-128" on="0"/>
        <pt x="667" y="-144" on="0"/>
        <pt x="620" y="-160" on="0"/>
        <pt x="598" y="-160" on="1"/>
        <pt x="548" y="-160" on="0"/>
        <pt x="511" y="-134" on="1"/>
        <pt x="370" y="-43" on="1"/>
      </contour>
      <contour>
        <pt x="448" y="58" on="0"/>
        <pt x="523" y="180" on="0"/>
        <pt x="523" y="324" on="1"/>
        <pt x="523" y="468" on="0"/>
        <pt x="436" y="589" on="0"/>
        <pt x="349" y="589" on="1"/>
        <pt x="292" y="589" on="0"/>
        <pt x="219" y="546" on="0"/>
        <pt x="179" y="434" on="0"/>
        <pt x="179" y="332" on="1"/>
        <pt x="179" y="188" on="0"/>
        <pt x="271" y="58" on="0"/>
        <pt x="364" y="58" on="1"/>
      </contour>
    </TTGlyph>
    <TTGlyph name="R" xMin="42" yMin="0" xMax="621" yMax="648">
      <contour>
        <pt x="42" y="51" on="1"/>
        <pt x="123" y="70" on="1"/>
        <pt x="123" y="578" on="1"/>
        <pt x="42" y="597" on="1"/>
        <pt x="42" y="648" on="1"/>
        <pt x="325" y="648" on="1"/>
        <pt x="438" y="648" on="0"/>
        <pt x="555" y="568" on="0"/>
        <pt x="555" y="473" on="1"/>
        <pt x="555" y="341" on="0"/>
        <pt x="419" y="289" on="1"/>
        <pt x="550" y="69" on="1"/>
        <pt x="621" y="51" on="1"/>
        <pt x="621" y="0" on="1"/>
        <pt x="488" y="0" on="1"/>
        <pt x="467" y="0" on="0"/>
        <pt x="439" y="15" on="0"/>
        <pt x="430" y="32" on="1"/>
        <pt x="303" y="267" on="1"/>
        <pt x="245" y="267" on="1"/>
        <pt x="245" y="70" on="1"/>
        <pt x="326" y="51" on="1"/>
        <pt x="326" y="0" on="1"/>
        <pt x="42" y="0" on="1"/>
      </contour>
      <contour>
        <pt x="287" y="336" on="1"/>
        <pt x="352" y="336" on="0"/>
        <pt x="425" y="404" on="0"/>
        <pt x="425" y="467" on="1"/>
        <pt x="425" y="529" on="0"/>
        <pt x="367" y="579" on="0"/>
        <pt x="307" y="579" on="1"/>
        <pt x="270" y="579" on="0"/>
        <pt x="245" y="574" on="1"/>
        <pt x="245" y="336" on="1"/>
      </contour>
    </TTGlyph>
    <TTGlyph name="Racute" xMin="42" yMin="0" xMax="617" yMax="841">
      <contour>
        <pt x="201" y="719" on="1"/>
        <pt x="340" y="818" on="1"/>
        <pt x="353" y="826" on="0"/>
        <pt x="379" y="841" on="0"/>
        <pt x="388" y="841" on="1"/>
        <pt x="412" y="841" on="0"/>
        <pt x="437" y="802" on="0"/>
        <pt x="437" y="771" on="1"/>
        <pt x="437" y="765" on="0"/>
        <pt x="435" y="749" on="1"/>
        <pt x="225" y="675" on="1"/>
      </contour>
      <contour>
        <pt x="42" y="51" on="1"/>
        <pt x="123" y="70" on="1"/>
        <pt x="123" y="578" on="1"/>
        <pt x="42" y="597" on="1"/>
        <pt x="42" y="648" on="1"/>
        <pt x="325" y="648" on="1"/>
        <pt x="438" y="648" on="0"/>
        <pt x="555" y="568" on="0"/>
        <pt x="555" y="473" on="1"/>
        <pt x="555" y="341" on="0"/>
        <pt x="419" y="288" on="1"/>
        <pt x="545" y="69" on="1"/>
        <pt x="617" y="51" on="1"/>
        <pt x="617" y="0" on="1"/>
        <pt x="489" y="0" on="1"/>
        <pt x="468" y="0" on="0"/>
        <pt x="442" y="14" on="0"/>
        <pt x="432" y="32" on="1"/>
        <pt x="304" y="267" on="1"/>
        <pt x="245" y="267" on="1"/>
        <pt x="245" y="70" on="1"/>
        <pt x="326" y="51" on="1"/>
        <pt x="326" y="0" on="1"/>
        <pt x="42" y="0" on="1"/>
      </contour>
      <contour>
        <pt x="287" y="336" on="1"/>
        <pt x="352" y="336" on="0"/>
        <pt x="426" y="404" on="0"/>
        <pt x="426" y="467" on="1"/>
        <pt x="426" y="528" on="0"/>
        <pt x="368" y="579" on="0"/>
        <pt x="309" y="579" on="1"/>
        <pt x="270" y="579" on="0"/>
        <pt x="245" y="574" on="1"/>
        <pt x="245" y="336" on="1"/>
      </contour>
    </TTGlyph>
    <TTGlyph name="Rcaron" xMin="42" yMin="0" xMax="617" yMax="840">
      <contour>
        <pt x="300" y="674" on="0"/>
        <pt x="278" y="688" on="0"/>
        <pt x="254" y="708" on="0"/>
        <pt x="248" y="712" on="1"/>
        <pt x="143" y="792" on="1"/>
        <pt x="177" y="840" on="1"/>
        <pt x="315" y="777" on="1"/>
        <pt x="449" y="840" on="1"/>
        <pt x="476" y="800" on="1"/>
        <pt x="371" y="713" on="1"/>
        <pt x="343" y="690" on="0"/>
        <pt x="320" y="674" on="0"/>
        <pt x="309" y="674" on="1"/>
      </contour>
      <contour>
        <pt x="42" y="51" on="1"/>
        <pt x="123" y="70" on="1"/>
        <pt x="123" y="578" on="1"/>
        <pt x="42" y="597" on="1"/>
        <pt x="42" y="648" on="1"/>
        <pt x="325" y="648" on="1"/>
        <pt x="438" y="648" on="0"/>
        <pt x="555" y="568" on="0"/>
        <pt x="555" y="473" on="1"/>
        <pt x="555" y="341" on="0"/>
        <pt x="419" y="288" on="1"/>
        <pt x="545" y="69" on="1"/>
        <pt x="617" y="51" on="1"/>
        <pt x="617" y="0" on="1"/>
        <pt x="489" y="0" on="1"/>
        <pt x="468" y="0" on="0"/>
        <pt x="442" y="14" on="0"/>
        <pt x="432" y="32" on="1"/>
        <pt x="304" y="267" on="1"/>
        <pt x="245" y="267" on="1"/>
        <pt x="245" y="70" on="1"/>
        <pt x="326" y="51" on="1"/>
        <pt x="326" y="0" on="1"/>
        <pt x="42" y="0" on="1"/>
      </contour>
      <contour>
        <pt x="287" y="336" on="1"/>
        <pt x="352" y="336" on="0"/>
        <pt x="426" y="404" on="0"/>
        <pt x="426" y="467" on="1"/>
        <pt x="426" y="528" on="0"/>
        <pt x="368" y="579" on="0"/>
        <pt x="309" y="579" on="1"/>
        <pt x="270" y="579" on="0"/>
        <pt x="245" y="574" on="1"/>
        <pt x="245" y="336" on="1"/>
      </contour>
    </TTGlyph>
    <TTGlyph name="Rcommaaccent" xMin="42" yMin="-205" xMax="617" yMax="648">
      <contour>
        <pt x="42" y="51" on="1"/>
        <pt x="123" y="70" on="1"/>
        <pt x="123" y="578" on="1"/>
        <pt x="42" y="597" on="1"/>
        <pt x="42" y="648" on="1"/>
        <pt x="325" y="648" on="1"/>
        <pt x="438" y="648" on="0"/>
        <pt x="555" y="568" on="0"/>
        <pt x="555" y="473" on="1"/>
        <pt x="555" y="341" on="0"/>
        <pt x="419" y="288" on="1"/>
        <pt x="545" y="69" on="1"/>
        <pt x="617" y="51" on="1"/>
        <pt x="617" y="0" on="1"/>
        <pt x="489" y="0" on="1"/>
        <pt x="468" y="0" on="0"/>
        <pt x="442" y="14" on="0"/>
        <pt x="432" y="32" on="1"/>
        <pt x="304" y="267" on="1"/>
        <pt x="245" y="267" on="1"/>
        <pt x="245" y="70" on="1"/>
        <pt x="326" y="51" on="1"/>
        <pt x="326" y="0" on="1"/>
        <pt x="42" y="0" on="1"/>
      </contour>
      <contour>
        <pt x="287" y="336" on="1"/>
        <pt x="352" y="336" on="0"/>
        <pt x="426" y="404" on="0"/>
        <pt x="426" y="467" on="1"/>
        <pt x="426" y="528" on="0"/>
        <pt x="368" y="579" on="0"/>
        <pt x="309" y="579" on="1"/>
        <pt x="270" y="579" on="0"/>
        <pt x="245" y="574" on="1"/>
        <pt x="245" y="336" on="1"/>
      </contour>
      <contour>
        <pt x="294" y="-153" on="0"/>
        <pt x="294" y="-114" on="1"/>
        <pt x="294" y="-75" on="0"/>
        <pt x="272" y="-53" on="1"/>
        <pt x="296" y="-26" on="0"/>
        <pt x="324" y="-26" on="1"/>
        <pt x="353" y="-26" on="0"/>
        <pt x="381" y="-59" on="0"/>
        <pt x="381" y="-82" on="1"/>
        <pt x="381" y="-112" on="0"/>
        <pt x="353" y="-166" on="0"/>
        <pt x="318" y="-205" on="0"/>
        <pt x="318" y="-203" on="1"/>
        <pt x="279" y="-203" on="1"/>
      </contour>
    </TTGlyph>
    <TTGlyph name="S" xMin="46" yMin="-14" xMax="486" yMax="664">
      <contour>
        <pt x="184" y="-14" on="0"/>
        <pt x="71" y="19" on="0"/>
        <pt x="46" y="37" on="1"/>
        <pt x="46" y="202" on="1"/>
        <pt x="110" y="202" on="1"/>
        <pt x="129" y="100" on="1"/>
        <pt x="149" y="83" on="0"/>
        <pt x="216" y="59" on="0"/>
        <pt x="247" y="59" on="1"/>
        <pt x="315" y="59" on="0"/>
        <pt x="374" y="108" on="0"/>
        <pt x="374" y="156" on="1"/>
        <pt x="374" y="184" on="0"/>
        <pt x="351" y="220" on="0"/>
        <pt x="299" y="249" on="0"/>
        <pt x="245" y="272" on="1"/>
        <pt x="222" y="281" on="1"/>
        <pt x="164" y="305" on="0"/>
        <pt x="94" y="345" on="0"/>
        <pt x="46" y="418" on="0"/>
        <pt x="46" y="476" on="1"/>
        <pt x="46" y="532" on="0"/>
        <pt x="101" y="617" on="0"/>
        <pt x="205" y="664" on="0"/>
        <pt x="274" y="664" on="1"/>
        <pt x="323" y="664" on="0"/>
        <pt x="431" y="648" on="0"/>
        <pt x="457" y="639" on="1"/>
        <pt x="457" y="468" on="1"/>
        <pt x="396" y="468" on="1"/>
        <pt x="375" y="568" on="1"/>
        <pt x="326" y="589" on="0"/>
        <pt x="275" y="589" on="1"/>
        <pt x="212" y="589" on="0"/>
        <pt x="161" y="545" on="0"/>
        <pt x="161" y="502" on="1"/>
        <pt x="161" y="475" on="0"/>
        <pt x="190" y="438" on="0"/>
        <pt x="235" y="415" on="0"/>
        <pt x="276" y="399" on="1"/>
        <pt x="291" y="394" on="0"/>
        <pt x="295" y="392" on="1"/>
        <pt x="357" y="368" on="0"/>
        <pt x="436" y="321" on="0"/>
        <pt x="486" y="246" on="0"/>
        <pt x="486" y="191" on="1"/>
        <pt x="486" y="84" on="0"/>
        <pt x="348" y="-14" on="0"/>
        <pt x="251" y="-14" on="1"/>
      </contour>
    </TTGlyph>
    <TTGlyph name="Sacute" xMin="46" yMin="-14" xMax="486" yMax="841">
      <contour>
        <pt x="165" y="719" on="1"/>
        <pt x="304" y="818" on="1"/>
        <pt x="317" y="826" on="0"/>
        <pt x="343" y="841" on="0"/>
        <pt x="352" y="841" on="1"/>
        <pt x="376" y="841" on="0"/>
        <pt x="401" y="802" on="0"/>
        <pt x="401" y="771" on="1"/>
        <pt x="401" y="765" on="0"/>
        <pt x="399" y="749" on="1"/>
        <pt x="189" y="675" on="1"/>
      </contour>
      <contour>
        <pt x="184" y="-14" on="0"/>
        <pt x="71" y="19" on="0"/>
        <pt x="46" y="37" on="1"/>
        <pt x="46" y="202" on="1"/>
        <pt x="110" y="202" on="1"/>
        <pt x="129" y="100" on="1"/>
        <pt x="149" y="83" on="0"/>
        <pt x="216" y="59" on="0"/>
        <pt x="247" y="59" on="1"/>
        <pt x="315" y="59" on="0"/>
        <pt x="374" y="108" on="0"/>
        <pt x="374" y="156" on="1"/>
        <pt x="374" y="184" on="0"/>
        <pt x="351" y="220" on="0"/>
        <pt x="299" y="249" on="0"/>
        <pt x="245" y="272" on="1"/>
        <pt x="222" y="281" on="1"/>
        <pt x="164" y="305" on="0"/>
        <pt x="94" y="345" on="0"/>
        <pt x="46" y="418" on="0"/>
        <pt x="46" y="476" on="1"/>
        <pt x="46" y="532" on="0"/>
        <pt x="101" y="617" on="0"/>
        <pt x="205" y="664" on="0"/>
        <pt x="274" y="664" on="1"/>
        <pt x="323" y="664" on="0"/>
        <pt x="431" y="648" on="0"/>
        <pt x="457" y="639" on="1"/>
        <pt x="457" y="468" on="1"/>
        <pt x="396" y="468" on="1"/>
        <pt x="375" y="568" on="1"/>
        <pt x="326" y="589" on="0"/>
        <pt x="275" y="589" on="1"/>
        <pt x="212" y="589" on="0"/>
        <pt x="161" y="545" on="0"/>
        <pt x="161" y="502" on="1"/>
        <pt x="161" y="475" on="0"/>
        <pt x="190" y="438" on="0"/>
        <pt x="235" y="415" on="0"/>
        <pt x="276" y="399" on="1"/>
        <pt x="291" y="394" on="0"/>
        <pt x="295" y="392" on="1"/>
        <pt x="357" y="368" on="0"/>
        <pt x="436" y="321" on="0"/>
        <pt x="486" y="246" on="0"/>
        <pt x="486" y="191" on="1"/>
        <pt x="486" y="84" on="0"/>
        <pt x="348" y="-14" on="0"/>
        <pt x="251" y="-14" on="1"/>
      </contour>
    </TTGlyph>
    <TTGlyph name="Sacute.loclPLK" xMin="46" yMin="-14" xMax="486" yMax="869">
      <contour>
        <pt x="231" y="705" on="1"/>
        <pt x="302" y="825" on="1"/>
        <pt x="305" y="829" on="0"/>
        <pt x="323" y="857" on="0"/>
        <pt x="342" y="869" on="0"/>
        <pt x="353" y="869" on="1"/>
        <pt x="396" y="869" on="0"/>
        <pt x="417" y="801" on="1"/>
        <pt x="276" y="667" on="1"/>
      </contour>
      <contour>
        <pt x="184" y="-14" on="0"/>
        <pt x="71" y="19" on="0"/>
        <pt x="46" y="37" on="1"/>
        <pt x="46" y="202" on="1"/>
        <pt x="110" y="202" on="1"/>
        <pt x="129" y="100" on="1"/>
        <pt x="149" y="83" on="0"/>
        <pt x="216" y="59" on="0"/>
        <pt x="247" y="59" on="1"/>
        <pt x="315" y="59" on="0"/>
        <pt x="374" y="108" on="0"/>
        <pt x="374" y="156" on="1"/>
        <pt x="374" y="184" on="0"/>
        <pt x="351" y="220" on="0"/>
        <pt x="299" y="249" on="0"/>
        <pt x="245" y="272" on="1"/>
        <pt x="222" y="281" on="1"/>
        <pt x="164" y="305" on="0"/>
        <pt x="94" y="345" on="0"/>
        <pt x="46" y="418" on="0"/>
        <pt x="46" y="476" on="1"/>
        <pt x="46" y="532" on="0"/>
        <pt x="101" y="617" on="0"/>
        <pt x="205" y="664" on="0"/>
        <pt x="274" y="664" on="1"/>
        <pt x="323" y="664" on="0"/>
        <pt x="431" y="648" on="0"/>
        <pt x="457" y="639" on="1"/>
        <pt x="457" y="468" on="1"/>
        <pt x="396" y="468" on="1"/>
        <pt x="375" y="568" on="1"/>
        <pt x="326" y="589" on="0"/>
        <pt x="275" y="589" on="1"/>
        <pt x="212" y="589" on="0"/>
        <pt x="161" y="545" on="0"/>
        <pt x="161" y="502" on="1"/>
        <pt x="161" y="475" on="0"/>
        <pt x="190" y="438" on="0"/>
        <pt x="235" y="415" on="0"/>
        <pt x="276" y="399" on="1"/>
        <pt x="291" y="394" on="0"/>
        <pt x="295" y="392" on="1"/>
        <pt x="357" y="368" on="0"/>
        <pt x="436" y="321" on="0"/>
        <pt x="486" y="246" on="0"/>
        <pt x="486" y="191" on="1"/>
        <pt x="486" y="84" on="0"/>
        <pt x="348" y="-14" on="0"/>
        <pt x="251" y="-14" on="1"/>
      </contour>
    </TTGlyph>
    <TTGlyph name="Scaron" xMin="46" yMin="-14" xMax="486" yMax="840">
      <contour>
        <pt x="262" y="674" on="0"/>
        <pt x="239" y="689" on="0"/>
        <pt x="226" y="699" on="1"/>
        <pt x="209" y="712" on="1"/>
        <pt x="104" y="792" on="1"/>
        <pt x="137" y="840" on="1"/>
        <pt x="275" y="777" on="1"/>
        <pt x="409" y="840" on="1"/>
        <pt x="437" y="800" on="1"/>
        <pt x="332" y="713" on="1"/>
        <pt x="305" y="691" on="0"/>
        <pt x="280" y="674" on="0"/>
        <pt x="269" y="674" on="1"/>
      </contour>
      <contour>
        <pt x="184" y="-14" on="0"/>
        <pt x="71" y="19" on="0"/>
        <pt x="46" y="37" on="1"/>
        <pt x="46" y="202" on="1"/>
        <pt x="110" y="202" on="1"/>
        <pt x="129" y="100" on="1"/>
        <pt x="149" y="83" on="0"/>
        <pt x="216" y="59" on="0"/>
        <pt x="247" y="59" on="1"/>
        <pt x="315" y="59" on="0"/>
        <pt x="374" y="108" on="0"/>
        <pt x="374" y="156" on="1"/>
        <pt x="374" y="184" on="0"/>
        <pt x="351" y="220" on="0"/>
        <pt x="299" y="249" on="0"/>
        <pt x="245" y="272" on="1"/>
        <pt x="222" y="281" on="1"/>
        <pt x="164" y="305" on="0"/>
        <pt x="94" y="345" on="0"/>
        <pt x="46" y="418" on="0"/>
        <pt x="46" y="476" on="1"/>
        <pt x="46" y="532" on="0"/>
        <pt x="101" y="617" on="0"/>
        <pt x="205" y="664" on="0"/>
        <pt x="274" y="664" on="1"/>
        <pt x="323" y="664" on="0"/>
        <pt x="431" y="648" on="0"/>
        <pt x="457" y="639" on="1"/>
        <pt x="457" y="468" on="1"/>
        <pt x="396" y="468" on="1"/>
        <pt x="375" y="568" on="1"/>
        <pt x="326" y="589" on="0"/>
        <pt x="275" y="589" on="1"/>
        <pt x="212" y="589" on="0"/>
        <pt x="161" y="545" on="0"/>
        <pt x="161" y="502" on="1"/>
        <pt x="161" y="475" on="0"/>
        <pt x="190" y="438" on="0"/>
        <pt x="235" y="415" on="0"/>
        <pt x="276" y="399" on="1"/>
        <pt x="291" y="394" on="0"/>
        <pt x="295" y="392" on="1"/>
        <pt x="357" y="368" on="0"/>
        <pt x="436" y="321" on="0"/>
        <pt x="486" y="246" on="0"/>
        <pt x="486" y="191" on="1"/>
        <pt x="486" y="84" on="0"/>
        <pt x="348" y="-14" on="0"/>
        <pt x="251" y="-14" on="1"/>
      </contour>
    </TTGlyph>
    <TTGlyph name="Scedilla" xMin="48" yMin="-191" xMax="488" yMax="664">
      <contour>
        <pt x="223" y="-191" on="0"/>
        <pt x="187" y="-183" on="0"/>
        <pt x="168" y="-174" on="1"/>
        <pt x="186" y="-130" on="1"/>
        <pt x="213" y="-142" on="0"/>
        <pt x="245" y="-142" on="1"/>
        <pt x="266" y="-142" on="0"/>
        <pt x="288" y="-130" on="0"/>
        <pt x="288" y="-116" on="1"/>
        <pt x="288" y="-104" on="0"/>
        <pt x="276" y="-93" on="0"/>
        <pt x="262" y="-90" on="1"/>
        <pt x="231" y="-84" on="1"/>
        <pt x="209" y="-62" on="1"/>
        <pt x="230" y="-13" on="1"/>
        <pt x="169" y="-10" on="0"/>
        <pt x="70" y="21" on="0"/>
        <pt x="48" y="37" on="1"/>
        <pt x="48" y="202" on="1"/>
        <pt x="112" y="202" on="1"/>
        <pt x="131" y="100" on="1"/>
        <pt x="151" y="83" on="0"/>
        <pt x="218" y="59" on="0"/>
        <pt x="249" y="59" on="1"/>
        <pt x="318" y="59" on="0"/>
        <pt x="376" y="103" on="0"/>
        <pt x="376" y="156" on="1"/>
        <pt x="376" y="184" on="0"/>
        <pt x="353" y="221" on="0"/>
        <pt x="301" y="251" on="0"/>
        <pt x="249" y="271" on="1"/>
        <pt x="180" y="298" on="0"/>
        <pt x="105" y="337" on="0"/>
        <pt x="48" y="414" on="0"/>
        <pt x="48" y="476" on="1"/>
        <pt x="48" y="532" on="0"/>
        <pt x="103" y="617" on="0"/>
        <pt x="207" y="664" on="0"/>
        <pt x="276" y="664" on="1"/>
        <pt x="325" y="664" on="0"/>
        <pt x="433" y="648" on="0"/>
        <pt x="459" y="639" on="1"/>
        <pt x="459" y="468" on="1"/>
        <pt x="397" y="468" on="1"/>
        <pt x="377" y="568" on="1"/>
        <pt x="356" y="578" on="0"/>
        <pt x="302" y="589" on="0"/>
        <pt x="277" y="589" on="1"/>
        <pt x="211" y="589" on="0"/>
        <pt x="163" y="546" on="0"/>
        <pt x="163" y="502" on="1"/>
        <pt x="163" y="474" on="0"/>
        <pt x="196" y="437" on="0"/>
        <pt x="244" y="414" on="0"/>
        <pt x="293" y="394" on="1"/>
        <pt x="357" y="369" on="0"/>
        <pt x="437" y="322" on="0"/>
        <pt x="488" y="247" on="0"/>
        <pt x="488" y="191" on="1"/>
        <pt x="488" y="92" on="0"/>
        <pt x="370" y="-6" on="0"/>
        <pt x="283" y="-13" on="1"/>
        <pt x="283" y="-30" on="1"/>
        <pt x="302" y="-34" on="1"/>
        <pt x="337" y="-43" on="0"/>
        <pt x="372" y="-70" on="0"/>
        <pt x="372" y="-101" on="1"/>
        <pt x="372" y="-147" on="0"/>
        <pt x="306" y="-191" on="0"/>
        <pt x="248" y="-191" on="1"/>
      </contour>
    </TTGlyph>
    <TTGlyph name="Scircumflex" xMin="46" yMin="-14" xMax="486" yMax="840">
      <component glyphName=".ttfautohint" x="46" y="0" flags="0x0"/>
      <component glyphName="S" x="0" y="0" flags="0x0"/>
      <component glyphName="uni0302.case" x="430" y="0" flags="0x0"/>
    </TTGlyph>
    <TTGlyph name="Scommaaccent" xMin="48" yMin="-205" xMax="488" yMax="664">
      <contour>
        <pt x="185" y="-14" on="0"/>
        <pt x="73" y="19" on="0"/>
        <pt x="48" y="37" on="1"/>
        <pt x="48" y="202" on="1"/>
        <pt x="112" y="202" on="1"/>
        <pt x="131" y="100" on="1"/>
        <pt x="151" y="83" on="0"/>
        <pt x="218" y="59" on="0"/>
        <pt x="249" y="59" on="1"/>
        <pt x="319" y="59" on="0"/>
        <pt x="376" y="104" on="0"/>
        <pt x="376" y="156" on="1"/>
        <pt x="376" y="185" on="0"/>
        <pt x="353" y="221" on="0"/>
        <pt x="300" y="251" on="0"/>
        <pt x="247" y="272" on="1"/>
        <pt x="181" y="297" on="0"/>
        <pt x="105" y="338" on="0"/>
        <pt x="48" y="415" on="0"/>
        <pt x="48" y="476" on="1"/>
        <pt x="48" y="532" on="0"/>
        <pt x="103" y="617" on="0"/>
        <pt x="207" y="664" on="0"/>
        <pt x="276" y="664" on="1"/>
        <pt x="325" y="664" on="0"/>
        <pt x="433" y="648" on="0"/>
        <pt x="459" y="639" on="1"/>
        <pt x="459" y="468" on="1"/>
        <pt x="397" y="468" on="1"/>
        <pt x="377" y="568" on="1"/>
        <pt x="356" y="578" on="0"/>
        <pt x="302" y="589" on="0"/>
        <pt x="277" y="589" on="1"/>
        <pt x="211" y="589" on="0"/>
        <pt x="163" y="546" on="0"/>
        <pt x="163" y="502" on="1"/>
        <pt x="163" y="474" on="0"/>
        <pt x="197" y="436" on="0"/>
        <pt x="246" y="412" on="0"/>
        <pt x="294" y="393" on="1"/>
        <pt x="356" y="369" on="0"/>
        <pt x="437" y="322" on="0"/>
        <pt x="488" y="247" on="0"/>
        <pt x="488" y="191" on="1"/>
        <pt x="488" y="84" on="0"/>
        <pt x="350" y="-14" on="0"/>
        <pt x="253" y="-14" on="1"/>
      </contour>
      <contour>
        <pt x="228" y="-153" on="0"/>
        <pt x="228" y="-114" on="1"/>
        <pt x="228" y="-75" on="0"/>
        <pt x="206" y="-53" on="1"/>
        <pt x="230" y="-26" on="0"/>
        <pt x="258" y="-26" on="1"/>
        <pt x="287" y="-26" on="0"/>
        <pt x="315" y="-59" on="0"/>
        <pt x="315" y="-82" on="1"/>
        <pt x="315" y="-112" on="0"/>
        <pt x="287" y="-166" on="0"/>
        <pt x="252" y="-205" on="0"/>
        <pt x="252" y="-203" on="1"/>
        <pt x="213" y="-203" on="1"/>
      </contour>
    </TTGlyph>
    <TTGlyph name="T" xMin="11" yMin="0" xMax="548" yMax="648">
      <contour>
        <pt x="219" y="69" on="1"/>
        <pt x="219" y="578" on="1"/>
        <pt x="95" y="578" on="1"/>
        <pt x="70" y="469" on="1"/>
        <pt x="11" y="469" on="1"/>
        <pt x="11" y="648" on="1"/>
        <pt x="548" y="648" on="1"/>
        <pt x="548" y="469" on="1"/>
        <pt x="489" y="469" on="1"/>
        <pt x="464" y="578" on="1"/>
        <pt x="342" y="578" on="1"/>
        <pt x="342" y="69" on="1"/>
        <pt x="422" y="52" on="1"/>
        <pt x="422" y="0" on="1"/>
        <pt x="139" y="0" on="1"/>
        <pt x="139" y="52" on="1"/>
      </contour>
    </TTGlyph>
    <TTGlyph name="Tbar" xMin="11" yMin="0" xMax="548" yMax="648">
      <contour>
        <pt x="342" y="578" on="1"/>
        <pt x="342" y="369" on="1"/>
        <pt x="517" y="369" on="1"/>
        <pt x="517" y="299" on="1"/>
        <pt x="342" y="299" on="1"/>
        <pt x="342" y="69" on="1"/>
        <pt x="422" y="52" on="1"/>
        <pt x="422" y="0" on="1"/>
        <pt x="139" y="0" on="1"/>
        <pt x="139" y="52" on="1"/>
        <pt x="219" y="69" on="1"/>
        <pt x="219" y="299" on="1"/>
        <pt x="38" y="299" on="1"/>
        <pt x="38" y="369" on="1"/>
        <pt x="219" y="369" on="1"/>
        <pt x="219" y="578" on="1"/>
        <pt x="95" y="578" on="1"/>
        <pt x="70" y="469" on="1"/>
        <pt x="11" y="469" on="1"/>
        <pt x="11" y="648" on="1"/>
        <pt x="548" y="648" on="1"/>
        <pt x="548" y="469" on="1"/>
        <pt x="489" y="469" on="1"/>
        <pt x="464" y="578" on="1"/>
      </contour>
    </TTGlyph>
    <TTGlyph name="Tcaron" xMin="12" yMin="0" xMax="550" yMax="840">
      <contour>
        <pt x="289" y="777" on="1"/>
        <pt x="423" y="840" on="1"/>
        <pt x="450" y="800" on="1"/>
        <pt x="345" y="713" on="1"/>
        <pt x="340" y="709" on="0"/>
        <pt x="312" y="685" on="0"/>
        <pt x="292" y="674" on="0"/>
        <pt x="283" y="674" on="1"/>
        <pt x="274" y="674" on="0"/>
        <pt x="252" y="688" on="0"/>
        <pt x="228" y="708" on="0"/>
        <pt x="222" y="712" on="1"/>
        <pt x="117" y="792" on="1"/>
        <pt x="151" y="840" on="1"/>
      </contour>
      <contour>
        <pt x="221" y="69" on="1"/>
        <pt x="221" y="578" on="1"/>
        <pt x="97" y="578" on="1"/>
        <pt x="72" y="469" on="1"/>
        <pt x="12" y="469" on="1"/>
        <pt x="12" y="648" on="1"/>
        <pt x="550" y="648" on="1"/>
        <pt x="550" y="469" on="1"/>
        <pt x="490" y="469" on="1"/>
        <pt x="465" y="578" on="1"/>
        <pt x="343" y="578" on="1"/>
        <pt x="343" y="69" on="1"/>
        <pt x="424" y="52" on="1"/>
        <pt x="424" y="0" on="1"/>
        <pt x="140" y="0" on="1"/>
        <pt x="140" y="52" on="1"/>
      </contour>
    </TTGlyph>
    <TTGlyph name="Thorn" xMin="44" yMin="0" xMax="546" yMax="648">
      <contour>
        <pt x="44" y="52" on="1"/>
        <pt x="124" y="69" on="1"/>
        <pt x="124" y="579" on="1"/>
        <pt x="44" y="596" on="1"/>
        <pt x="44" y="648" on="1"/>
        <pt x="327" y="648" on="1"/>
        <pt x="327" y="596" on="1"/>
        <pt x="247" y="579" on="1"/>
        <pt x="247" y="511" on="1"/>
        <pt x="331" y="511" on="1"/>
        <pt x="443" y="511" on="0"/>
        <pt x="546" y="434" on="0"/>
        <pt x="546" y="349" on="1"/>
        <pt x="546" y="245" on="0"/>
        <pt x="415" y="146" on="0"/>
        <pt x="298" y="146" on="1"/>
        <pt x="247" y="146" on="1"/>
        <pt x="247" y="69" on="1"/>
        <pt x="327" y="52" on="1"/>
        <pt x="327" y="0" on="1"/>
        <pt x="44" y="0" on="1"/>
      </contour>
      <contour>
        <pt x="288" y="212" on="1"/>
        <pt x="359" y="212" on="0"/>
        <pt x="422" y="271" on="0"/>
        <pt x="422" y="335" on="1"/>
        <pt x="422" y="390" on="0"/>
        <pt x="365" y="441" on="0"/>
        <pt x="305" y="441" on="1"/>
        <pt x="247" y="440" on="1"/>
        <pt x="247" y="212" on="1"/>
      </contour>
    </TTGlyph>
    <TTGlyph name="U" xMin="18" yMin="-16" xMax="687" yMax="648">
      <contour>
        <pt x="18" y="596" on="1"/>
        <pt x="18" y="648" on="1"/>
        <pt x="298" y="648" on="1"/>
        <pt x="298" y="596" on="1"/>
        <pt x="221" y="579" on="1"/>
        <pt x="221" y="278" on="1"/>
        <pt x="221" y="189" on="0"/>
        <pt x="249" y="98" on="0"/>
        <pt x="315" y="63" on="0"/>
        <pt x="378" y="63" on="1"/>
        <pt x="432" y="63" on="0"/>
        <pt x="493" y="104" on="0"/>
        <pt x="519" y="196" on="0"/>
        <pt x="519" y="278" on="1"/>
        <pt x="519" y="578" on="1"/>
        <pt x="439" y="595" on="1"/>
        <pt x="439" y="648" on="1"/>
        <pt x="687" y="648" on="1"/>
        <pt x="687" y="595" on="1"/>
        <pt x="606" y="578" on="1"/>
        <pt x="606" y="278" on="1"/>
        <pt x="606" y="173" on="0"/>
        <pt x="561" y="46" on="0"/>
        <pt x="451" y="-16" on="0"/>
        <pt x="355" y="-16" on="1"/>
        <pt x="255" y="-16" on="0"/>
        <pt x="145" y="43" on="0"/>
        <pt x="99" y="170" on="0"/>
        <pt x="99" y="278" on="1"/>
        <pt x="99" y="579" on="1"/>
      </contour>
    </TTGlyph>
    <TTGlyph name="Uacute" xMin="18" yMin="-16" xMax="687" yMax="841">
      <contour>
        <pt x="262" y="719" on="1"/>
        <pt x="401" y="818" on="1"/>
        <pt x="405" y="820" on="0"/>
        <pt x="427" y="834" on="0"/>
        <pt x="444" y="841" on="0"/>
        <pt x="450" y="841" on="1"/>
        <pt x="473" y="841" on="0"/>
        <pt x="499" y="801" on="0"/>
        <pt x="499" y="771" on="1"/>
        <pt x="499" y="763" on="0"/>
        <pt x="497" y="749" on="1"/>
        <pt x="286" y="675" on="1"/>
      </contour>
      <contour>
        <pt x="255" y="-16" on="0"/>
        <pt x="145" y="43" on="0"/>
        <pt x="99" y="170" on="0"/>
        <pt x="99" y="278" on="1"/>
        <pt x="99" y="579" on="1"/>
        <pt x="18" y="596" on="1"/>
        <pt x="18" y="648" on="1"/>
        <pt x="298" y="648" on="1"/>
        <pt x="298" y="596" on="1"/>
        <pt x="221" y="579" on="1"/>
        <pt x="221" y="278" on="1"/>
        <pt x="221" y="189" on="0"/>
        <pt x="249" y="98" on="0"/>
        <pt x="315" y="63" on="0"/>
        <pt x="378" y="63" on="1"/>
        <pt x="433" y="63" on="0"/>
        <pt x="493" y="103" on="0"/>
        <pt x="518" y="195" on="0"/>
        <pt x="518" y="278" on="1"/>
        <pt x="518" y="578" on="1"/>
        <pt x="439" y="595" on="1"/>
        <pt x="439" y="648" on="1"/>
        <pt x="687" y="648" on="1"/>
        <pt x="687" y="595" on="1"/>
        <pt x="606" y="578" on="1"/>
        <pt x="606" y="278" on="1"/>
        <pt x="606" y="175" on="0"/>
        <pt x="557" y="47" on="0"/>
        <pt x="447" y="-16" on="0"/>
        <pt x="355" y="-16" on="1"/>
      </contour>
    </TTGlyph>
    <TTGlyph name="Ubreve" xMin="18" yMin="-16" xMax="687" yMax="840">
      <component glyphName=".ttfautohint" x="18" y="0" flags="0x0"/>
      <component glyphName="U" x="0" y="0" flags="0x0"/>
      <component glyphName="uni0306.case" x="519" y="0" flags="0x0"/>
    </TTGlyph>
    <TTGlyph name="Ucircumflex" xMin="18" yMin="-16" xMax="687" yMax="840">
      <contour>
        <pt x="308" y="801" on="1"/>
        <pt x="337" y="825" on="0"/>
        <pt x="361" y="840" on="0"/>
        <pt x="369" y="840" on="1"/>
        <pt x="378" y="840" on="0"/>
        <pt x="399" y="826" on="0"/>
        <pt x="423" y="807" on="0"/>
        <pt x="429" y="802" on="1"/>
        <pt x="533" y="720" on="1"/>
        <pt x="502" y="674" on="1"/>
        <pt x="363" y="737" on="1"/>
        <pt x="227" y="674" on="1"/>
        <pt x="201" y="713" on="1"/>
      </contour>
      <contour>
        <pt x="18" y="596" on="1"/>
        <pt x="18" y="648" on="1"/>
        <pt x="298" y="648" on="1"/>
        <pt x="298" y="596" on="1"/>
        <pt x="221" y="579" on="1"/>
        <pt x="221" y="278" on="1"/>
        <pt x="221" y="189" on="0"/>
        <pt x="249" y="98" on="0"/>
        <pt x="315" y="63" on="0"/>
        <pt x="378" y="63" on="1"/>
        <pt x="433" y="63" on="0"/>
        <pt x="493" y="103" on="0"/>
        <pt x="518" y="195" on="0"/>
        <pt x="518" y="278" on="1"/>
        <pt x="518" y="578" on="1"/>
        <pt x="439" y="595" on="1"/>
        <pt x="439" y="648" on="1"/>
        <pt x="687" y="648" on="1"/>
        <pt x="687" y="595" on="1"/>
        <pt x="606" y="578" on="1"/>
        <pt x="606" y="278" on="1"/>
        <pt x="606" y="175" on="0"/>
        <pt x="557" y="47" on="0"/>
        <pt x="447" y="-16" on="0"/>
        <pt x="355" y="-16" on="1"/>
        <pt x="255" y="-16" on="0"/>
        <pt x="145" y="43" on="0"/>
        <pt x="99" y="170" on="0"/>
        <pt x="99" y="278" on="1"/>
        <pt x="99" y="579" on="1"/>
      </contour>
    </TTGlyph>
    <TTGlyph name="Udieresis" xMin="18" yMin="-16" xMax="687" yMax="837">
      <contour>
        <pt x="211" y="698" on="0"/>
        <pt x="176" y="735" on="0"/>
        <pt x="176" y="765" on="1"/>
        <pt x="176" y="794" on="0"/>
        <pt x="216" y="837" on="0"/>
        <pt x="245" y="837" on="1"/>
        <pt x="273" y="837" on="0"/>
        <pt x="309" y="801" on="0"/>
        <pt x="309" y="771" on="1"/>
        <pt x="309" y="741" on="0"/>
        <pt x="270" y="698" on="0"/>
        <pt x="239" y="698" on="1"/>
      </contour>
      <contour>
        <pt x="444" y="698" on="0"/>
        <pt x="408" y="735" on="0"/>
        <pt x="408" y="765" on="1"/>
        <pt x="408" y="794" on="0"/>
        <pt x="449" y="837" on="0"/>
        <pt x="478" y="837" on="1"/>
        <pt x="506" y="837" on="0"/>
        <pt x="542" y="801" on="0"/>
        <pt x="542" y="771" on="1"/>
        <pt x="542" y="741" on="0"/>
        <pt x="503" y="698" on="0"/>
        <pt x="472" y="698" on="1"/>
      </contour>
      <contour>
        <pt x="255" y="-16" on="0"/>
        <pt x="145" y="43" on="0"/>
        <pt x="99" y="170" on="0"/>
        <pt x="99" y="278" on="1"/>
        <pt x="99" y="579" on="1"/>
        <pt x="18" y="596" on="1"/>
        <pt x="18" y="648" on="1"/>
        <pt x="298" y="648" on="1"/>
        <pt x="298" y="596" on="1"/>
        <pt x="221" y="579" on="1"/>
        <pt x="221" y="278" on="1"/>
        <pt x="221" y="189" on="0"/>
        <pt x="249" y="98" on="0"/>
        <pt x="315" y="63" on="0"/>
        <pt x="378" y="63" on="1"/>
        <pt x="433" y="63" on="0"/>
        <pt x="493" y="103" on="0"/>
        <pt x="518" y="195" on="0"/>
        <pt x="518" y="278" on="1"/>
        <pt x="518" y="578" on="1"/>
        <pt x="439" y="595" on="1"/>
        <pt x="439" y="648" on="1"/>
        <pt x="687" y="648" on="1"/>
        <pt x="687" y="595" on="1"/>
        <pt x="606" y="578" on="1"/>
        <pt x="606" y="278" on="1"/>
        <pt x="606" y="175" on="0"/>
        <pt x="557" y="47" on="0"/>
        <pt x="447" y="-16" on="0"/>
        <pt x="355" y="-16" on="1"/>
      </contour>
    </TTGlyph>
    <TTGlyph name="Ugrave" xMin="18" yMin="-16" xMax="687" yMax="841">
      <contour>
        <pt x="239" y="749" on="1"/>
        <pt x="237" y="765" on="0"/>
        <pt x="237" y="773" on="1"/>
        <pt x="237" y="803" on="0"/>
        <pt x="263" y="841" on="0"/>
        <pt x="286" y="841" on="1"/>
        <pt x="293" y="841" on="0"/>
        <pt x="315" y="830" on="0"/>
        <pt x="330" y="820" on="0"/>
        <pt x="334" y="818" on="1"/>
        <pt x="473" y="719" on="1"/>
        <pt x="449" y="675" on="1"/>
      </contour>
      <contour>
        <pt x="255" y="-16" on="0"/>
        <pt x="145" y="43" on="0"/>
        <pt x="99" y="170" on="0"/>
        <pt x="99" y="278" on="1"/>
        <pt x="99" y="579" on="1"/>
        <pt x="18" y="596" on="1"/>
        <pt x="18" y="648" on="1"/>
        <pt x="298" y="648" on="1"/>
        <pt x="298" y="596" on="1"/>
        <pt x="221" y="579" on="1"/>
        <pt x="221" y="278" on="1"/>
        <pt x="221" y="189" on="0"/>
        <pt x="249" y="98" on="0"/>
        <pt x="315" y="63" on="0"/>
        <pt x="378" y="63" on="1"/>
        <pt x="433" y="63" on="0"/>
        <pt x="493" y="103" on="0"/>
        <pt x="518" y="195" on="0"/>
        <pt x="518" y="278" on="1"/>
        <pt x="518" y="578" on="1"/>
        <pt x="439" y="595" on="1"/>
        <pt x="439" y="648" on="1"/>
        <pt x="687" y="648" on="1"/>
        <pt x="687" y="595" on="1"/>
        <pt x="606" y="578" on="1"/>
        <pt x="606" y="278" on="1"/>
        <pt x="606" y="175" on="0"/>
        <pt x="557" y="47" on="0"/>
        <pt x="447" y="-16" on="0"/>
        <pt x="355" y="-16" on="1"/>
      </contour>
    </TTGlyph>
    <TTGlyph name="Uhorn" xMin="18" yMin="-16" xMax="756" yMax="778">
      <contour>
        <pt x="255" y="-16" on="0"/>
        <pt x="145" y="43" on="0"/>
        <pt x="99" y="170" on="0"/>
        <pt x="99" y="278" on="1"/>
        <pt x="99" y="579" on="1"/>
        <pt x="18" y="596" on="1"/>
        <pt x="18" y="648" on="1"/>
        <pt x="298" y="648" on="1"/>
        <pt x="298" y="596" on="1"/>
        <pt x="221" y="579" on="1"/>
        <pt x="221" y="278" on="1"/>
        <pt x="221" y="189" on="0"/>
        <pt x="249" y="98" on="0"/>
        <pt x="315" y="63" on="0"/>
        <pt x="378" y="63" on="1"/>
        <pt x="432" y="63" on="0"/>
        <pt x="493" y="104" on="0"/>
        <pt x="519" y="196" on="0"/>
        <pt x="519" y="278" on="1"/>
        <pt x="519" y="578" on="1"/>
        <pt x="439" y="595" on="1"/>
        <pt x="439" y="648" on="1"/>
        <pt x="607" y="648" on="1"/>
        <pt x="648" y="648" on="0"/>
        <pt x="673" y="663" on="0"/>
        <pt x="673" y="687" on="1"/>
        <pt x="673" y="698" on="0"/>
        <pt x="665" y="711" on="0"/>
        <pt x="657" y="718" on="1"/>
        <pt x="657" y="733" on="1"/>
        <pt x="723" y="778" on="1"/>
        <pt x="737" y="767" on="0"/>
        <pt x="756" y="743" on="0"/>
        <pt x="756" y="717" on="1"/>
        <pt x="756" y="684" on="0"/>
        <pt x="688" y="608" on="0"/>
        <pt x="606" y="579" on="1"/>
        <pt x="606" y="278" on="1"/>
        <pt x="606" y="173" on="0"/>
        <pt x="561" y="46" on="0"/>
        <pt x="451" y="-16" on="0"/>
        <pt x="355" y="-16" on="1"/>
      </contour>
    </TTGlyph>
    <TTGlyph name="Uhungarumlaut" xMin="18" yMin="-16" xMax="687" yMax="849">
      <contour>
        <pt x="192" y="709" on="1"/>
        <pt x="284" y="818" on="1"/>
        <pt x="297" y="834" on="0"/>
        <pt x="319" y="849" on="0"/>
        <pt x="332" y="849" on="1"/>
        <pt x="349" y="849" on="0"/>
        <pt x="379" y="813" on="0"/>
        <pt x="384" y="781" on="1"/>
        <pt x="224" y="673" on="1"/>
      </contour>
      <contour>
        <pt x="380" y="709" on="1"/>
        <pt x="472" y="818" on="1"/>
        <pt x="485" y="834" on="0"/>
        <pt x="507" y="849" on="0"/>
        <pt x="520" y="849" on="1"/>
        <pt x="537" y="849" on="0"/>
        <pt x="567" y="813" on="0"/>
        <pt x="572" y="781" on="1"/>
        <pt x="412" y="673" on="1"/>
      </contour>
      <contour>
        <pt x="255" y="-16" on="0"/>
        <pt x="145" y="43" on="0"/>
        <pt x="99" y="170" on="0"/>
        <pt x="99" y="278" on="1"/>
        <pt x="99" y="579" on="1"/>
        <pt x="18" y="596" on="1"/>
        <pt x="18" y="648" on="1"/>
        <pt x="298" y="648" on="1"/>
        <pt x="298" y="596" on="1"/>
        <pt x="221" y="579" on="1"/>
        <pt x="221" y="278" on="1"/>
        <pt x="221" y="189" on="0"/>
        <pt x="249" y="98" on="0"/>
        <pt x="315" y="63" on="0"/>
        <pt x="378" y="63" on="1"/>
        <pt x="433" y="63" on="0"/>
        <pt x="493" y="103" on="0"/>
        <pt x="517" y="195" on="0"/>
        <pt x="517" y="278" on="1"/>
        <pt x="519" y="578" on="1"/>
        <pt x="439" y="595" on="1"/>
        <pt x="439" y="648" on="1"/>
        <pt x="687" y="648" on="1"/>
        <pt x="687" y="595" on="1"/>
        <pt x="606" y="578" on="1"/>
        <pt x="606" y="278" on="1"/>
        <pt x="606" y="175" on="0"/>
        <pt x="557" y="47" on="0"/>
        <pt x="447" y="-16" on="0"/>
        <pt x="355" y="-16" on="1"/>
      </contour>
    </TTGlyph>
    <TTGlyph name="Umacron" xMin="18" yMin="-16" xMax="687" yMax="797">
      <contour>
        <pt x="542" y="797" on="1"/>
        <pt x="530" y="723" on="1"/>
        <pt x="189" y="723" on="1"/>
        <pt x="201" y="797" on="1"/>
      </contour>
      <contour>
        <pt x="18" y="596" on="1"/>
        <pt x="18" y="648" on="1"/>
        <pt x="298" y="648" on="1"/>
        <pt x="298" y="596" on="1"/>
        <pt x="221" y="579" on="1"/>
        <pt x="221" y="278" on="1"/>
        <pt x="221" y="189" on="0"/>
        <pt x="249" y="98" on="0"/>
        <pt x="315" y="63" on="0"/>
        <pt x="378" y="63" on="1"/>
        <pt x="433" y="63" on="0"/>
        <pt x="493" y="103" on="0"/>
        <pt x="517" y="195" on="0"/>
        <pt x="517" y="278" on="1"/>
        <pt x="519" y="578" on="1"/>
        <pt x="439" y="595" on="1"/>
        <pt x="439" y="648" on="1"/>
        <pt x="687" y="648" on="1"/>
        <pt x="687" y="595" on="1"/>
        <pt x="606" y="578" on="1"/>
        <pt x="606" y="278" on="1"/>
        <pt x="606" y="175" on="0"/>
        <pt x="557" y="47" on="0"/>
        <pt x="447" y="-16" on="0"/>
        <pt x="355" y="-16" on="1"/>
        <pt x="255" y="-16" on="0"/>
        <pt x="145" y="43" on="0"/>
        <pt x="99" y="170" on="0"/>
        <pt x="99" y="278" on="1"/>
        <pt x="99" y="579" on="1"/>
      </contour>
    </TTGlyph>
    <TTGlyph name="Uogonek" xMin="18" yMin="-187" xMax="687" yMax="648">
      <contour>
        <pt x="400" y="-187" on="0"/>
        <pt x="350" y="-149" on="0"/>
        <pt x="350" y="-113" on="1"/>
        <pt x="350" y="-56" on="0"/>
        <pt x="406" y="-13" on="1"/>
        <pt x="382" y="-16" on="0"/>
        <pt x="355" y="-16" on="1"/>
        <pt x="255" y="-16" on="0"/>
        <pt x="145" y="43" on="0"/>
        <pt x="99" y="170" on="0"/>
        <pt x="99" y="278" on="1"/>
        <pt x="99" y="579" on="1"/>
        <pt x="18" y="596" on="1"/>
        <pt x="18" y="648" on="1"/>
        <pt x="298" y="648" on="1"/>
        <pt x="298" y="596" on="1"/>
        <pt x="221" y="579" on="1"/>
        <pt x="221" y="278" on="1"/>
        <pt x="221" y="189" on="0"/>
        <pt x="249" y="98" on="0"/>
        <pt x="315" y="63" on="0"/>
        <pt x="378" y="63" on="1"/>
        <pt x="433" y="63" on="0"/>
        <pt x="493" y="103" on="0"/>
        <pt x="517" y="195" on="0"/>
        <pt x="517" y="278" on="1"/>
        <pt x="519" y="578" on="1"/>
        <pt x="439" y="595" on="1"/>
        <pt x="439" y="648" on="1"/>
        <pt x="687" y="648" on="1"/>
        <pt x="687" y="595" on="1"/>
        <pt x="606" y="578" on="1"/>
        <pt x="606" y="278" on="1"/>
        <pt x="606" y="174" on="0"/>
        <pt x="556" y="45" on="0"/>
        <pt x="498" y="13" on="1"/>
        <pt x="469" y="-5" on="0"/>
        <pt x="433" y="-61" on="0"/>
        <pt x="433" y="-82" on="1"/>
        <pt x="433" y="-119" on="0"/>
        <pt x="471" y="-119" on="1"/>
        <pt x="490" y="-119" on="0"/>
        <pt x="525" y="-99" on="1"/>
        <pt x="546" y="-136" on="1"/>
        <pt x="529" y="-157" on="0"/>
        <pt x="470" y="-187" on="0"/>
        <pt x="442" y="-187" on="1"/>
      </contour>
    </TTGlyph>
    <TTGlyph name="Uring" xMin="18" yMin="-16" xMax="687" yMax="825">
      <contour>
        <pt x="276" y="773" on="0"/>
        <pt x="329" y="825" on="0"/>
        <pt x="378" y="825" on="1"/>
        <pt x="425" y="825" on="0"/>
        <pt x="473" y="778" on="0"/>
        <pt x="473" y="739" on="1"/>
        <pt x="473" y="699" on="0"/>
        <pt x="419" y="648" on="0"/>
        <pt x="371" y="648" on="1"/>
        <pt x="323" y="648" on="0"/>
        <pt x="276" y="693" on="0"/>
        <pt x="276" y="733" on="1"/>
      </contour>
      <contour>
        <pt x="395" y="696" on="0"/>
        <pt x="407" y="712" on="0"/>
        <pt x="407" y="733" on="1"/>
        <pt x="407" y="759" on="0"/>
        <pt x="396" y="776" on="0"/>
        <pt x="374" y="776" on="1"/>
        <pt x="355" y="776" on="0"/>
        <pt x="342" y="760" on="0"/>
        <pt x="342" y="737" on="1"/>
        <pt x="342" y="712" on="0"/>
        <pt x="355" y="696" on="0"/>
        <pt x="376" y="696" on="1"/>
      </contour>
      <contour>
        <pt x="18" y="596" on="1"/>
        <pt x="18" y="648" on="1"/>
        <pt x="298" y="648" on="1"/>
        <pt x="298" y="596" on="1"/>
        <pt x="221" y="579" on="1"/>
        <pt x="221" y="278" on="1"/>
        <pt x="221" y="189" on="0"/>
        <pt x="249" y="98" on="0"/>
        <pt x="315" y="63" on="0"/>
        <pt x="378" y="63" on="1"/>
        <pt x="433" y="63" on="0"/>
        <pt x="493" y="103" on="0"/>
        <pt x="517" y="195" on="0"/>
        <pt x="517" y="278" on="1"/>
        <pt x="519" y="578" on="1"/>
        <pt x="439" y="595" on="1"/>
        <pt x="439" y="648" on="1"/>
        <pt x="687" y="648" on="1"/>
        <pt x="687" y="595" on="1"/>
        <pt x="606" y="578" on="1"/>
        <pt x="606" y="278" on="1"/>
        <pt x="606" y="175" on="0"/>
        <pt x="557" y="47" on="0"/>
        <pt x="447" y="-16" on="0"/>
        <pt x="355" y="-16" on="1"/>
        <pt x="255" y="-16" on="0"/>
        <pt x="145" y="43" on="0"/>
        <pt x="99" y="170" on="0"/>
        <pt x="99" y="278" on="1"/>
        <pt x="99" y="579" on="1"/>
      </contour>
    </TTGlyph>
    <TTGlyph name="Utilde" xMin="18" yMin="-16" xMax="687" yMax="830">
      <component glyphName=".ttfautohint" x="18" y="0" flags="0x0"/>
      <component glyphName="U" x="0" y="0" flags="0x0"/>
      <component glyphName="tildecomb.case" x="538" y="0" flags="0x0"/>
    </TTGlyph>
    <TTGlyph name="V" xMin="-12" yMin="-9" xMax="633" yMax="648">
      <contour>
        <pt x="54" y="580" on="1"/>
        <pt x="-12" y="594" on="1"/>
        <pt x="-12" y="648" on="1"/>
        <pt x="273" y="648" on="1"/>
        <pt x="273" y="594" on="1"/>
        <pt x="196" y="580" on="1"/>
        <pt x="196" y="570" on="1"/>
        <pt x="328" y="167" on="1"/>
        <pt x="334" y="137" on="1"/>
        <pt x="342" y="151" on="1"/>
        <pt x="397" y="317" on="1"/>
        <pt x="481" y="580" on="1"/>
        <pt x="399" y="594" on="1"/>
        <pt x="399" y="648" on="1"/>
        <pt x="633" y="648" on="1"/>
        <pt x="633" y="594" on="1"/>
        <pt x="569" y="580" on="1"/>
        <pt x="363" y="-9" on="1"/>
        <pt x="275" y="-9" on="1"/>
      </contour>
    </TTGlyph>
    <TTGlyph name="W" xMin="-8" yMin="-9" xMax="1000" yMax="648">
      <contour>
        <pt x="56" y="580" on="1"/>
        <pt x="-8" y="594" on="1"/>
        <pt x="-8" y="648" on="1"/>
        <pt x="271" y="648" on="1"/>
        <pt x="271" y="594" on="1"/>
        <pt x="191" y="580" on="1"/>
        <pt x="194" y="563" on="1"/>
        <pt x="297" y="166" on="1"/>
        <pt x="302" y="139" on="1"/>
        <pt x="307" y="139" on="1"/>
        <pt x="313" y="166" on="1"/>
        <pt x="451" y="532" on="1"/>
        <pt x="433" y="580" on="1"/>
        <pt x="364" y="594" on="1"/>
        <pt x="364" y="648" on="1"/>
        <pt x="647" y="648" on="1"/>
        <pt x="647" y="594" on="1"/>
        <pt x="568" y="580" on="1"/>
        <pt x="571" y="566" on="1"/>
        <pt x="722" y="166" on="1"/>
        <pt x="728" y="140" on="1"/>
        <pt x="733" y="140" on="1"/>
        <pt x="739" y="166" on="1"/>
        <pt x="842" y="565" on="1"/>
        <pt x="844" y="580" on="1"/>
        <pt x="760" y="594" on="1"/>
        <pt x="760" y="648" on="1"/>
        <pt x="1000" y="648" on="1"/>
        <pt x="1000" y="594" on="1"/>
        <pt x="938" y="580" on="1"/>
        <pt x="767" y="-9" on="1"/>
        <pt x="664" y="-9" on="1"/>
        <pt x="505" y="391" on="1"/>
        <pt x="501" y="412" on="1"/>
        <pt x="495" y="412" on="1"/>
        <pt x="491" y="390" on="1"/>
        <pt x="340" y="-9" on="1"/>
        <pt x="237" y="-9" on="1"/>
      </contour>
    </TTGlyph>
    <TTGlyph name="Wacute" xMin="-8" yMin="-9" xMax="1000" yMax="841">
      <component glyphName=".ttfautohint" x="0" y="0" flags="0x0"/>
      <component glyphName="W" x="0" y="0" flags="0x0"/>
      <component glyphName="acutecomb.case" x="661" y="0" flags="0x0"/>
    </TTGlyph>
    <TTGlyph name="Wcircumflex" xMin="-8" yMin="-9" xMax="1000" yMax="840">
      <component glyphName=".ttfautohint" x="0" y="0" flags="0x0"/>
      <component glyphName="W" x="0" y="0" flags="0x0"/>
      <component glyphName="uni0302.case" x="659" y="0" flags="0x0"/>
    </TTGlyph>
    <TTGlyph name="Wdieresis" xMin="-8" yMin="-9" xMax="1000" yMax="831">
      <component glyphName=".ttfautohint" x="0" y="0" flags="0x0"/>
      <component glyphName="W" x="0" y="0" flags="0x0"/>
      <component glyphName="uni0308.case" x="676" y="0" flags="0x0"/>
    </TTGlyph>
    <TTGlyph name="Wgrave" xMin="-8" yMin="-9" xMax="1000" yMax="841">
      <component glyphName=".ttfautohint" x="0" y="0" flags="0x0"/>
      <component glyphName="W" x="0" y="0" flags="0x0"/>
      <component glyphName="gravecomb.case" x="567" y="0" flags="0x0"/>
    </TTGlyph>
    <TTGlyph name="X" xMin="0" yMin="0" xMax="632" yMax="648">
      <contour>
        <pt x="76" y="68" on="1"/>
        <pt x="252" y="317" on="1"/>
        <pt x="76" y="578" on="1"/>
        <pt x="7" y="596" on="1"/>
        <pt x="7" y="648" on="1"/>
        <pt x="294" y="648" on="1"/>
        <pt x="294" y="596" on="1"/>
        <pt x="229" y="581" on="1"/>
        <pt x="229" y="565" on="1"/>
        <pt x="334" y="409" on="1"/>
        <pt x="452" y="570" on="1"/>
        <pt x="452" y="582" on="1"/>
        <pt x="384" y="597" on="1"/>
        <pt x="384" y="648" on="1"/>
        <pt x="620" y="648" on="1"/>
        <pt x="620" y="597" on="1"/>
        <pt x="550" y="580" on="1"/>
        <pt x="376" y="345" on="1"/>
        <pt x="560" y="68" on="1"/>
        <pt x="632" y="52" on="1"/>
        <pt x="632" y="0" on="1"/>
        <pt x="347" y="0" on="1"/>
        <pt x="347" y="52" on="1"/>
        <pt x="413" y="67" on="1"/>
        <pt x="413" y="79" on="1"/>
        <pt x="295" y="252" on="1"/>
        <pt x="172" y="79" on="1"/>
        <pt x="172" y="65" on="1"/>
        <pt x="232" y="51" on="1"/>
        <pt x="232" y="0" on="1"/>
        <pt x="0" y="0" on="1"/>
        <pt x="0" y="52" on="1"/>
      </contour>
    </TTGlyph>
    <TTGlyph name="Y" xMin="-7" yMin="0" xMax="620" yMax="648">
      <contour>
        <pt x="249" y="69" on="1"/>
        <pt x="249" y="243" on="1"/>
        <pt x="57" y="581" on="1"/>
        <pt x="-7" y="597" on="1"/>
        <pt x="-7" y="648" on="1"/>
        <pt x="257" y="648" on="1"/>
        <pt x="257" y="597" on="1"/>
        <pt x="189" y="582" on="1"/>
        <pt x="189" y="566" on="1"/>
        <pt x="319" y="320" on="1"/>
        <pt x="330" y="320" on="1"/>
        <pt x="460" y="570" on="1"/>
        <pt x="460" y="581" on="1"/>
        <pt x="386" y="597" on="1"/>
        <pt x="386" y="648" on="1"/>
        <pt x="620" y="648" on="1"/>
        <pt x="620" y="597" on="1"/>
        <pt x="552" y="580" on="1"/>
        <pt x="371" y="247" on="1"/>
        <pt x="371" y="69" on="1"/>
        <pt x="452" y="52" on="1"/>
        <pt x="452" y="0" on="1"/>
        <pt x="168" y="0" on="1"/>
        <pt x="168" y="52" on="1"/>
      </contour>
    </TTGlyph>
    <TTGlyph name="Y.loclGUA" xMin="18" yMin="-17" xMax="676" yMax="648">
      <contour>
        <pt x="676" y="648" on="1"/>
        <pt x="676" y="596" on="1"/>
        <pt x="599" y="579" on="1"/>
        <pt x="599" y="250" on="1"/>
        <pt x="599" y="122" on="0"/>
        <pt x="477" y="-17" on="0"/>
        <pt x="330" y="-17" on="1"/>
        <pt x="262" y="-17" on="0"/>
        <pt x="145" y="12" on="0"/>
        <pt x="103" y="35" on="1"/>
        <pt x="103" y="200" on="1"/>
        <pt x="165" y="200" on="1"/>
        <pt x="192" y="83" on="1"/>
        <pt x="250" y="55" on="0"/>
        <pt x="322" y="55" on="1"/>
        <pt x="409" y="55" on="0"/>
        <pt x="475" y="146" on="0"/>
        <pt x="477" y="238" on="1"/>
        <pt x="413" y="209" on="0"/>
        <pt x="341" y="209" on="1"/>
        <pt x="250" y="209" on="0"/>
        <pt x="144" y="267" on="0"/>
        <pt x="99" y="384" on="0"/>
        <pt x="99" y="476" on="1"/>
        <pt x="99" y="579" on="1"/>
        <pt x="18" y="596" on="1"/>
        <pt x="18" y="648" on="1"/>
        <pt x="298" y="648" on="1"/>
        <pt x="298" y="596" on="1"/>
        <pt x="221" y="579" on="1"/>
        <pt x="221" y="484" on="1"/>
        <pt x="221" y="418" on="0"/>
        <pt x="243" y="334" on="0"/>
        <pt x="301" y="288" on="0"/>
        <pt x="356" y="288" on="1"/>
        <pt x="419" y="288" on="0"/>
        <pt x="477" y="327" on="1"/>
        <pt x="477" y="578" on="1"/>
        <pt x="391" y="596" on="1"/>
        <pt x="391" y="648" on="1"/>
      </contour>
    </TTGlyph>
    <TTGlyph name="Yacute" xMin="-9" yMin="0" xMax="618" yMax="841">
      <contour>
        <pt x="208" y="719" on="1"/>
        <pt x="347" y="818" on="1"/>
        <pt x="360" y="826" on="0"/>
        <pt x="386" y="841" on="0"/>
        <pt x="395" y="841" on="1"/>
        <pt x="419" y="841" on="0"/>
        <pt x="444" y="802" on="0"/>
        <pt x="444" y="771" on="1"/>
        <pt x="444" y="765" on="0"/>
        <pt x="442" y="749" on="1"/>
        <pt x="232" y="675" on="1"/>
      </contour>
      <contour>
        <pt x="167" y="52" on="1"/>
        <pt x="247" y="69" on="1"/>
        <pt x="247" y="243" on="1"/>
        <pt x="55" y="581" on="1"/>
        <pt x="-9" y="597" on="1"/>
        <pt x="-9" y="648" on="1"/>
        <pt x="255" y="648" on="1"/>
        <pt x="255" y="597" on="1"/>
        <pt x="188" y="582" on="1"/>
        <pt x="188" y="566" on="1"/>
        <pt x="318" y="320" on="1"/>
        <pt x="329" y="320" on="1"/>
        <pt x="458" y="570" on="1"/>
        <pt x="458" y="581" on="1"/>
        <pt x="384" y="597" on="1"/>
        <pt x="384" y="648" on="1"/>
        <pt x="618" y="648" on="1"/>
        <pt x="618" y="597" on="1"/>
        <pt x="551" y="580" on="1"/>
        <pt x="370" y="247" on="1"/>
        <pt x="370" y="69" on="1"/>
        <pt x="450" y="52" on="1"/>
        <pt x="450" y="0" on="1"/>
        <pt x="167" y="0" on="1"/>
      </contour>
    </TTGlyph>
    <TTGlyph name="Yacute.loclGUA" xMin="18" yMin="-17" xMax="676" yMax="841">
      <component glyphName=".ttfautohint" x="18" y="0" flags="0x0"/>
      <component glyphName="Y.loclGUA" x="0" y="0" flags="0x0"/>
      <component glyphName="acutecomb.case" x="519" y="0" flags="0x0"/>
    </TTGlyph>
    <TTGlyph name="Ycircumflex" xMin="-7" yMin="0" xMax="620" yMax="840">
      <component glyphName=".ttfautohint" x="0" y="0" flags="0x0"/>
      <component glyphName="Y" x="0" y="0" flags="0x0"/>
      <component glyphName="uni0302.case" x="488" y="0" flags="0x0"/>
    </TTGlyph>
    <TTGlyph name="Ycircumflex.loclGUA" xMin="18" yMin="-17" xMax="676" yMax="840">
      <component glyphName=".ttfautohint" x="18" y="0" flags="0x0"/>
      <component glyphName="Y.loclGUA" x="0" y="0" flags="0x0"/>
      <component glyphName="uni0302.case" x="517" y="0" flags="0x0"/>
    </TTGlyph>
    <TTGlyph name="Ydieresis" xMin="-9" yMin="0" xMax="618" yMax="834">
      <contour>
        <pt x="162" y="695" on="0"/>
        <pt x="127" y="732" on="0"/>
        <pt x="127" y="762" on="1"/>
        <pt x="127" y="791" on="0"/>
        <pt x="167" y="834" on="0"/>
        <pt x="196" y="834" on="1"/>
        <pt x="224" y="834" on="0"/>
        <pt x="260" y="798" on="0"/>
        <pt x="260" y="768" on="1"/>
        <pt x="260" y="738" on="0"/>
        <pt x="221" y="695" on="0"/>
        <pt x="190" y="695" on="1"/>
      </contour>
      <contour>
        <pt x="395" y="695" on="0"/>
        <pt x="359" y="732" on="0"/>
        <pt x="359" y="762" on="1"/>
        <pt x="359" y="791" on="0"/>
        <pt x="400" y="834" on="0"/>
        <pt x="429" y="834" on="1"/>
        <pt x="457" y="834" on="0"/>
        <pt x="493" y="798" on="0"/>
        <pt x="493" y="768" on="1"/>
        <pt x="493" y="738" on="0"/>
        <pt x="454" y="695" on="0"/>
        <pt x="423" y="695" on="1"/>
      </contour>
      <contour>
        <pt x="247" y="69" on="1"/>
        <pt x="247" y="243" on="1"/>
        <pt x="55" y="581" on="1"/>
        <pt x="-9" y="597" on="1"/>
        <pt x="-9" y="648" on="1"/>
        <pt x="255" y="648" on="1"/>
        <pt x="255" y="597" on="1"/>
        <pt x="188" y="582" on="1"/>
        <pt x="188" y="566" on="1"/>
        <pt x="318" y="320" on="1"/>
        <pt x="329" y="320" on="1"/>
        <pt x="458" y="570" on="1"/>
        <pt x="458" y="581" on="1"/>
        <pt x="384" y="597" on="1"/>
        <pt x="384" y="648" on="1"/>
        <pt x="618" y="648" on="1"/>
        <pt x="618" y="597" on="1"/>
        <pt x="551" y="580" on="1"/>
        <pt x="370" y="247" on="1"/>
        <pt x="370" y="69" on="1"/>
        <pt x="450" y="52" on="1"/>
        <pt x="450" y="0" on="1"/>
        <pt x="167" y="0" on="1"/>
        <pt x="167" y="52" on="1"/>
      </contour>
    </TTGlyph>
    <TTGlyph name="Ydieresis.loclGUA" xMin="18" yMin="-17" xMax="676" yMax="831">
      <component glyphName=".ttfautohint" x="18" y="0" flags="0x0"/>
      <component glyphName="Y.loclGUA" x="0" y="0" flags="0x0"/>
      <component glyphName="uni0308.case" x="534" y="0" flags="0x0"/>
    </TTGlyph>
    <TTGlyph name="Ygrave" xMin="-7" yMin="0" xMax="620" yMax="841">
      <component glyphName=".ttfautohint" x="0" y="0" flags="0x0"/>
      <component glyphName="Y" x="0" y="0" flags="0x0"/>
      <component glyphName="gravecomb.case" x="396" y="0" flags="0x0"/>
    </TTGlyph>
    <TTGlyph name="Ygrave.loclGUA" xMin="18" yMin="-17" xMax="676" yMax="841">
      <component glyphName=".ttfautohint" x="18" y="0" flags="0x0"/>
      <component glyphName="Y.loclGUA" x="0" y="0" flags="0x0"/>
      <component glyphName="gravecomb.case" x="425" y="0" flags="0x0"/>
    </TTGlyph>
    <TTGlyph name="Z" xMin="16" yMin="0" xMax="517" yMax="648">
      <contour>
        <pt x="358" y="563" on="1"/>
        <pt x="358" y="578" on="1"/>
        <pt x="111" y="578" on="1"/>
        <pt x="88" y="475" on="1"/>
        <pt x="25" y="475" on="1"/>
        <pt x="25" y="648" on="1"/>
        <pt x="510" y="648" on="1"/>
        <pt x="510" y="576" on="1"/>
        <pt x="164" y="81" on="1"/>
        <pt x="164" y="70" on="1"/>
        <pt x="431" y="70" on="1"/>
        <pt x="455" y="173" on="1"/>
        <pt x="517" y="173" on="1"/>
        <pt x="517" y="0" on="1"/>
        <pt x="16" y="0" on="1"/>
        <pt x="16" y="70" on="1"/>
      </contour>
    </TTGlyph>
    <TTGlyph name="Zacute" xMin="16" yMin="0" xMax="518" yMax="841">
      <contour>
        <pt x="156" y="719" on="1"/>
        <pt x="295" y="818" on="1"/>
        <pt x="299" y="820" on="0"/>
        <pt x="321" y="834" on="0"/>
        <pt x="337" y="841" on="0"/>
        <pt x="343" y="841" on="1"/>
        <pt x="367" y="841" on="0"/>
        <pt x="392" y="802" on="0"/>
        <pt x="392" y="771" on="1"/>
        <pt x="392" y="765" on="0"/>
        <pt x="390" y="749" on="1"/>
        <pt x="180" y="675" on="1"/>
      </contour>
      <contour>
        <pt x="16" y="70" on="1"/>
        <pt x="359" y="563" on="1"/>
        <pt x="359" y="578" on="1"/>
        <pt x="111" y="578" on="1"/>
        <pt x="88" y="475" on="1"/>
        <pt x="26" y="475" on="1"/>
        <pt x="26" y="648" on="1"/>
        <pt x="511" y="648" on="1"/>
        <pt x="511" y="576" on="1"/>
        <pt x="165" y="81" on="1"/>
        <pt x="165" y="70" on="1"/>
        <pt x="431" y="70" on="1"/>
        <pt x="455" y="173" on="1"/>
        <pt x="518" y="173" on="1"/>
        <pt x="518" y="0" on="1"/>
        <pt x="16" y="0" on="1"/>
      </contour>
    </TTGlyph>
    <TTGlyph name="Zacute.loclPLK" xMin="16" yMin="0" xMax="517" yMax="869">
      <contour>
        <pt x="234" y="705" on="1"/>
        <pt x="305" y="825" on="1"/>
        <pt x="308" y="829" on="0"/>
        <pt x="326" y="857" on="0"/>
        <pt x="345" y="869" on="0"/>
        <pt x="356" y="869" on="1"/>
        <pt x="399" y="869" on="0"/>
        <pt x="420" y="801" on="1"/>
        <pt x="279" y="667" on="1"/>
      </contour>
      <contour>
        <pt x="358" y="563" on="1"/>
        <pt x="358" y="578" on="1"/>
        <pt x="111" y="578" on="1"/>
        <pt x="88" y="475" on="1"/>
        <pt x="25" y="475" on="1"/>
        <pt x="25" y="648" on="1"/>
        <pt x="510" y="648" on="1"/>
        <pt x="510" y="576" on="1"/>
        <pt x="164" y="81" on="1"/>
        <pt x="164" y="70" on="1"/>
        <pt x="431" y="70" on="1"/>
        <pt x="455" y="173" on="1"/>
        <pt x="517" y="173" on="1"/>
        <pt x="517" y="0" on="1"/>
        <pt x="16" y="0" on="1"/>
        <pt x="16" y="70" on="1"/>
      </contour>
    </TTGlyph>
    <TTGlyph name="Zcaron" xMin="16" yMin="0" xMax="518" yMax="858">
      <contour>
        <pt x="271" y="786" on="1"/>
        <pt x="391" y="857" on="1"/>
        <pt x="421" y="817" on="1"/>
        <pt x="330" y="733" on="1"/>
        <pt x="299" y="706" on="0"/>
        <pt x="273" y="686" on="0"/>
        <pt x="265" y="686" on="1"/>
        <pt x="256" y="686" on="0"/>
        <pt x="231" y="705" on="0"/>
        <pt x="199" y="733" on="1"/>
        <pt x="114" y="812" on="1"/>
        <pt x="154" y="858" on="1"/>
      </contour>
      <contour>
        <pt x="359" y="563" on="1"/>
        <pt x="359" y="578" on="1"/>
        <pt x="111" y="578" on="1"/>
        <pt x="88" y="475" on="1"/>
        <pt x="26" y="475" on="1"/>
        <pt x="26" y="648" on="1"/>
        <pt x="511" y="648" on="1"/>
        <pt x="511" y="576" on="1"/>
        <pt x="165" y="81" on="1"/>
        <pt x="165" y="70" on="1"/>
        <pt x="431" y="70" on="1"/>
        <pt x="455" y="173" on="1"/>
        <pt x="518" y="173" on="1"/>
        <pt x="518" y="0" on="1"/>
        <pt x="16" y="0" on="1"/>
        <pt x="16" y="70" on="1"/>
      </contour>
    </TTGlyph>
    <TTGlyph name="Zdotaccent" xMin="16" yMin="0" xMax="518" yMax="842">
      <contour>
        <pt x="231" y="690" on="0"/>
        <pt x="192" y="731" on="0"/>
        <pt x="192" y="763" on="1"/>
        <pt x="192" y="795" on="0"/>
        <pt x="237" y="842" on="0"/>
        <pt x="269" y="842" on="1"/>
        <pt x="300" y="842" on="0"/>
        <pt x="339" y="803" on="0"/>
        <pt x="339" y="770" on="1"/>
        <pt x="339" y="737" on="0"/>
        <pt x="296" y="690" on="0"/>
        <pt x="262" y="690" on="1"/>
      </contour>
      <contour>
        <pt x="359" y="563" on="1"/>
        <pt x="359" y="578" on="1"/>
        <pt x="111" y="578" on="1"/>
        <pt x="88" y="475" on="1"/>
        <pt x="26" y="475" on="1"/>
        <pt x="26" y="648" on="1"/>
        <pt x="511" y="648" on="1"/>
        <pt x="511" y="576" on="1"/>
        <pt x="165" y="81" on="1"/>
        <pt x="165" y="70" on="1"/>
        <pt x="431" y="70" on="1"/>
        <pt x="455" y="173" on="1"/>
        <pt x="518" y="173" on="1"/>
        <pt x="518" y="0" on="1"/>
        <pt x="16" y="0" on="1"/>
        <pt x="16" y="70" on="1"/>
      </contour>
    </TTGlyph>
    <TTGlyph name="a" xMin="35" yMin="-10" xMax="493" yMax="507">
      <contour>
        <pt x="106" y="-10" on="0"/>
        <pt x="35" y="62" on="0"/>
        <pt x="35" y="118" on="1"/>
        <pt x="35" y="181" on="0"/>
        <pt x="126" y="254" on="0"/>
        <pt x="206" y="267" on="1"/>
        <pt x="307" y="283" on="1"/>
        <pt x="307" y="352" on="1"/>
        <pt x="307" y="392" on="0"/>
        <pt x="270" y="431" on="0"/>
        <pt x="224" y="431" on="1"/>
        <pt x="202" y="431" on="0"/>
        <pt x="176" y="426" on="0"/>
        <pt x="173" y="425" on="1"/>
        <pt x="158" y="334" on="1"/>
        <pt x="155" y="332" on="0"/>
        <pt x="129" y="325" on="0"/>
        <pt x="113" y="325" on="1"/>
        <pt x="52" y="325" on="0"/>
        <pt x="52" y="379" on="1"/>
        <pt x="52" y="419" on="0"/>
        <pt x="123" y="477" on="0"/>
        <pt x="222" y="507" on="0"/>
        <pt x="263" y="507" on="1"/>
        <pt x="421" y="507" on="0"/>
        <pt x="421" y="379" on="1"/>
        <pt x="421" y="76" on="1"/>
        <pt x="493" y="62" on="1"/>
        <pt x="493" y="16" on="1"/>
        <pt x="489" y="14" on="0"/>
        <pt x="458" y="4" on="0"/>
        <pt x="410" y="-5" on="0"/>
        <pt x="386" y="-5" on="1"/>
        <pt x="352" y="-5" on="0"/>
        <pt x="323" y="18" on="0"/>
        <pt x="317" y="41" on="1"/>
        <pt x="310" y="41" on="1"/>
        <pt x="293" y="24" on="0"/>
        <pt x="224" y="-10" on="0"/>
        <pt x="179" y="-10" on="1"/>
      </contour>
      <contour>
        <pt x="259" y="68" on="0"/>
        <pt x="298" y="79" on="0"/>
        <pt x="307" y="85" on="1"/>
        <pt x="307" y="221" on="1"/>
        <pt x="221" y="215" on="0"/>
        <pt x="157" y="173" on="0"/>
        <pt x="157" y="134" on="1"/>
        <pt x="157" y="103" on="0"/>
        <pt x="196" y="68" on="0"/>
        <pt x="237" y="68" on="1"/>
      </contour>
    </TTGlyph>
    <TTGlyph name="aacute" xMin="33" yMin="-10" xMax="491" yMax="726">
      <contour>
        <pt x="152" y="573" on="1"/>
        <pt x="253" y="690" on="1"/>
        <pt x="267" y="707" on="0"/>
        <pt x="290" y="726" on="0"/>
        <pt x="302" y="726" on="1"/>
        <pt x="321" y="726" on="0"/>
        <pt x="357" y="683" on="0"/>
        <pt x="360" y="648" on="1"/>
        <pt x="185" y="535" on="1"/>
      </contour>
      <contour>
        <pt x="105" y="-10" on="0"/>
        <pt x="33" y="62" on="0"/>
        <pt x="33" y="118" on="1"/>
        <pt x="33" y="181" on="0"/>
        <pt x="124" y="254" on="0"/>
        <pt x="204" y="267" on="1"/>
        <pt x="305" y="283" on="1"/>
        <pt x="305" y="352" on="1"/>
        <pt x="305" y="392" on="0"/>
        <pt x="268" y="431" on="0"/>
        <pt x="223" y="431" on="1"/>
        <pt x="201" y="431" on="0"/>
        <pt x="174" y="426" on="0"/>
        <pt x="171" y="425" on="1"/>
        <pt x="156" y="334" on="1"/>
        <pt x="153" y="332" on="0"/>
        <pt x="127" y="325" on="0"/>
        <pt x="111" y="325" on="1"/>
        <pt x="50" y="325" on="0"/>
        <pt x="50" y="379" on="1"/>
        <pt x="50" y="419" on="0"/>
        <pt x="121" y="477" on="0"/>
        <pt x="220" y="507" on="0"/>
        <pt x="261" y="507" on="1"/>
        <pt x="419" y="507" on="0"/>
        <pt x="419" y="379" on="1"/>
        <pt x="419" y="76" on="1"/>
        <pt x="491" y="62" on="1"/>
        <pt x="491" y="16" on="1"/>
        <pt x="487" y="14" on="0"/>
        <pt x="456" y="4" on="0"/>
        <pt x="408" y="-5" on="0"/>
        <pt x="384" y="-5" on="1"/>
        <pt x="350" y="-5" on="0"/>
        <pt x="321" y="18" on="0"/>
        <pt x="315" y="41" on="1"/>
        <pt x="308" y="41" on="1"/>
        <pt x="291" y="24" on="0"/>
        <pt x="222" y="-10" on="0"/>
        <pt x="178" y="-10" on="1"/>
      </contour>
      <contour>
        <pt x="257" y="68" on="0"/>
        <pt x="296" y="79" on="0"/>
        <pt x="305" y="85" on="1"/>
        <pt x="305" y="221" on="1"/>
        <pt x="219" y="215" on="0"/>
        <pt x="155" y="173" on="0"/>
        <pt x="155" y="134" on="1"/>
        <pt x="155" y="103" on="0"/>
        <pt x="195" y="68" on="0"/>
        <pt x="235" y="68" on="1"/>
      </contour>
    </TTGlyph>
    <TTGlyph name="abreve" xMin="33" yMin="-10" xMax="491" yMax="715">
      <contour>
        <pt x="180" y="551" on="0"/>
        <pt x="107" y="613" on="0"/>
        <pt x="79" y="680" on="0"/>
        <pt x="79" y="690" on="1"/>
        <pt x="145" y="714" on="1"/>
        <pt x="145" y="708" on="0"/>
        <pt x="163" y="668" on="0"/>
        <pt x="210" y="631" on="0"/>
        <pt x="250" y="631" on="1"/>
        <pt x="291" y="631" on="0"/>
        <pt x="340" y="668" on="0"/>
        <pt x="361" y="710" on="0"/>
        <pt x="361" y="715" on="1"/>
        <pt x="400" y="701" on="1"/>
        <pt x="400" y="690" on="0"/>
        <pt x="375" y="618" on="0"/>
        <pt x="305" y="551" on="0"/>
        <pt x="244" y="551" on="1"/>
      </contour>
      <contour>
        <pt x="105" y="-10" on="0"/>
        <pt x="33" y="62" on="0"/>
        <pt x="33" y="118" on="1"/>
        <pt x="33" y="181" on="0"/>
        <pt x="124" y="254" on="0"/>
        <pt x="204" y="267" on="1"/>
        <pt x="305" y="283" on="1"/>
        <pt x="305" y="352" on="1"/>
        <pt x="305" y="392" on="0"/>
        <pt x="268" y="431" on="0"/>
        <pt x="223" y="431" on="1"/>
        <pt x="201" y="431" on="0"/>
        <pt x="174" y="426" on="0"/>
        <pt x="171" y="425" on="1"/>
        <pt x="156" y="334" on="1"/>
        <pt x="153" y="332" on="0"/>
        <pt x="127" y="325" on="0"/>
        <pt x="111" y="325" on="1"/>
        <pt x="50" y="325" on="0"/>
        <pt x="50" y="379" on="1"/>
        <pt x="50" y="419" on="0"/>
        <pt x="121" y="477" on="0"/>
        <pt x="220" y="507" on="0"/>
        <pt x="261" y="507" on="1"/>
        <pt x="419" y="507" on="0"/>
        <pt x="419" y="379" on="1"/>
        <pt x="419" y="76" on="1"/>
        <pt x="491" y="62" on="1"/>
        <pt x="491" y="16" on="1"/>
        <pt x="487" y="14" on="0"/>
        <pt x="456" y="4" on="0"/>
        <pt x="408" y="-5" on="0"/>
        <pt x="384" y="-5" on="1"/>
        <pt x="350" y="-5" on="0"/>
        <pt x="321" y="18" on="0"/>
        <pt x="315" y="41" on="1"/>
        <pt x="308" y="41" on="1"/>
        <pt x="291" y="24" on="0"/>
        <pt x="222" y="-10" on="0"/>
        <pt x="178" y="-10" on="1"/>
      </contour>
      <contour>
        <pt x="257" y="68" on="0"/>
        <pt x="296" y="79" on="0"/>
        <pt x="305" y="85" on="1"/>
        <pt x="305" y="221" on="1"/>
        <pt x="219" y="215" on="0"/>
        <pt x="155" y="173" on="0"/>
        <pt x="155" y="134" on="1"/>
        <pt x="155" y="103" on="0"/>
        <pt x="195" y="68" on="0"/>
        <pt x="235" y="68" on="1"/>
      </contour>
    </TTGlyph>
    <TTGlyph name="acircumflex" xMin="33" yMin="-10" xMax="491" yMax="716">
      <contour>
        <pt x="238" y="616" on="1"/>
        <pt x="121" y="541" on="1"/>
        <pt x="91" y="580" on="1"/>
        <pt x="194" y="684" on="1"/>
        <pt x="226" y="716" on="0"/>
        <pt x="246" y="716" on="1"/>
        <pt x="264" y="716" on="0"/>
        <pt x="288" y="692" on="1"/>
        <pt x="396" y="583" on="1"/>
        <pt x="358" y="540" on="1"/>
      </contour>
      <contour>
        <pt x="105" y="-10" on="0"/>
        <pt x="33" y="62" on="0"/>
        <pt x="33" y="118" on="1"/>
        <pt x="33" y="181" on="0"/>
        <pt x="124" y="254" on="0"/>
        <pt x="204" y="267" on="1"/>
        <pt x="305" y="283" on="1"/>
        <pt x="305" y="352" on="1"/>
        <pt x="305" y="392" on="0"/>
        <pt x="268" y="431" on="0"/>
        <pt x="223" y="431" on="1"/>
        <pt x="201" y="431" on="0"/>
        <pt x="174" y="426" on="0"/>
        <pt x="171" y="425" on="1"/>
        <pt x="156" y="334" on="1"/>
        <pt x="153" y="332" on="0"/>
        <pt x="127" y="325" on="0"/>
        <pt x="111" y="325" on="1"/>
        <pt x="50" y="325" on="0"/>
        <pt x="50" y="379" on="1"/>
        <pt x="50" y="419" on="0"/>
        <pt x="121" y="477" on="0"/>
        <pt x="220" y="507" on="0"/>
        <pt x="261" y="507" on="1"/>
        <pt x="419" y="507" on="0"/>
        <pt x="419" y="379" on="1"/>
        <pt x="419" y="76" on="1"/>
        <pt x="491" y="62" on="1"/>
        <pt x="491" y="16" on="1"/>
        <pt x="487" y="14" on="0"/>
        <pt x="456" y="4" on="0"/>
        <pt x="408" y="-5" on="0"/>
        <pt x="384" y="-5" on="1"/>
        <pt x="350" y="-5" on="0"/>
        <pt x="321" y="18" on="0"/>
        <pt x="315" y="41" on="1"/>
        <pt x="308" y="41" on="1"/>
        <pt x="291" y="24" on="0"/>
        <pt x="222" y="-10" on="0"/>
        <pt x="178" y="-10" on="1"/>
      </contour>
      <contour>
        <pt x="257" y="68" on="0"/>
        <pt x="296" y="79" on="0"/>
        <pt x="305" y="85" on="1"/>
        <pt x="305" y="221" on="1"/>
        <pt x="219" y="215" on="0"/>
        <pt x="155" y="173" on="0"/>
        <pt x="155" y="134" on="1"/>
        <pt x="155" y="103" on="0"/>
        <pt x="195" y="68" on="0"/>
        <pt x="235" y="68" on="1"/>
      </contour>
    </TTGlyph>
    <TTGlyph name="acute" xMin="0" yMin="535" xMax="208" yMax="726">
      <contour>
        <pt x="101" y="690" on="1"/>
        <pt x="115" y="707" on="0"/>
        <pt x="138" y="725" on="0"/>
        <pt x="150" y="726" on="1"/>
        <pt x="169" y="726" on="0"/>
        <pt x="205" y="683" on="0"/>
        <pt x="208" y="648" on="1"/>
        <pt x="33" y="535" on="1"/>
        <pt x="0" y="573" on="1"/>
      </contour>
    </TTGlyph>
    <TTGlyph name="acutecomb" xMin="-208" yMin="535" xMax="0" yMax="726">
      <contour>
        <pt x="-107" y="690" on="1"/>
        <pt x="-93" y="707" on="0"/>
        <pt x="-70" y="725" on="0"/>
        <pt x="-58" y="726" on="1"/>
        <pt x="-39" y="726" on="0"/>
        <pt x="-3" y="683" on="0"/>
        <pt x="0" y="648" on="1"/>
        <pt x="-175" y="535" on="1"/>
        <pt x="-208" y="573" on="1"/>
      </contour>
    </TTGlyph>
    <TTGlyph name="acutecomb.case" xMin="-238" yMin="675" xMax="-2" yMax="841">
      <contour>
        <pt x="-238" y="719" on="1"/>
        <pt x="-99" y="818" on="1"/>
        <pt x="-86" y="826" on="0"/>
        <pt x="-60" y="841" on="0"/>
        <pt x="-51" y="841" on="1"/>
        <pt x="-27" y="841" on="0"/>
        <pt x="-2" y="802" on="0"/>
        <pt x="-2" y="771" on="1"/>
        <pt x="-2" y="765" on="0"/>
        <pt x="-4" y="749" on="1"/>
        <pt x="-214" y="675" on="1"/>
      </contour>
    </TTGlyph>
    <TTGlyph name="adieresis" xMin="33" yMin="-10" xMax="491" yMax="705">
      <contour>
        <pt x="96" y="566" on="0"/>
        <pt x="61" y="604" on="0"/>
        <pt x="61" y="633" on="1"/>
        <pt x="61" y="662" on="0"/>
        <pt x="102" y="705" on="0"/>
        <pt x="131" y="705" on="1"/>
        <pt x="159" y="705" on="0"/>
        <pt x="194" y="670" on="0"/>
        <pt x="194" y="640" on="1"/>
        <pt x="194" y="609" on="0"/>
        <pt x="155" y="566" on="0"/>
        <pt x="124" y="566" on="1"/>
      </contour>
      <contour>
        <pt x="316" y="566" on="0"/>
        <pt x="281" y="604" on="0"/>
        <pt x="281" y="633" on="1"/>
        <pt x="281" y="662" on="0"/>
        <pt x="322" y="705" on="0"/>
        <pt x="351" y="705" on="1"/>
        <pt x="379" y="705" on="0"/>
        <pt x="414" y="670" on="0"/>
        <pt x="414" y="640" on="1"/>
        <pt x="414" y="609" on="0"/>
        <pt x="375" y="566" on="0"/>
        <pt x="344" y="566" on="1"/>
      </contour>
      <contour>
        <pt x="105" y="-10" on="0"/>
        <pt x="33" y="62" on="0"/>
        <pt x="33" y="118" on="1"/>
        <pt x="33" y="181" on="0"/>
        <pt x="124" y="254" on="0"/>
        <pt x="204" y="267" on="1"/>
        <pt x="305" y="283" on="1"/>
        <pt x="305" y="352" on="1"/>
        <pt x="305" y="392" on="0"/>
        <pt x="268" y="431" on="0"/>
        <pt x="223" y="431" on="1"/>
        <pt x="201" y="431" on="0"/>
        <pt x="174" y="426" on="0"/>
        <pt x="171" y="425" on="1"/>
        <pt x="156" y="334" on="1"/>
        <pt x="153" y="332" on="0"/>
        <pt x="127" y="325" on="0"/>
        <pt x="111" y="325" on="1"/>
        <pt x="50" y="325" on="0"/>
        <pt x="50" y="379" on="1"/>
        <pt x="50" y="419" on="0"/>
        <pt x="121" y="477" on="0"/>
        <pt x="220" y="507" on="0"/>
        <pt x="261" y="507" on="1"/>
        <pt x="419" y="507" on="0"/>
        <pt x="419" y="379" on="1"/>
        <pt x="419" y="76" on="1"/>
        <pt x="491" y="62" on="1"/>
        <pt x="491" y="16" on="1"/>
        <pt x="487" y="14" on="0"/>
        <pt x="456" y="4" on="0"/>
        <pt x="408" y="-5" on="0"/>
        <pt x="384" y="-5" on="1"/>
        <pt x="350" y="-5" on="0"/>
        <pt x="321" y="18" on="0"/>
        <pt x="315" y="41" on="1"/>
        <pt x="308" y="41" on="1"/>
        <pt x="291" y="24" on="0"/>
        <pt x="222" y="-10" on="0"/>
        <pt x="178" y="-10" on="1"/>
      </contour>
      <contour>
        <pt x="257" y="68" on="0"/>
        <pt x="296" y="79" on="0"/>
        <pt x="305" y="85" on="1"/>
        <pt x="305" y="221" on="1"/>
        <pt x="219" y="215" on="0"/>
        <pt x="155" y="173" on="0"/>
        <pt x="155" y="134" on="1"/>
        <pt x="155" y="103" on="0"/>
        <pt x="195" y="68" on="0"/>
        <pt x="235" y="68" on="1"/>
      </contour>
    </TTGlyph>
    <TTGlyph name="ae" xMin="37" yMin="-11" xMax="722" yMax="507">
      <contour>
        <pt x="309" y="350" on="1"/>
        <pt x="309" y="390" on="0"/>
        <pt x="272" y="429" on="0"/>
        <pt x="227" y="429" on="1"/>
        <pt x="205" y="429" on="0"/>
        <pt x="178" y="424" on="0"/>
        <pt x="175" y="423" on="1"/>
        <pt x="159" y="334" on="1"/>
        <pt x="156" y="332" on="0"/>
        <pt x="130" y="325" on="0"/>
        <pt x="114" y="325" on="1"/>
        <pt x="84" y="325" on="0"/>
        <pt x="54" y="349" on="0"/>
        <pt x="54" y="379" on="1"/>
        <pt x="54" y="420" on="0"/>
        <pt x="125" y="478" on="0"/>
        <pt x="225" y="507" on="0"/>
        <pt x="266" y="507" on="1"/>
        <pt x="358" y="507" on="0"/>
        <pt x="398" y="458" on="1"/>
        <pt x="453" y="507" on="0"/>
        <pt x="534" y="507" on="1"/>
        <pt x="722" y="507" on="0"/>
        <pt x="722" y="291" on="1"/>
        <pt x="722" y="255" on="0"/>
        <pt x="703" y="228" on="0"/>
        <pt x="682" y="227" on="1"/>
        <pt x="428" y="224" on="1"/>
        <pt x="429" y="150" on="0"/>
        <pt x="483" y="71" on="0"/>
        <pt x="557" y="71" on="1"/>
        <pt x="595" y="71" on="0"/>
        <pt x="656" y="80" on="0"/>
        <pt x="689" y="90" on="0"/>
        <pt x="693" y="92" on="1"/>
        <pt x="708" y="53" on="1"/>
        <pt x="708" y="51" on="0"/>
        <pt x="659" y="17" on="0"/>
        <pt x="583" y="-11" on="0"/>
        <pt x="535" y="-11" on="1"/>
        <pt x="416" y="-11" on="0"/>
        <pt x="363" y="51" on="1"/>
        <pt x="337" y="27" on="0"/>
        <pt x="247" y="-10" on="0"/>
        <pt x="182" y="-10" on="1"/>
        <pt x="109" y="-10" on="0"/>
        <pt x="37" y="63" on="0"/>
        <pt x="37" y="118" on="1"/>
        <pt x="37" y="187" on="0"/>
        <pt x="135" y="262" on="0"/>
        <pt x="214" y="268" on="1"/>
        <pt x="309" y="275" on="1"/>
      </contour>
      <contour>
        <pt x="609" y="313" on="0"/>
        <pt x="609" y="329" on="1"/>
        <pt x="609" y="386" on="0"/>
        <pt x="576" y="430" on="0"/>
        <pt x="530" y="430" on="1"/>
        <pt x="477" y="430" on="0"/>
        <pt x="435" y="352" on="0"/>
        <pt x="433" y="283" on="1"/>
        <pt x="606" y="295" on="1"/>
      </contour>
      <contour>
        <pt x="248" y="213" on="0"/>
        <pt x="184" y="196" on="0"/>
        <pt x="159" y="163" on="0"/>
        <pt x="159" y="135" on="1"/>
        <pt x="159" y="104" on="0"/>
        <pt x="198" y="67" on="0"/>
        <pt x="239" y="67" on="1"/>
        <pt x="259" y="67" on="0"/>
        <pt x="291" y="78" on="0"/>
        <pt x="309" y="86" on="1"/>
        <pt x="309" y="216" on="1"/>
      </contour>
    </TTGlyph>
    <TTGlyph name="aeacute" xMin="37" yMin="-11" xMax="722" yMax="726">
      <component glyphName=".ttfautohint" x="37" y="0" flags="0x0"/>
      <component glyphName="ae" x="0" y="0" flags="0x0"/>
      <component glyphName="acutecomb" x="534" y="0" flags="0x0"/>
    </TTGlyph>
    <TTGlyph name="agrave" xMin="33" yMin="-10" xMax="491" yMax="726">
      <contour>
        <pt x="134" y="648" on="1"/>
        <pt x="137" y="683" on="0"/>
        <pt x="173" y="726" on="0"/>
        <pt x="192" y="726" on="1"/>
        <pt x="204" y="726" on="0"/>
        <pt x="226" y="708" on="0"/>
        <pt x="242" y="690" on="1"/>
        <pt x="342" y="573" on="1"/>
        <pt x="309" y="535" on="1"/>
      </contour>
      <contour>
        <pt x="105" y="-10" on="0"/>
        <pt x="33" y="62" on="0"/>
        <pt x="33" y="118" on="1"/>
        <pt x="33" y="181" on="0"/>
        <pt x="124" y="254" on="0"/>
        <pt x="204" y="267" on="1"/>
        <pt x="305" y="283" on="1"/>
        <pt x="305" y="352" on="1"/>
        <pt x="305" y="392" on="0"/>
        <pt x="268" y="431" on="0"/>
        <pt x="223" y="431" on="1"/>
        <pt x="201" y="431" on="0"/>
        <pt x="174" y="426" on="0"/>
        <pt x="171" y="425" on="1"/>
        <pt x="156" y="334" on="1"/>
        <pt x="153" y="332" on="0"/>
        <pt x="127" y="325" on="0"/>
        <pt x="111" y="325" on="1"/>
        <pt x="50" y="325" on="0"/>
        <pt x="50" y="379" on="1"/>
        <pt x="50" y="419" on="0"/>
        <pt x="121" y="477" on="0"/>
        <pt x="220" y="507" on="0"/>
        <pt x="261" y="507" on="1"/>
        <pt x="419" y="507" on="0"/>
        <pt x="419" y="379" on="1"/>
        <pt x="419" y="76" on="1"/>
        <pt x="491" y="62" on="1"/>
        <pt x="491" y="16" on="1"/>
        <pt x="487" y="14" on="0"/>
        <pt x="456" y="4" on="0"/>
        <pt x="408" y="-5" on="0"/>
        <pt x="384" y="-5" on="1"/>
        <pt x="350" y="-5" on="0"/>
        <pt x="321" y="18" on="0"/>
        <pt x="315" y="41" on="1"/>
        <pt x="308" y="41" on="1"/>
        <pt x="291" y="24" on="0"/>
        <pt x="222" y="-10" on="0"/>
        <pt x="178" y="-10" on="1"/>
      </contour>
      <contour>
        <pt x="257" y="68" on="0"/>
        <pt x="296" y="79" on="0"/>
        <pt x="305" y="85" on="1"/>
        <pt x="305" y="221" on="1"/>
        <pt x="219" y="215" on="0"/>
        <pt x="155" y="173" on="0"/>
        <pt x="155" y="134" on="1"/>
        <pt x="155" y="103" on="0"/>
        <pt x="195" y="68" on="0"/>
        <pt x="235" y="68" on="1"/>
      </contour>
    </TTGlyph>
    <TTGlyph name="amacron" xMin="33" yMin="-10" xMax="491" yMax="667">
      <contour>
        <pt x="74" y="667" on="1"/>
        <pt x="415" y="667" on="1"/>
        <pt x="403" y="593" on="1"/>
        <pt x="62" y="593" on="1"/>
      </contour>
      <contour>
        <pt x="105" y="-10" on="0"/>
        <pt x="33" y="62" on="0"/>
        <pt x="33" y="118" on="1"/>
        <pt x="33" y="181" on="0"/>
        <pt x="124" y="254" on="0"/>
        <pt x="204" y="267" on="1"/>
        <pt x="305" y="283" on="1"/>
        <pt x="305" y="352" on="1"/>
        <pt x="305" y="392" on="0"/>
        <pt x="268" y="431" on="0"/>
        <pt x="223" y="431" on="1"/>
        <pt x="201" y="431" on="0"/>
        <pt x="174" y="426" on="0"/>
        <pt x="171" y="425" on="1"/>
        <pt x="156" y="334" on="1"/>
        <pt x="153" y="332" on="0"/>
        <pt x="127" y="325" on="0"/>
        <pt x="111" y="325" on="1"/>
        <pt x="50" y="325" on="0"/>
        <pt x="50" y="379" on="1"/>
        <pt x="50" y="419" on="0"/>
        <pt x="121" y="477" on="0"/>
        <pt x="220" y="507" on="0"/>
        <pt x="261" y="507" on="1"/>
        <pt x="419" y="507" on="0"/>
        <pt x="419" y="379" on="1"/>
        <pt x="419" y="76" on="1"/>
        <pt x="491" y="62" on="1"/>
        <pt x="491" y="16" on="1"/>
        <pt x="487" y="14" on="0"/>
        <pt x="456" y="4" on="0"/>
        <pt x="408" y="-5" on="0"/>
        <pt x="384" y="-5" on="1"/>
        <pt x="350" y="-5" on="0"/>
        <pt x="321" y="18" on="0"/>
        <pt x="315" y="41" on="1"/>
        <pt x="308" y="41" on="1"/>
        <pt x="291" y="24" on="0"/>
        <pt x="222" y="-10" on="0"/>
        <pt x="178" y="-10" on="1"/>
      </contour>
      <contour>
        <pt x="257" y="68" on="0"/>
        <pt x="296" y="79" on="0"/>
        <pt x="305" y="85" on="1"/>
        <pt x="305" y="221" on="1"/>
        <pt x="219" y="215" on="0"/>
        <pt x="155" y="173" on="0"/>
        <pt x="155" y="134" on="1"/>
        <pt x="155" y="103" on="0"/>
        <pt x="195" y="68" on="0"/>
        <pt x="235" y="68" on="1"/>
      </contour>
    </TTGlyph>
</ttFont>
